<svg version="1.2" xmlns="http://www.w3.org/2000/svg" viewBox="0 0 595 842" width="595" height="842">
	<title>150522471_10464585-ai</title>
	<defs>
		<clipPath clipPathUnits="userSpaceOnUse" id="cp1">
			<path d="m603.78 690.74h-612.28v-628.06h612.28z"/>
		</clipPath>
		<clipPath clipPathUnits="userSpaceOnUse" id="cp2">
			<path d="m603.62 847.13h-611.96v-855.76h611.96z"/>
		</clipPath>
		<clipPath clipPathUnits="userSpaceOnUse" id="cp3">
			<path d="m603.78 847.13h-611.96v-855.76h611.96z"/>
		</clipPath>
	</defs>
	<style>
		tspan { white-space:pre } 
		.s0 { fill: #ffffff } 
		.s1 { fill: none;stroke: #fcf1eb;stroke-miterlimit:10;stroke-width: .5 } 
		.s2 { fill: #008bd1 } 
		.s3 { fill: #0c5da5 } 
		.s4 { fill: none;stroke: #1b296d;stroke-miterlimit:10 } 
		.s5 { fill: none;stroke: #0c3b66;stroke-miterlimit:10 } 
		.s6 { fill: #0a3d87 } 
		.s7 { fill: #00b5d6 } 
		.s8 { fill: #734fdf } 
		.s9 { fill: #fcd890 } 
		.s10 { fill: #e692cd } 
		.s11 { fill: #5a7afb } 
		.s12 { fill: #cde7fc } 
		.s13 { fill: #b464dc } 
		.s14 { fill: #f46969 } 
		.s15 { fill: #fc9d9d } 
		.s16 { fill: #c13333 } 
		.s17 { fill: #faebe8 } 
		.s18 { fill: #f0bef3 } 
		.s19 { fill: #f99393 } 
		.s20 { fill: #b74141 } 
		.s21 { fill: #05a4e2 } 
		.s22 { fill: #cc75a9 } 
		.s23 { fill: #b6cff2 } 
		.s24 { fill: #fcf1eb } 
		.s25 { fill: #ffd8c8 } 
		.s26 { fill: #9b65db } 
		.s27 { fill: #db961d } 
		.s28 { fill: #6e64f2 } 
		.t29 { font-size: 25px;fill: #ffffff;font-weight: 400;font-family: "ChangaOne", "Changa" } 
		.t30 { font-size: 90px;line-height: 82px;fill: #1f36a3;font-weight: 400;font-family: "LuckiestGuy-Regular", "Luckiest Guy" } 
		.t31 { font-size: 12px;fill: #1f36a3;font-weight: 500;font-family: "Rubik-Medium", "Rubik" } 
	</style>
	<g id="PRINT">
		<path id="&lt;Path&gt;" class="s0" d="m602.8 849.1h-612v-855.7h612z"/>
		<g id="&lt;Group&gt;">
			<g id="&lt;Group&gt;">
				<g id="&lt;Group&gt;">
					<path id="&lt;Path&gt;" class="s1" d="m-8.5 85.1h612.3v608.2h-612.3z"/>
					<path id="&lt;Path&gt;" class="s1" d="m-8.5 592h612.3"/>
					<path id="&lt;Path&gt;" class="s1" d="m-8.5 490.6h612.3"/>
					<path id="&lt;Path&gt;" class="s1" d="m-8.5 389.2h612.3"/>
					<path id="&lt;Path&gt;" class="s1" d="m-8.5 287.8h612.3"/>
					<path id="&lt;Path&gt;" class="s1" d="m-8.5 186.5h612.3"/>
					<path id="&lt;Path&gt;" class="s1" d="m501.7 85.1v608.2"/>
					<path id="&lt;Path&gt;" class="s1" d="m399.7 85.1v608.2"/>
					<path id="&lt;Path&gt;" class="s1" d="m297.6 85.1v608.2"/>
					<path id="&lt;Path&gt;" class="s1" d="m195.6 85.1v608.2"/>
					<path id="&lt;Path&gt;" class="s1" d="m93.5 85.1v608.2"/>
				</g>
				<g id="&lt;Clip Group&gt;" clip-path="url(#cp1)">
					<g id="&lt;Group&gt;">
						<g id="&lt;Group&gt;">
							<g id="&lt;Group&gt;">
								<g id="&lt;Group&gt;">
									<g id="&lt;Group&gt;">
										<g id="&lt;Group&gt;">
											<path id="&lt;Path&gt;" class="s2" d="m662.2 486.9c0 0-75.1-39.7-140.4-15 0 0 49.3 41.1 107.9 46.2z"/>
											<path id="&lt;Path&gt;" class="s3" d="m648.7 499.8c0 0-71.4-0.5-107 21 0 0 35 16.8 63.1 21.1z"/>
											<path id="&lt;Path&gt;" class="s4" d="m528.1 472.4c0 0 73.9 3.3 121.7 19.8"/>
											<path id="&lt;Path&gt;" class="s5" d="m549.6 520.8c0 0 93.4-13.3 109-10.7"/>
											<path id="&lt;Path&gt;" class="s6" d="m665.7 503.2c0 0-53.7-18-78.3 8.6-17.9 19.4-1.9 29.9-1.9 29.9 0 0-19.2 1.3-21.8 10.7-2.6 9.5 11.6 17.7 11.6 17.7z"/>
											<path id="&lt;Path&gt;" class="s3" d="m528.9 492.8l6 10.6c0 0-9-1.8-6-10.6z"/>
											<path id="&lt;Path&gt;" class="s3" d="m512.3 482.2l-13.3 4.9c0 0 7.6 7.1 13.3-4.9z"/>
											<path id="&lt;Path&gt;" class="s3" d="m563.8 536l-10.6 1.1c0 0 2.8 5.6 10.6-1.1z"/>
										</g>
									</g>
								</g>
							</g>
						</g>
						<g id="&lt;Group&gt;">
							<g id="&lt;Group&gt;">
								<g id="&lt;Group&gt;">
									<g id="&lt;Group&gt;">
										<g id="&lt;Group&gt;">
											<path id="&lt;Path&gt;" class="s2" d="m-56.1 591.2c0 0 55.7-80.7 135.7-90.2 0 0-28.6 68.3-85.8 104.8z"/>
											<path id="&lt;Path&gt;" class="s3" d="m-35.4 597.3c0 0 72.8-38.6 120.7-35.7 0 0-26.9 35.9-53.3 55.3z"/>
											<path id="&lt;Path&gt;" class="s4" d="m73.4 504.9c0 0-73.9 42.8-114 85.1"/>
											<path id="&lt;Path&gt;" class="s5" d="m77.2 565.9c0 0-102.6 36.2-117.2 47.1"/>
											<path id="&lt;Path&gt;" class="s6" d="m-51 609.7c0 0 45.4-46.9 84.7-32.9 28.7 10.3 17.9 29.6 17.9 29.6 0 0 20.3-8.9 28-0.6 7.7 8.3-2.4 24.2-2.4 24.2z"/>
											<path id="&lt;Path&gt;" class="s3" d="m83.5 526.2l-0.6 14.1c0 0 8.3-6.7 0.6-14.1z"/>
											<path id="&lt;Path&gt;" class="s3" d="m94.7 506.5l16.3-2.1c0 0-4 11.4-16.3 2.1z"/>
											<path id="&lt;Path&gt;" class="s3" d="m70.7 589l11.5-4.5c0 0 0.1 7.2-11.5 4.5z"/>
										</g>
									</g>
								</g>
							</g>
						</g>
					</g>
					<g id="&lt;Group&gt;">
						<g id="&lt;Group&gt;">
							<g id="&lt;Group&gt;">
								<path id="&lt;Path&gt;" class="s3" d="m639.9 153.6q-5.2 1.5-10.2 3.4c-1.5 13.5-12.9 34.7-15.4 33.5-2.5-1.3-3.5-2.7 1.2-16.5 4-12.1 11.9-16.1 13.8-16.9q-7.5 2.8-14.3 6.1 0.4 0.2 0.4 0.2c0 0-0.4 0-1 0.1-8.3 4.2-15.9 8.9-22.9 13.8q0.1 0.1 0.1 0.1 0 0-0.2 0.1c-15.7 11.2-27.8 23.9-36.6 34.7q-0.8 1-1.5 2c1.2 2 4.4 8.2 6.2 18.7 2.4 13.1-3.4 17.4-6.7 4.2-2.4-9.7-1.3-18-0.5-21.7-7.3 9.5-12.9 18.2-16.7 25 1.2 1.9 5.4 9 8.2 19.1 3.2 11.9 1.4 19.8-4.4 5.7-4.7-11.2-4.5-20.6-4.3-23.9-4.3 7.6-6.4 12.5-6.4 12.6l-0.5-0.2c-1.1 2.2-2.3 5.1-3.9 8.6-7.9 17.4-14.2 14.7-9 1.7 4.7-11.6 14.3-17.6 16.4-18.8 2.9-5.5 7.4-13.3 13.5-22.1-2.9 1.8-13.9 8.3-20.3 12.5-7.3 4.9-11-5.4 1.8-11.6 11.2-5.4 17.6-2.3 18.9-1.5 2.5-3.5 5.3-7.2 8.3-10.9 2.4-3 5.1-6.1 7.9-9.3-2.3 1.3-7.7 3.6-16.2 4.6-11.9 1.3-9.9-5.4 1-6.9 9.1-1.3 14.6 0.6 16.2 1.3 6.9-7.5 15.2-15.3 24.9-22.5-4.1 1.3-10.6 3.4-16 4.1-8.4 1.3-8.6-5.1 0.1-7 6.7-1.5 15 0.2 18.3 1.1 6.4-4.7 13.3-9 20.9-13-3.8 0.5-9.2 1-13.9 0.6-8-0.7-5.3-6.7 0.1-6.6 4.2 0 12.8 3.2 16.4 4.7 8.1-4 16.7-7.5 26-10.2z"/>
								<path id="&lt;Path&gt;" class="s3" d="m600.9 171.2c0 0 1.1 13-1.1 25-2.2 12.1-8.1 12.3-7.5-0.2 0.5-12.5 8.6-24.8 8.6-24.8z"/>
								<path id="&lt;Path&gt;" class="s3" d="m574.4 191.4c0 0 1.6 6.6 1.2 17.9-0.4 11.3-7.3 20.4-7.5 4.9-0.2-15.5 6.3-22.8 6.3-22.8z"/>
							</g>
							<g id="&lt;Group&gt;">
								<path id="&lt;Path&gt;" class="s2" d="m540.6 179.9c0 0-32.3 16.2-56.7-13.3 0 0 17.9 3.6 25.8 1.6 8-2.1 25.8 7 30.9 11.7z"/>
								<path id="&lt;Path&gt;" class="s2" d="m545.9 168.8c0 0-22.6-6.6-21.8-27.3 0 0 7.3 1 12.9 7.9 5.6 6.9 8.9 19.4 8.9 19.4z"/>
								<g id="&lt;Group&gt;">
									<path id="&lt;Path&gt;" class="s6" d="m608.9 144.7q0.2 0 0.3 0.2c0.3 0.3 0.3 0.7 0 1-0.3 0.3-33.6 33.9-68.6 34.7-34.9 0.8-49.8-9.8-50.4-10.2-0.3-0.2-0.4-0.7-0.2-1 0.3-0.3 0.7-0.4 1-0.2 0.1 0.1 3.8 2.8 11.8 5.3 7.3 2.4 19.8 5.1 37.8 4.7 34.4-0.8 67.3-34 67.6-34.3 0.2-0.2 0.5-0.2 0.7-0.2z"/>
								</g>
								<g id="&lt;Group&gt;">
									<path id="&lt;Path&gt;" class="s6" d="m528.2 146.9q0.3 0.1 0.5 0.4c0 0.1 5.6 10.2 17.7 20.9 11.9 10.5 41.8-7 42.1-7.1 0.3-0.2 0.7-0.1 0.9 0.2 0.2 0.3 0.1 0.8-0.2 1-0.1 0-7.8 4.6-16.9 7.7-12.5 4.3-21.5 4-26.9-0.7-12.3-10.9-17.9-21.2-18-21.3-0.2-0.4-0.1-0.8 0.3-1q0.2-0.1 0.5-0.1z"/>
								</g>
							</g>
						</g>
						<g id="&lt;Group&gt;">
							<g id="&lt;Group&gt;">
								<path id="&lt;Path&gt;" class="s3" d="m-26.8 187.3q4.1 3.1 7.8 6.3c-3.1 12.3 0 34.3 2.6 34.1 2.5-0.3 3.8-1.2 4.3-14.7 0.4-11.8-5.2-17.9-6.6-19.2q5.6 4.8 10.4 10-0.3 0-0.3 0c0 0 0.3 0.1 0.8 0.4 5.9 6.3 11 12.9 15.4 19.4q0 0 0 0 0 0 0.1 0.2c10 14.8 16.4 29.8 20.6 42.1q0.3 1.1 0.7 2.1c-1.7 1.4-6.5 5.8-11.5 14.3-6.3 10.7-2.6 16.3 4.5 5.9 5.3-7.7 6.9-15.2 7.5-18.7 3.3 10.6 5.2 20 6.4 27.2-1.6 1.2-7.6 6-13.3 13.9-6.7 9.3-7.6 16.7 2 6.4 7.7-8.3 10.6-16.5 11.5-19.5 1.2 8.1 1.5 13 1.5 13.1h0.5c0.1 2.3 0.3 5.1 0.6 8.8 1.2 17.6 7.5 17.3 7.2 4.3-0.3-11.6-6.7-19.9-8.1-21.7-0.8-5.7-2.2-13.9-4.7-23.5 2 2.4 9.5 11.6 13.6 17.4 4.9 6.6 11.4-1.1 2.3-10.7-8-8.3-14.6-7.7-16.1-7.4-1-3.9-2.2-8-3.6-12.2-1.1-3.4-2.4-6.9-3.9-10.6 1.6 1.9 5.5 5.6 12.6 9.2 10 5 10.4-1.5 1.4-6.3-7.5-4.1-13-4.2-14.5-4.1-3.6-8.8-8.3-18.2-14.4-27.7 3.1 2.5 8.1 6.4 12.5 8.8 7 3.8 9.2-1.7 2.3-6.1-5.4-3.5-13.2-4.7-16.3-5-4.1-6.1-8.7-12.2-14-18 3.1 1.6 7.7 3.8 11.9 4.9 7.2 2 6.7-4.1 2-5.8-3.6-1.3-12.1-1.3-15.8-1.2-5.7-6-12.1-11.9-19.3-17.2z"/>
								<path id="&lt;Path&gt;" class="s3" d="m1.4 215.3c0 0-5.1 10.9-7.1 22.1-2 11.2 3 13.3 6.6 2.3 3.6-11.1 0.5-24.4 0.5-24.4z"/>
								<path id="&lt;Path&gt;" class="s3" d="m18 241.4c0 0-3.5 5.3-6.8 15.2-3.4 9.9-0.3 20.1 4.9 6.7 5.2-13.4 1.9-21.9 1.9-21.9z"/>
							</g>
							<g id="&lt;Group&gt;">
								<path id="&lt;Path&gt;" class="s2" d="m51.1 242.3c0 0 22.9 24.6 53.7 6.8 0 0-16.8-2.7-23-7-6.3-4.4-24.7-2.2-30.7 0.2z"/>
								<path id="&lt;Path&gt;" class="s2" d="m50.1 230.9c0 0 21.8 1.6 27.8-16.7 0 0-6.7-1.5-13.8 2.8-7.1 4.2-14 13.9-14 13.9z"/>
								<g id="&lt;Group&gt;">
									<path id="&lt;Path&gt;" class="s6" d="m3.1 189.6q-0.2 0-0.4 0.1c-0.3 0.1-0.5 0.5-0.3 0.8 0.2 0.4 18.3 40.4 48.5 52.5 30.1 12 46.5 7.6 47.2 7.4 0.3-0.1 0.5-0.5 0.4-0.9-0.1-0.3-0.4-0.5-0.8-0.4 0 0-4.2 1.1-11.9 0.8-7.2-0.3-18.9-2-34.4-8.2-29.7-11.8-47.6-51.3-47.8-51.7-0.1-0.2-0.3-0.4-0.5-0.4z"/>
								</g>
								<g id="&lt;Group&gt;">
									<path id="&lt;Path&gt;" class="s6" d="m72.6 217.7q-0.3-0.1-0.5 0.1c-0.1 0.1-8.2 7.1-22.3 12.5-13.7 5.3-34-19.6-34.2-19.8-0.3-0.3-0.7-0.4-1-0.1-0.3 0.2-0.3 0.6-0.1 0.9 0.1 0.1 5.3 6.5 12.3 12.2 9.4 7.7 17.3 10.4 23.5 8.1 14.3-5.5 22.6-12.7 22.6-12.8 0.3-0.2 0.3-0.6 0.1-0.9q-0.2-0.2-0.4-0.2z"/>
								</g>
							</g>
						</g>
					</g>
				</g>
				<g id="&lt;Clip Group&gt;" clip-path="url(#cp2)">
					<g id="&lt;Group&gt;">
						<g id="&lt;Group&gt;">
							<path id="&lt;Path&gt;" class="s7" d="m407.2 104.6l-415.4 117.1v-319.3h390.3z"/>
							<path id="&lt;Path&gt;" class="s8" d="m167.8-98.1c0 0 143 40.6 140.8 64.8-2.1 24.2-73 16.2-73 16.2 0 0 68.7 101.9 44.1 121.4-24.5 19.5-127.1-68.4-127.1-68.4 0 0 43.3 100.9 22.4 114.6-21 13.8-83.1-61.9-83.1-61.9 0 0 8.7 83.6-11.5 87.2-20.3 3.6-37.1-97.8-37.1-97.8 0 0 1.3 97.8-25.1 101.4-26.4 3.6-26.7-70.8-26.7-70.8l0.3-206.2z"/>
							<path id="&lt;Path&gt;" class="s9" d="m-8.2-97.6h108.2q0 0 0.4 0.5c5.6 5.3 57.1 56.2 47.3 72-10.5 16.7-71.7 5.6-71.7 5.6 0 0 55.5 49.4 36.5 82.4-7.4 12.8-21 12.8-34.7 8-21.5-7.5-43.5-26.6-44.2-27.2 0.2 0.7 7.4 22.1 12.6 46.9 6.5 30.9 10.1 67.2-6.4 75.6-29.9 15.3-47.2-28.1-47.2-28.1l-0.2-45.8z"/>
							<path id="&lt;Path&gt;" class="s10" d="m235.6-98.1c0 0 33.3 37.4 24.6 50.9-8.6 13.5-55.6-15.1-55.6-15.1 0 0 26 91.5 0 105.9-26 14.5-64.8-62.8-64.8-62.8 0 0-28.4 57.6-51.5 55.1-23.1-2.4-20.9-75.8-20.9-75.8 0 0-23.2 34.4-39.1 27.9-15.9-6.5 20.3-86.1 20.3-86.1z"/>
							<path id="&lt;Path&gt;" class="s0" d="m305.7-62.3c0 0 7.3 81.4-65.7 74.2-73-7.3-93.1-39.4-128.6-29.7-33.5 9.2-71.1-18.9-41-49.1 30-30.2 76.4 4.6 105.3 4.6 50.3 0 59.9-35.8 59.9-35.8h73.1z"/>
							<path id="&lt;Path&gt;" class="s11" d="m235.6 47.3l63.3-145.4 78 0.1 226.9 0.4v230.7 37.4l-348.7-116.6z"/>
							<path id="&lt;Path&gt;" class="s12" d="m603.8 86.5c0 0-28 57-43.8 52.4-15.8-4.6-1.9-58.8-1.9-58.8 0 0-52.3 51.4-70.5 43.3-18.1-8.1 16.6-71.3 16.6-71.3 0 0-50.7 33.9-64.5 24.4-13.9-9.6 35.3-58.7 35.3-58.7 0 0-53.8 25-61.5 14.2-7.7-10.9 41.1-60.6 41.1-60.6 0 0-42.2 18.2-47.4 7.7-5.2-10.5 77.4-76.4 77.4-76.4l119.2-0.3z"/>
							<path id="&lt;Path&gt;" class="s13" d="m603.8 47.4c0 0-16.6 31.9-23.8 30.2-7.2-1.7 15.5-54.1 15.5-54.1 0 0-61 73.2-85.2 64.4-24.1-8.9 62.5-96.3 62.5-96.3 0 0-100.1 50.8-111.4 34.4-11.3-16.4 71.2-63 71.2-63 0 0-59.2 16.6-65.3-6.4-6.1-23 63-54.7 63-54.7l73.5 0.5z"/>
							<path id="&lt;Path&gt;" class="s0" d="m577.8-62.3c9.5 0 9.5-14.7 0-14.7-9.4 0-9.4 14.7 0 14.7z"/>
							<path id="&lt;Path&gt;" class="s0" d="m569.7-33.3c9.4 0 9.4-14.7 0-14.7-9.5 0-9.5 14.7 0 14.7z"/>
							<path id="&lt;Path&gt;" class="s0" d="m517.1-39.9c9.5 0 9.5-14.7 0-14.7-9.4 0-9.4 14.7 0 14.7z"/>
							<path id="&lt;Path&gt;" class="s0" d="m528.5 19.2c9.5 0 9.5-14.7 0-14.7-9.4 0-9.4 14.7 0 14.7z"/>
							<path id="&lt;Path&gt;" class="s0" d="m562.7 16.2c9.4 0 9.4-14.7 0-14.7-9.5 0-9.5 14.7 0 14.7z"/>
							<path id="&lt;Path&gt;" class="s0" d="m573.6 70c9.5 0 9.5-14.7 0-14.7-9.4 0-9.5 14.7 0 14.7z"/>
							<path id="&lt;Path&gt;" class="s0" d="m478.2 26.7c9.4 0 9.4-14.7 0-14.7-9.5 0-9.5 14.7 0 14.7z"/>
							<path id="&lt;Path&gt;" class="s0" d="m594.2 12.2c9.4 0 9.4-14.7 0-14.7-9.5 0-9.5 14.7 0 14.7z"/>
							<path id="&lt;Path&gt;" class="s12" d="m255.5 97.7c0-5 4-9.1 9.1-9.1 5 0 9.1 4.1 9.1 9.1 0 5.1-4.1 9.1-9.1 9.1-5.1 0-9.1-4-9.1-9.1z"/>
							<path id="&lt;Path&gt;" class="s12" d="m217 133.5c0-1 0.8-1.8 1.8-1.8 1 0 1.8 0.8 1.8 1.8 0 1-0.8 1.8-1.8 1.8-1 0-1.8-0.8-1.8-1.8z"/>
							<path id="&lt;Path&gt;" class="s12" d="m189.3 111.9c0-2.8 2.3-5.1 5.1-5.1 2.8 0 5.1 2.3 5.1 5.1 0 2.8-2.3 5.1-5.1 5.1-2.8 0-5.1-2.3-5.1-5.1z"/>
							<path id="&lt;Path&gt;" class="s12" d="m121.7 96.2c0-5.8 4.8-10.6 10.7-10.6 5.8 0 10.6 4.8 10.6 10.6 0 5.9-4.8 10.6-10.6 10.6-5.9 0-10.7-4.7-10.7-10.6z"/>
							<path id="&lt;Path&gt;" class="s12" d="m88.1 138.4c0-3.7 3-6.7 6.7-6.7 3.8 0 6.8 3 6.8 6.7 0 3.7-3 6.7-6.8 6.7-3.7 0-6.7-3-6.7-6.7z"/>
							<path id="&lt;Path&gt;" class="s12" d="m189.3 68.1c0-4.1 3.3-7.3 7.3-7.3 4 0 7.3 3.2 7.3 7.3 0 4-3.3 7.2-7.3 7.2-4 0-7.3-3.2-7.3-7.2z"/>
							<path id="&lt;Path&gt;" class="s12" d="m235.6 47.3l63.3-145.4 78 0.1c2.8 21.3 6.2 58.9-4.2 64.7-14.3 8.1-37.5-20.5-38.1-21.2 0.3 1.3 17.4 81.8 4.5 87.9-13.1 6.2-28.1-48-28.1-48 0 0-11.6 59.3-24.1 64.3-12.6 5-13.2-33.5-13.2-33.5 0 0-7.7 25.1-18.6 37.7z"/>
						</g>
						<path id="&lt;Path&gt;" class="s14" d="m604.4-97.9v228.2c-42.6-4.4-49.7-21.5-53.2-41.6-2.1-12.5-2.8-26.2-10-38.7-3.2-5.6-6.8-10.3-10.7-14.4-14.9-16.1-32.8-23.4-43.5-42.9-2.2-4-4.1-8.6-5.6-13.8-13.7-48.4 13.3-76.9 13.3-76.9h37.4z"/>
						<path id="&lt;Path&gt;" class="s15" d="m604.4-97.9v7.6l-73.9 125.9c-14.9-16.1-32.8-23.4-43.5-42.9l45.1-90.7z"/>
						<path id="&lt;Path&gt;" class="s15" d="m604.4 14.9v115.4c-42.6-4.4-49.7-21.5-53.2-41.6z"/>
						<path id="&lt;Path&gt;" class="s16" d="m566.6-53.8c0 17.6-13.2 31.8-29.5 31.8q-3.8 0-7.3-1 0 0-0.1 0c-12.6-3.6-22-16-22-30.8 0-17.5 13.2-31.7 29.4-31.7 3.7 0 7.2 0.7 10.5 2.1q0 0 0 0c11.1 4.5 19 16.1 19 29.6z"/>
						<path id="&lt;Path&gt;" class="s12" d="m566.6-53.8c0 17.6-13.2 31.8-29.5 31.8q-3.8 0-7.3-1 0 0-0.1 0c-11-4.6-18.9-16.2-18.9-29.7 0-17.5 13.2-31.7 29.5-31.7 2.5 0 4.9 0.3 7.3 1q0 0 0 0c11.1 4.5 19 16.1 19 29.6z"/>
						<path id="&lt;Path&gt;" class="s16" d="m604.4 11v61.9q-3.1 0.8-6.4 0.8c-3.2 0-6.1-0.5-9-1.5-11.8-4.1-20.5-16.1-20.5-30.2 0-17.6 13.2-31.8 29.5-31.8q3.3 0 6.4 0.8z"/>
						<path id="&lt;Path&gt;" class="s17" d="m604.4 11.6v61.3q-3.1 0.8-6.4 0.8c-3.2 0-6.1-0.5-9-1.5-10.4-4.8-17.7-16.1-17.7-29.1 0-17.5 13.2-31.7 29.4-31.7q1.9 0 3.7 0.2z"/>
						<path id="&lt;Path&gt;" class="s16" d="m604.4-66.6v46.3c-5.8-5.7-9.3-14-9.3-23.1 0-9.2 3.5-17.4 9.3-23.2z"/>
						<path id="&lt;Path&gt;" class="s18" d="m604.4-64v42c-4.6-5.6-7.4-12.9-7.4-21 0-8 2.8-15.4 7.4-21z"/>
					</g>
					<g id="&lt;Group&gt;">
						<g id="&lt;Group&gt;">
							<path id="&lt;Path&gt;" class="s7" d="m154.7 666.6l-163.2-72.5v159.7z"/>
							<path id="&lt;Path&gt;" class="s8" d="m-8.5 849.4v-157.7l612.3-156.7v314.4z"/>
							<path id="&lt;Path&gt;" class="s12" d="m382.9 849.7c0 0 39-103.7 24.2-128.3-14.8-24.6-89.4 58.1-89.4 58.1 0 0 11.9-125.8-22.4-134-34.3-8.2-80.3 155.2-80.3 155.2 0 0-14-87.3-35.3-86.4-21.3 1-1.6 91.8-1.6 91.8 0 0-43-59.3-62.1-52.3-19.2 6.9 20.4 84.2 20.4 84.2 0 0-44.3-36.3-60-27.2-15.7 9.1-12.6 38.6-12.6 38.6z"/>
							<path id="&lt;Path&gt;" class="s10" d="m603.8 716.3c0 0-23.5-76.1-62.6-95.2-39.1-19-14.1 108.4-14.1 108.4 0 0-34.5-54.3-55.6-53.1-21.2 1.3 8.7 101 8.7 101 0 0-42.1-24.1-60.6-9.7-18.5 14.5 22.2 81.7 22.2 81.7h162z"/>
							<path id="&lt;Path&gt;" class="s14" d="m-8.5 849.4v-228.3c42.6 4.4 49.7 21.5 53.1 41.6 2.2 12.6 2.9 26.3 10 38.7 3.3 5.6 6.9 10.3 10.7 14.4 15 16.1 32.9 23.4 43.6 42.9 2.2 4 4.1 8.6 5.6 13.8 13.7 48.4-13.3 76.9-13.3 76.9h-37.4z"/>
							<path id="&lt;Path&gt;" class="s15" d="m-8.5 849.4v-7.7l73.8-125.9c15 16.1 32.9 23.4 43.6 42.9l-45.1 90.7z"/>
							<path id="&lt;Path&gt;" class="s15" d="m-8.5 736.5v-115.4c42.6 4.4 49.7 21.5 53.1 41.6z"/>
							<path id="&lt;Path&gt;" class="s16" d="m29.3 805.2c0-17.6 13.2-31.8 29.4-31.8q3.9 0 7.4 1 0 0 0 0.1c12.7 3.5 22 15.9 22 30.7 0 17.5-13.1 31.7-29.4 31.7-3.6 0-7.2-0.7-10.4-2q0 0 0-0.1c-11.1-4.5-19-16.1-19-29.6z"/>
							<path id="&lt;Path&gt;" class="s9" d="m29.3 805.2c0-17.6 13.2-31.8 29.4-31.8q3.9 0 7.4 1 0 0 0 0.1c11.1 4.5 18.9 16.1 18.9 29.6 0 17.5-13.1 31.7-29.4 31.7-2.5 0-5-0.3-7.3-0.9q0 0 0-0.1c-11.1-4.5-19-16.1-19-29.6z"/>
							<path id="&lt;Path&gt;" class="s16" d="m-8.5 740.4v-61.9q3.1-0.8 6.4-0.8c3.1 0 6.1 0.5 8.9 1.5 11.9 4.1 20.5 16.1 20.5 30.3 0 17.5-13.1 31.7-29.4 31.7q-3.3 0-6.4-0.8z"/>
							<path id="&lt;Path&gt;" class="s17" d="m-8.5 739.8v-61.3q3.1-0.8 6.4-0.8c3.1 0 6.1 0.5 8.9 1.5 10.5 4.9 17.8 16.1 17.8 29.1 0 17.5-13.2 31.7-29.5 31.7q-1.8 0-3.6-0.2z"/>
							<path id="&lt;Path&gt;" class="s16" d="m-8.5 818v-46.3c5.7 5.8 9.3 14 9.3 23.1 0 9.2-3.6 17.4-9.3 23.2z"/>
							<path id="&lt;Path&gt;" class="s18" d="m-8.5 815.4v-42c4.6 5.6 7.3 13 7.3 21 0 8-2.7 15.4-7.3 21z"/>
							<path id="&lt;Path&gt;" class="s9" d="m603.8 762.8c0 0-14.2 27.7-38.8 27.7-27.9 0-59.6 6.5-63.1 31.4-2.7 19.6 2.4 27.5 2.4 27.5h99.5z"/>
							<path id="&lt;Path&gt;" class="s18" d="m320.4 716.5c7.5-17.2 24.9-24.9 42.7-26.8 9.3-0.9 9.4-15.7 0-14.7-22.6 2.5-45.7 12-55.4 34.1-3.8 8.6 8.9 16 12.7 7.4z"/>
							<path id="&lt;Path&gt;" class="s0" d="m313.3 741.6c6.8-20.3 25.2-33.8 46.5-34.6 9.5-0.3 9.5-15 0-14.7-28 1-51.7 18.8-60.7 45.4-3 9 11.2 12.8 14.2 3.9z"/>
							<path id="&lt;Path&gt;" class="s18" d="m503.6 615.3c18.6-2.7 34.3 7.9 45.4 22.1 5.7 7.3 18.3-0.4 12.4-7.8-14-17.9-34.3-32.5-58.2-29-9.3 1.3-8.9 16 0.4 14.7z"/>
							<path id="&lt;Path&gt;" class="s0" d="m478.6 622.6c20.8-5 42 3.5 54 21.1 5.2 7.9 17.7 0.1 12.4-7.8-15.7-23.2-43.3-33.9-70.6-27.4-9.2 2.2-4.9 16.3 4.2 14.1z"/>
							<path id="&lt;Path&gt;" class="s12" d="m508.5 807.8c18-36.9 63.1-50.4 78.8-89.1 17.9-43.9 0.3-91.8-28.4-126.6-6-7.2 4.3-17.6 10.3-10.4 15.2 18.4 27.8 39.1 34.6 62v72.6q-0.4 1.3-0.9 2.6c-7.4 20.7-20.9 36.6-37.5 50.6-15.2 12.8-32.6 24.7-42.5 42.5-6.4 11.5-8.4 24.4-8.2 37.4h-14.5c-0.2-14.3 1.9-28.4 8.3-41.6z"/>
							<path id="&lt;Path&gt;" class="s0" d="m111.8 725.5c9.4 0 9.5-14.7 0-14.7-9.5 0-9.5 14.7 0 14.7z"/>
							<path id="&lt;Path&gt;" class="s0" d="m137.4 697.3c9.5 0 9.5-14.7 0-14.7-9.5 0-9.5 14.7 0 14.7z"/>
							<path id="&lt;Path&gt;" class="s12" d="m378 620.9c0 3.1-2.5 5.6-5.6 5.6-3 0-5.5-2.5-5.5-5.6 0-3 2.5-5.5 5.5-5.5 3.1 0 5.6 2.5 5.6 5.5z"/>
							<path id="&lt;Path&gt;" class="s12" d="m392.3 653.5c0 2.4-2 4.4-4.5 4.4-2.4 0-4.4-2-4.4-4.4 0-2.5 2-4.5 4.4-4.5 2.5 0 4.5 2 4.5 4.5z"/>
						</g>
						<path id="&lt;Path&gt;" class="s0" d="m154.7 852.7c0 0 10.4-28.9 65.1-37.3 54.7-8.5 84.1 37.3 84.1 37.3z"/>
					</g>
				</g>
			</g>
			<g id="&lt;Clip Group&gt;" clip-path="url(#cp3)">
				<g id="&lt;Group&gt;">
					<path id="&lt;Path&gt;" class="s14" d="m527.1 655.5l-46.7 100.5-55.8-23.9-17.8-7.6-5.4-2.3 23.9-101.5c0 0 1.2 0.1 3.4 0.2q1.3 0 3.1 0.2c1.7 0.1 3.7 0.2 5.9 0.4l-7.4 39.6 16.9-38.6c6.5 0.9 13.7 2.1 20.8 3.9q2.5 0.6 5 1.3 3.1 0.9 6 2 0.6 0.2 1.1 0.4l-10.8 35.8 21.6-31.2q2.7 1.2 5.3 2.5c6 3.1 11.7 6.3 16.5 9.2l-1.8 11.3 6.8-8.3c5.7 3.6 9.4 6.1 9.4 6.1z"/>
					<path id="&lt;Path&gt;" class="s19" d="m428.7 620.9l-21.9 103.6-5.4-2.3 23.9-101.5c0 0 1.2 0.1 3.4 0.2z"/>
					<path id="&lt;Path&gt;" class="s20" d="m527.1 655.5l-46.7 100.5-55.8-23.9 71.6-94.9c6 3.1 11.7 6.3 16.5 9.2l-1.8 11.3 6.8-8.3c5.7 3.6 9.4 6.1 9.4 6.1z"/>
					<path id="&lt;Path&gt;" class="s2" d="m476.6 780.7c0 0-1.2 4.3-3.6 11.1q-0.1 0.3-0.2 0.6c-1.1 3.1-2.5 6.7-4.1 10.6q-0.1 0.2-0.2 0.4-1.2 3-2.7 6.1-0.1 0.3-0.2 0.5c-2.3 4.9-5 10.1-8 15.3q-0.1 0.2-0.3 0.4-2.3 3.9-4.9 7.8-0.2 0.2-0.3 0.4-2.4 3.4-5 6.7c-5.4 6.8-10.3 12.4-14.8 17.3q-0.1 0.2-0.3 0.4c-3.4 3.7-6.4 6.8-9.1 9.7q-0.3 0.2-0.4 0.4c-6.9 7.3-11.6 12.6-13.8 18.5q-0.1 0.1-0.1 0.2-0.1 0.1-0.1 0.3c-0.8 2.3-1.6 5.6-2.3 9.5q-0.1 0.2-0.1 0.5c-0.5 2.6-0.9 5.4-1.4 8.4q-0.1 0.3-0.1 0.6c-1 6.5-2.1 13.9-3.4 21.2q0 0.2 0 0.5c-1.6 8.8-3.4 17.4-5.7 24.3q-0.2 0.3-0.3 0.6-0.5 1.5-1 2.8c-2.2 5.5-5.6 12.3-9.6 19q-0.2 0.4-0.5 0.8c-9.6 15.9-22.6 31.3-33.4 30.8q-0.5 0-1-0.1c-1.7-0.9-3-2.3-4.2-4q-0.1-0.2-0.3-0.4c-2.7-4.3-4.1-10.7-4.7-17.9q0-0.3 0-0.6c-0.4-5.6-0.2-11.8 0.4-17.9q0-0.3 0-0.6c0.6-6.4 1.6-12.7 2.8-18.2q0.1-0.3 0.1-0.7c0.6-2.5 1.2-4.8 1.8-6.9 1.2-4.4 3.2-9.2 5.6-14.3q0.1-0.3 0.3-0.6c1.4-3.2 3-6.4 4.7-9.6q0.2-0.3 0.3-0.5c4.5-8.5 9.4-17 13.3-24.2q0.1-0.2 0.3-0.4c2.3-4.3 4.2-8.1 5.4-11.1q0.1-0.2 0.2-0.4 0.5-1.1 0.7-2c0.8-2.2 1.1-4.6 1.3-7.2q0-0.3 0-0.6c0.1-2.7 0-5.7-0.2-9q0-0.3 0-0.6c-0.5-5.5-1.2-12.1-1.9-20q0-0.3 0-0.6c-0.5-6.1-0.9-13-1-21q0-0.3 0-0.6 0-0.4 0-0.7c-0.1-5.3 0.2-10.5 0.8-15.6q0-0.3 0.1-0.6c1.1-9.5 3-18.5 5-26.2q0.1-0.2 0.2-0.5c1-3.7 2-7 2.9-9.9q0.2-0.4 0.3-0.8 0.8-2.5 1.6-4.6c1.5-4.6 2.7-7.2 2.7-7.2l9.1 3.1 0.8 0.3 12.7 4.4 0.6 0.2 21 7.2 0.6 0.2 0.6 0.2 30.5 10.5 0.6 0.2z"/>
					<path id="&lt;Path&gt;" class="s0" d="m396.5 721.7l-1.4 13c-0.1 0.6-0.3 1.1-0.7 1.6l-7.1 9.2c-1.4 1.7-0.6 4.3 1.5 5l43.6 15 10.9-31.8-42.6-14.6c-1.9-0.7-4 0.6-4.2 2.6z"/>
					<path id="&lt;Path&gt;" class="s3" d="m476.6 780.7c0 0-9.1 34.2-29.5 59.9-20.4 25.7-34.2 34.9-38.5 46.5-4.3 11.6-6.6 49.4-14.4 68.7-7.7 18.9-27.9 51.3-43.5 50.6 26.8-59.6 87.2-228.9 87.2-228.9l-52.4-20c1.5-4.6 2.7-7.2 2.7-7.2l44.2 15.2z"/>
					<path id="&lt;Path&gt;" class="s20" d="m480.1 630.1l-10.8 35.8 3.7-38.2q3.1 0.9 6 2 0.6 0.2 1.1 0.4z"/>
					<path id="&lt;Path&gt;" class="s20" d="m437.7 621.5l-7.4 39.6 1.5-40c1.7 0.1 3.7 0.2 5.9 0.4z"/>
					<path id="&lt;Path&gt;" class="s19" d="m468 626.4h-17.6l-20.1 34.7 16.9-38.6c6.5 0.9 13.7 2.1 20.8 3.9z"/>
					<g id="&lt;Group&gt;">
						<path id="&lt;Compound Path&gt;" fill-rule="evenodd" class="s21" d="m446.9 804.7c-2.7 3.2 4 12.6 10.7 20.6q-0.1 0.2-0.3 0.4c-6.8-8.1-13.7-17.9-10.8-21.3 3.1-3.6 12 0.7 19.3 5.1q-0.1 0.3-0.2 0.5c-7.1-4.4-15.8-8.6-18.7-5.3zm-71.2 33.9q0 0-0.1 0 0-0.3 0-0.6c4.5-2.4 8.7-6 8.1-10.8-0.5-3.4-4.3-7-9.1-10.2q0-0.3 0-0.6c5 3.3 9.1 7 9.6 10.8 0.6 4.2-2.4 8.1-8.5 11.4zm1.8 20.6q0-0.3 0-0.6c11.8-8.3 21.8-19.2 18.6-31.6-2.9-11.1-11.5-20.1-20.7-26.9q0-0.3 0.1-0.6c9.4 6.9 18.1 16.1 21.1 27.4 2.7 10.7-3.8 21.7-19.1 32.3zm27.7-87.2q-0.7 2.9-3.7 4.1-3.4 1.3-6.8-0.4c-4.2-2.1-8-7.2-11.1-12.8q0.2-0.4 0.3-0.8c3 5.8 6.8 11 11 13.1 2.1 1.1 4.3 1.2 6.4 0.5q2.8-1.1 3.4-3.8c1.1-4.5-2.8-11.7-7.4-18.5l0.8 0.3c4.6 6.7 8.2 13.8 7.1 18.3zm27.1 85.9q-0.1 0.2-0.3 0.4c-3.3-10-7.5-20.4-12.7-30.9-12-24.3-27.1-45.3-38.8-54.1q0.1-0.2 0.2-0.5c11.7 8.7 27 29.9 39 54.4 5.2 10.4 9.4 20.7 12.6 30.7zm20.1-24.4q-0.2 0.2-0.3 0.4c-12.8-14.7-22.8-32.6-30-48.2-4.5-9.7-8.3-19.2-11.3-27.6l0.6 0.2c3 8.3 6.7 17.6 11.2 27.2 7.2 15.5 17.1 33.3 29.8 48zm16.3-30.5q-0.1 0.2-0.2 0.4c-2.6-1.6-5.3-3.5-8.1-5.5-14.8-11-23-22.3-27.4-32.2l0.6 0.2c4.5 9.8 12.6 20.9 27.1 31.6 2.7 2 5.4 3.8 8 5.5zm4.3-11.2q-0.1 0.3-0.2 0.6c-3.2-3.4-6.3-8.5-8.7-16l0.6 0.2c1.9 6 4.6 11.3 8.3 15.2zm-50.1 76.2q-0.3 0.2-0.4 0.4c-2.5-5.5-6-9.4-11-9.8q-0.9-0.1-1.8-0.1c-9.3 0-21.7 5.1-32 10.3q0-0.3 0-0.6c10.3-5.2 22.7-10.2 32-10.2q1 0 1.9 0.1 7 0.6 11.3 9.9zm-14.2 18.9q-0.1 0.1-0.1 0.2-0.1 0.1-0.1 0.3c-9.3-3.7-22.9-8.3-33-9q0.1-0.2 0.2-0.4c10.1 0.6 23.6 5.3 33 8.9zm-25 52.3c-6.7 11.3-26 20.3-42.8 26.3q0-0.3 0-0.6c16.8-5.9 35.8-14.8 42.4-26 2.4-4.1 3-8.4 1.7-12.7-1.3-4.6-4.3-7.9-8.7-9.9-5.4-2.3-12.5-2.6-20.1-1.7q0.2-0.3 0.3-0.5c7.6-0.9 14.6-0.6 20 1.8 4.6 2 7.6 5.4 9 10.1 1.3 4.5 0.7 8.9-1.8 13.2zm0.9 35.6q-0.2 0.4-0.5 0.8c-12.8 7.5-27.3 18.1-38.6 26.7q-0.1-0.2-0.3-0.4c11.5-8.8 26.5-19.6 39.4-27.1zm-17.9-43.9c0 8.1-11.1 12.9-23 15.8q0.1-0.3 0.1-0.7c11.6-2.8 22.4-7.4 22.4-15.1q0-3.8-2.7-5.5c-2.7-1.7-7.3-1.6-12.3-0.6q0.1-0.3 0.3-0.6c4.9-0.9 9.5-1 12.3 0.8q2.9 1.8 2.9 5.9zm28.8 21.5q-0.2 0.3-0.3 0.6c-21.6 9.1-40.1 20.4-54.7 31q0-0.3 0-0.6c14.7-10.6 33.2-22 55-31zm10.7-55.5q-0.1 0.2-0.1 0.5c-5.3-1.8-13.1-4-21.9-5.6-4.4-0.8-9.3-1.5-14.4-1.9q0.1-0.2 0.3-0.4c5 0.3 9.9 1 14.2 1.8 8.8 1.6 16.5 3.8 21.9 5.6zm-17 9.8c-1.2 2.4-1.4 4.9-0.5 7.5 1.8 5.5 7.9 10.3 12.6 13.4q-0.1 0.2-0.1 0.5c-4.7-3-11-8-13-13.7-0.9-2.7-0.7-5.4 0.5-7.9 1.2-2.4 3-3.8 5.3-4.2 3.2-0.5 7.1 1.2 10.7 3.5q-0.1 0.3-0.1 0.6c-3.1-2.1-6.5-3.7-9.5-3.7q-0.5 0-1.1 0.1c-2.1 0.3-3.7 1.7-4.8 3.9z"/>
					</g>
					<path id="&lt;Path&gt;" class="s17" d="m485.9 748.3l-42.6-14.6-1.5 4.4c-2.1 6-8.6 9.1-14.5 6.9-15.4-5.6-28.4-10.4-28.4-10.4-4.6 1.7 11.3 9.6 27.4 16.6 5.4 2.4 8.1 8.5 6.2 14l-0.1 0.3 43.6 15c2.1 0.7 4.2-0.9 4.2-3.1v-11.6c0-0.6 0.2-1.2 0.5-1.7l6.9-11.1c1.1-1.7 0.2-4-1.7-4.7z"/>
				</g>
				<g id="&lt;Group&gt;">
					<path id="&lt;Path&gt;" class="s10" d="m333 639.7c-0.3 3.5-0.7 7.1-1.4 10.6l-16.8 1.5 15 5.3c-0.3 1.1-0.7 2.2-1.1 3.2 0 0-41.9 0.6-68.9-11.7l1.5-15.4 1.6-17c0 0 39.9-6.1 69.9 1.6 0 0 0.2 1.9 0.4 5l-13.3 0.9 13.5 4.1c0 3.5-0.1 7.6-0.4 11.9z"/>
					<path id="&lt;Path&gt;" class="s22" d="m331.6 650.3l-16.8 1.5 15 5.3c-0.3 1.1-0.7 2.2-1.1 3.2 0 0-41.9 0.6-68.9-11.7l1.5-15.4 71.7 6.5c-0.3 3.5-0.7 7.1-1.4 10.6z"/>
					<path id="&lt;Path&gt;" class="s12" d="m265.2 633.5c-1 12.3-4.5 18.9-4.5 18.9l-31.5-4-318.6-39.9c-2.8-0.4-5.3-1.8-6.9-3.9-1.1-1.3-1.8-2.8-2.1-4.4q-0.4-1.6-0.2-3.3c0.5-5.7 5.6-9.9 11.3-9.5l321.3 23.6 30.5 2.2c1.1 7.9 1.2 14.7 0.7 20.3z"/>
					<path id="&lt;Path&gt;" class="s2" d="m265.2 633.5c-1 12.3-4.5 18.9-4.5 18.9l-31.5-4c1.9-5 3.8-11 5-17.7q0.1-0.3 0.1-0.7c1.2-7 0.8-13.6-0.3-19l30.5 2.2c1.1 7.9 1.2 14.7 0.7 20.3z"/>
					<path id="&lt;Path&gt;" class="s23" d="m265.2 633.5c-1 12.3-4.5 18.9-4.5 18.9l-31.5-4-318.6-39.9c-2.8-0.4-5.3-1.8-6.9-3.9-1.1-1.3-1.8-2.8-2.1-4.4z"/>
					<path id="&lt;Path&gt;" class="s3" d="m265.2 633.5c-1 12.3-4.5 18.9-4.5 18.9l-31.5-4c1.9-5 3.8-11 5-17.7z"/>
				</g>
				<g id="&lt;Group&gt;">
					<path id="&lt;Path&gt;" class="s24" d="m316.3 100.1c5.5 2.2 12.3 3.3 20.1 2.3 40.8-5.4 43.2-30.8 43.2-30.8 0 0-2.2-11.1-13.3-20-3-2.4-6.7-4.7-11.3-6.6 0 0-18.7-2.8-31.2 17.3-12.5 20-21.1 2.5-21.1 2.5 0 0-6.3 11.4-1.2 22.3 2.3 5 7.4 10 14.8 13z"/>
					<path id="&lt;Path&gt;" class="s25" d="m316.3 100.1c5.5 2.2 12.3 3.3 20.1 2.3 40.8-5.4 43.2-30.8 43.2-30.8 0 0-2.2-11.1-13.3-20-5.9 9.7-25.6 39.4-50 48.5z"/>
					<path id="&lt;Path&gt;" class="s24" d="m379.6 71.6l21.9-20.5 230.3-216.7c2.9-2.7 2.7-7.3-0.4-9.8l-0.1-0.1q-0.3-0.3-0.6-0.4c-2.3-1.5-5.4-1.3-7.6 0.5l-245.8 202.1-22.3 18.3c0 0 6.9 2.9 14.1 10.5 3.8 4 7.6 9.3 10.5 16.1z"/>
					<path id="&lt;Path&gt;" class="s9" d="m316.3 100.1q1.2 0.5 2.4 0.9 0.9 0.3 1.7 0.5 0.5 0.1 0.9 0.2 0.4 0.1 0.9 0.2 1.6 0.4 3.3 0.6 0.6 0 1.3 0.1 3.2 0.3 6.7 0.1 0.7-0.1 1.4-0.2 0.8 0 1.5-0.1 1-0.1 1.9-0.3 1-0.1 1.8-0.3 3.5-0.6 6.5-1.3 0.6-0.2 1.2-0.3 0.5-0.2 1-0.3 0.7-0.2 1.5-0.5 1.9-0.6 3.6-1.2 1-0.4 2-0.8 3.2-1.3 5.8-2.8 0.4-0.3 0.9-0.5 1.2-0.8 2.4-1.6 0.4-0.2 0.7-0.5 0.3-0.2 0.6-0.4 1.2-0.8 2.2-1.7 0.3-0.3 0.6-0.6 0.3-0.2 0.6-0.5c-3.8-0.3-7.8-0.4-10.4-1.2-8.5-2.9 3.2-12.3 1.3-17.7-1-2.7-3.9-1.3-7.2 0.1-3.2 1.4-6.9 2.9-9.7 0.7-5.7-4.4 4.2-15.8-1.9-17.4-2.9-0.7-9.1 1.8-15.1 4.7q-1.5 2-2.9 4.3c-12.5 20-21.1 2.4-21.1 2.4 0 0-6.3 11.5-1.2 22.4 2.3 5 7.4 10 14.8 13z"/>
					<path id="&lt;Path&gt;" class="s25" d="m379.6 71.6l252.2-237.2c2.9-2.7 2.7-7.3-0.4-9.8l-0.1-0.1q-0.3-0.3-0.6-0.4l-261.6 231.4c3.8 4 7.6 9.3 10.5 16.1z"/>
					<path id="&lt;Path&gt;" class="s13" d="m379.6 71.6l21.9-20.5c-3.6-5.8-7.5-10.5-11.4-14.3-4.6-4.6-9.1-7.8-12.8-10.1l-22.3 18.3c0 0 6.9 2.9 14.1 10.5 3.8 4 7.6 9.3 10.5 16.1z"/>
					<path id="&lt;Path&gt;" class="s26" d="m379.6 71.6l21.9-20.5c-3.6-5.8-7.5-10.5-11.4-14.3l-21 18.7c3.8 4 7.6 9.3 10.5 16.1z"/>
					<path id="&lt;Path&gt;" class="s27" d="m316.3 100.1q1.2 0.5 2.4 0.9 0.9 0.3 1.7 0.5 0.5 0.1 0.9 0.2 0.4 0.1 0.9 0.2 1.6 0.4 3.3 0.6 0.6 0 1.3 0.1 3.2 0.3 6.7 0.1 0.7-0.1 1.4-0.2 0.8 0 1.5-0.1 1-0.1 1.9-0.3 1-0.1 1.8-0.3 3.5-0.6 6.5-1.3 0.6-0.2 1.2-0.3 0.5-0.2 1-0.3 0.7-0.2 1.5-0.5 1.9-0.6 3.6-1.2 1-0.4 2-0.8 3.2-1.3 5.8-2.8 0.4-0.3 0.9-0.5 1.2-0.8 2.4-1.6 0.4-0.2 0.7-0.5 0.3-0.2 0.6-0.4 1.2-0.8 2.2-1.7 0.3-0.3 0.6-0.6 0.3-0.2 0.6-0.5c-3.8-0.3-7.8-0.4-10.4-1.2-8.5-2.9 3.2-12.3 1.3-17.7-1-2.7-3.9-1.3-7.2 0.1-9.3 11.6-22.4 24.6-37.1 30.1z"/>
				</g>
			</g>
		</g>
		<g id="&lt;Group&gt;">
			<g id="&lt;Group&gt;">
				<g id="&lt;Group&gt;">
					<path id="&lt;Compound Path&gt;" class="s28" d="m344.1 565.5zm9.6-16.8z"/>
					<g id="&lt;Group&gt;">
						<path id="&lt;Compound Path&gt;" fill-rule="evenodd" class="s28" d="m343 557.5c0-3.3 2.6-6 5.9-6 3.3 0 5.9 2.7 5.9 6 0 3.2-2.6 5.9-5.9 5.9-3.3 0-5.9-2.7-5.9-5.9zm5.9 4.5c2.5 0 4.5-2.1 4.5-4.5 0-2.5-2-4.5-4.5-4.5-2.5 0-4.5 2-4.5 4.5 0 2.4 2 4.5 4.5 4.5z"/>
					</g>
					<path id="&lt;Compound Path&gt;" fill-rule="evenodd" class="s28" d="m354.8 567.3h-11.8c-2.2 0-4.1-1.8-4.1-4v-11.7c0-2.2 1.9-4 4.1-4h11.8c2.2 0 4 1.8 4 4v11.7c0 2.2-1.8 4-4 4zm-11.8-18.2c-1.4 0-2.6 1.1-2.6 2.5v11.7c0 1.4 1.2 2.5 2.6 2.5h11.8c1.4 0 2.6-1.1 2.6-2.5v-11.7c0-1.4-1.2-2.5-2.6-2.5z"/>
				</g>
				<path id="&lt;Path&gt;" class="s28" d="m299.7 553.4v-1.5c0-0.8 0.5-1 0.9-1 0.3 0 2.2 0 2.2 0v-3.3h-3c-3.4 0-4.1 2.5-4.1 4.1v1.7h-1.9v3.9h1.9c0 4.3 0 9.6 0 9.6h3.9c0 0 0-5.3 0-9.6h2.8l0.4-3.9z"/>
				<path id="&lt;Compound Path&gt;" fill-rule="evenodd" class="s28" d="m248.8 556.2l8.4 11.1h-5.9l-0.2-0.2-5.6-7.5-7.5 7.7h-1.6l8.4-8.6-8.4-11.1h5.9l5.8 7.7 7.5-7.7h1.6zm-3.2 1.6l1.7-1.7-5.6-7.4h-2.9zm2.4-0.8l-1.7 1.8 5.5 7.3h3z"/>
			</g>
		</g>
		<path id="&lt;Path&gt;" class="s8" d="m442.6 457.1h-289.9c-15.7 0-28.4-12.7-28.4-28.3 0-15.7 12.7-28.4 28.4-28.4h289.9c15.6 0 28.3 12.7 28.3 28.4 0 15.6-12.7 28.3-28.3 28.3z"/>
		<text id=" Meet Up| 15th April" style="transform: matrix(1,0,0,1,297,438.785)" >
			<tspan x="-112.7" y="0" class="t29"> </tspan><tspan  y="0" class="t29">M</tspan><tspan  y="0" class="t29">e</tspan><tspan  y="0" class="t29">e</tspan><tspan  y="0" class="t29">t</tspan><tspan  y="0" class="t29"> </tspan><tspan  y="0" class="t29">U</tspan><tspan  y="0" class="t29">p</tspan><tspan  y="0" class="t29">| 15th April
</tspan>
		</text>
		<text id="ART DAY
" style="transform: matrix(1,0,0,1,296.469,357.035)" >
			<tspan x="-166.1" y="0" class="t30">ART DAY
</tspan>
		</text>
		<text id="WORLD
" style="transform: matrix(1,0,0,1,296.726,285.847)" >
			<tspan x="-142.2" y="0" class="t30">WORLD
</tspan>
		</text>
		<text id="Brought to you by Racchana" style="transform: matrix(1,0,0,1,308.662,187.3)" >
			<tspan x="-64.8" y="0" class="t31">P</tspan><tspan  y="0" class="t31">r</tspan><tspan  y="0" class="t31">e</tspan><tspan  y="0" class="t31">s</tspan><tspan  y="0" class="t31">e</tspan><tspan  y="0" class="t31">n</tspan><tspan  y="0" class="t31">t</tspan><tspan  y="0" class="t31">e</tspan><tspan  y="0" class="t31">d</tspan><tspan  y="0" class="t31"> </tspan><tspan  y="0" class="t31">b</tspan><tspan  y="0" class="t31">y</tspan><tspan  y="0" class="t31"> </tspan><tspan  y="0" class="t31">R</tspan><tspan  y="0" class="t31">a</tspan><tspan  y="0" class="t31">c</tspan><tspan  y="0" class="t31">h</tspan><tspan  y="0" class="t31">a</tspan><tspan  y="0" class="t31">n</tspan><tspan  y="0" class="t31">a</tspan><tspan  y="0" class="t31">
</tspan>
		</text>
	</g>
</svg>