<svg version="1.2" xmlns="http://www.w3.org/2000/svg" viewBox="0 0 612 858" width="612" height="858">
	<title>8959527-ai</title>
	<defs>
		<clipPath clipPathUnits="userSpaceOnUse" id="cp1">
			<path d="m620.79 866.51h-629.3v-875.91h629.3z"/>
		</clipPath>
		<clipPath clipPathUnits="userSpaceOnUse" id="cp2">
			<path d="m620.79 866.51h-629.3v-875.91h629.3z"/>
		</clipPath>
		<clipPath clipPathUnits="userSpaceOnUse" id="cp3">
			<path d="m620.79 866.51h-629.3v-875.91h629.3z"/>
		</clipPath>
		<clipPath clipPathUnits="userSpaceOnUse" id="cp4">
			<path d="m620.79 866.51h-629.3v-875.91h629.3z"/>
		</clipPath>
	</defs>
	<style>
		tspan { white-space:pre } 
		.s0 { fill: #e0ffed } 
		.s1 { fill: #d3f8e2 } 
		.s2 { fill: #b4f2cd } 
		.s3 { fill: #85e6b1 } 
		.s4 { fill: #4a8252 } 
		.s5 { fill: #72c47d } 
		.s6 { fill: #64af6d } 
		.s7 { fill: #8ba528 } 
		.s8 { fill: #8faf2d } 
		.s9 { mix-blend-mode: multiply;fill: #e6e6e6 } 
		.s10 { fill: #ffa288 } 
		.s11 { fill: #1e2436 } 
		.s12 { fill: #d66956 } 
		.s13 { opacity: .6;fill: #e7786b } 
		.s14 { fill: none;stroke: #000000;stroke-linecap: round;stroke-miterlimit:10;stroke-width: .6 } 
		.s15 { fill: #000000 } 
		.s16 { fill: #e2a226 } 
		.s17 { fill: none;stroke: #1e2436;stroke-miterlimit:10;stroke-width: .4 } 
		.s18 { fill: #ffe8d8 } 
		.s19 { opacity: .4;mix-blend-mode: multiply;fill: #d8c7bc } 
		.s20 { fill: #ffffff } 
		.s21 { opacity: .3;mix-blend-mode: multiply;fill: #d8c7bc } 
		.s22 { fill: none;stroke: #ffffff;stroke-miterlimit:10;stroke-width: 1.2 } 
		.s23 { fill: #ffa382 } 
		.s24 { fill: none;stroke: #000000;stroke-linecap: round;stroke-miterlimit:10;stroke-width: .5 } 
		.s25 { fill: #a34b46 } 
		.s26 { fill: #df675f } 
		.s27 { fill: #798a21 } 
		.s28 { fill: #727e1e } 
		.s29 { fill: #49824f } 
		.s30 { fill: #2b4d2f } 
		.s31 { fill: #3a663f } 
		.t32 { font-size: 20px;line-height: 20px;fill: #2c2e32;font-family: "Myriad Pro" } 
		.t33 { font-size: 20px;line-height: 20px;fill: #2c2e32;font-weight: 700;font-family: "OpenSans-Bold", "Open Sans" } 
		.t34 { font-size: 30px;line-height: 30px;fill: #2c2e32;font-family: "Myriad Pro" } 
		.t35 { font-size: 11px;line-height: 11px;fill: #2c2e32;font-weight: 500;font-family: "Montserrat Roman" } 
		.t36 { font-size: 8px;line-height: 12px;fill: #2c2e32;font-weight: bold;font-family: "Montserrat Roman" } 
		.t37 { font-size: 13px;fill: #4a8252;font-weight: 500;font-family: "Montserrat Roman" } 
		.t38 { font-size: 41px;fill: #4a8252;font-weight: 800;font-family: "Montserrat Roman" } 
	</style>
	<g id="PRINT">
		<g id="&lt;Group&gt;">
			<path id="&lt;Path&gt;" class="s0" d="m620.8 866.5h-629.3v-875.9h629.3z"/>
		</g>
		<g id="&lt;Clip Group&gt;" clip-path="url(#cp1)">
			<g id="&lt;Group&gt;">
				<g id="&lt;Group&gt;">
					<path id="&lt;Path&gt;" class="s1" d="m-77.5 444.5c19.9-6.2 33.8-22.4 53.7-26.2 47.5-9.9 101.2-6.2 145.7 10 32.2 11.2 73.6 7.5 107.4-7.5 27.6-13.7 53.7-29.8 82.8-33.6 90.5-11.2 174.9 16.2 262.3 26.2 102.4 12 209 6.6 299.2-36.5v462h-1150.5v-433.4c62.6 33.4 128.1 61.9 199.4 39z"/>
				</g>
				<g id="&lt;Group&gt;">
					<path id="&lt;Path&gt;" class="s2" d="m560.4 576.4c-13.7-5.6-23.2-20.1-37-23.5-32.7-8.9-69.6-5.6-100.2 9-22.1 10.1-50.6 6.7-73.8-6.7-19-12.3-36.9-26.9-57-30.2-62.2-10.1-120.3 14.5-180.4 23.5-70.4 10.8-143.7 5.9-205.7-32.9v415.4h791.2v-389.6c-43 30-88.1 55.6-137.1 35z"/>
				</g>
				<path id="&lt;Path&gt;" class="s3" d="m693.9 698.6c-10.8-2.3-21.6 0.5-29.8 6.8 1.7-9.9-4.6-19.4-14.5-21.6-10.2-2.2-20.3 4.3-22.5 14.5-0.3 1.5-0.4 3.1-0.4 4.6-1-0.7-2.2-1.3-3.5-1.6-1.5-0.3-3-0.2-4.5 0.1-2-10-9.7-18.4-20.4-20.7-4.4-1-8.8-0.8-12.8 0.3-1.4-11.2-9.7-20.8-21.4-23.4-6.8-1.5-13.6-0.3-19.2 2.9-0.1-8.6-6.1-16.3-14.9-18.2-4.6-1-9.1-0.2-12.9 1.9-0.2-5.5-4-10.4-9.7-11.6-0.4-0.1-0.9-0.1-1.4-0.2q0.1-0.4 0.2-0.8c2.9-13.1-5.4-26-18.5-28.9-13-2.8-25.9 5.5-28.8 18.5-0.6 2.8-0.7 5.6-0.4 8.3-2.5-2.4-5.6-4.1-9.2-4.9-10.9-2.4-21.7 4.5-24.1 15.4-0.5 2.4-0.5 4.9-0.2 7.2-1.8-1.2-3.9-2.1-6.1-2.6-7.9-1.7-15.6 1.5-20.1 7.4-3.4-6.3-9.5-11.2-17-12.8-13.8-3-27.5 5.7-30.5 19.5-1.6 7.3 0.1 14.6 4.1 20.2-4.6 0.3-9.1 1.3-13.2 3-4.9-5.5-11.4-9.5-19.1-11.2-10.9-2.4-21.7 0.4-29.8 6.7 1.6-9.8-4.7-19.3-14.5-21.5-10.2-2.2-20.3 4.2-22.5 14.4-0.4 1.6-0.4 3.1-0.4 4.6-1-0.7-2.2-1.2-3.5-1.5-1.6-0.3-3.1-0.3-4.5 0.1-2.1-10.1-9.8-18.4-20.4-20.8-4.4-0.9-8.8-0.7-12.9 0.4-1.4-11.2-9.6-20.9-21.3-23.4-6.8-1.5-13.6-0.3-19.3 2.9-0.1-8.6-6-16.4-14.8-18.3-4.6-1-9.1-0.2-13 1.9-0.2-5.5-4-10.3-9.6-11.6-0.5-0.1-1-0.1-1.4-0.1q0.1-0.4 0.2-0.8c2.8-13.1-5.4-26-18.5-28.9-13.1-2.9-26 5.4-28.9 18.5-0.6 2.8-0.6 5.6-0.3 8.2-2.5-2.3-5.6-4.1-9.3-4.9-10.9-2.3-21.6 4.6-24 15.5-0.5 2.4-0.5 4.8-0.2 7.2-1.9-1.2-3.9-2.1-6.2-2.6-7.8-1.7-15.5 1.4-20.1 7.4-3.4-6.3-9.4-11.2-17-12.9-13.8-3-27.4 5.8-30.4 19.6-1.6 7.3 0.1 14.5 4.1 20.2-17.8 0.8-33.5 13.4-37.5 31.7-0.7 3-1 5.9-0.9 8.9-2.2-1.2-4.5-2-7-2.6-12.5-2.7-24.9 3.5-30.6 14.4-1.6-1.1-3.5-2-5.6-2.4-8.6-1.9-17.1 3.6-19 12.2-1.8 8 2.8 15.8 10.4 18.5 3.3 16.2 29.7 48.8 184.3 58.8 92.9 6 152.9-6 190.9-21.2 11.9 17.2 52.1 40.9 180 49.1 148.3 9.6 212.8-26.7 237.7-48.6 16.1-0.4 30.5-11.8 34.1-28.2 4.3-19.5-8-38.7-27.5-43z"/>
			</g>
		</g>
		<g id="&lt;Clip Group&gt;" clip-path="url(#cp2)">
			<g id="&lt;Group&gt;">
				<g id="&lt;Group&gt;">
					<g id="&lt;Group&gt;">
						<path id="&lt;Path&gt;" class="s4" d="m578.4 743.9c0 0-87.7-63.6-93.7-108.6-6-45 27-37.1 43.6-25.4 16.6 11.6 9.9-38.4-6.5-82.3-16.4-43.9-3.3-53.2 17.7-38.9 21 14.4-11.1-68.1-0.3-94.4 10.8-26.2 48.5-29.2 57 19.7 8.5 48.8 18.3 37 26 26.4 7.6-10.5 35.5-15.7 31.8 41.6-3.8 57.2-8.2 92.1 9.2 86.5 17.3-5.7 39.4-29.6 47 12.7 7.6 42.4-15.8 120.9-60.6 153.1-44.8 32.3-71.2 9.6-71.2 9.6z"/>
					</g>
					<g id="&lt;Group&gt;">
						<g id="&lt;Group&gt;">
							<path id="&lt;Path&gt;" class="s5" d="m568.9 394.8c0 0 58.3 186.5 60.2 378.2-14.5 5.8-28.1 3.8-28.1 3.8 0 0 25.4-88.1-32.1-382z"/>
						</g>
						<g id="&lt;Group&gt;">
							<path id="&lt;Path&gt;" class="s5" d="m511.8 638.3c0 0 37.9 58.5 104.2 78.3-0.4-8.6 2-17.5 2-17.5 0 0-55.5-13.3-106.2-60.8z"/>
						</g>
						<g id="&lt;Group&gt;">
							<path id="&lt;Path&gt;" class="s5" d="m615.3 679.6c0 0 52.7-28.7 69.9-87.5-18.7 31.9-51.5 69.9-71.7 74-1.1 7.3 1.8 13.5 1.8 13.5z"/>
						</g>
						<g id="&lt;Group&gt;">
							<path id="&lt;Path&gt;" class="s5" d="m603.1 588.1c0 0-62.2-42.4-73.5-83.8 31.6 43.6 70.6 69.2 70.6 69.2z"/>
						</g>
						<g id="&lt;Group&gt;">
							<path id="&lt;Path&gt;" class="s5" d="m595.3 530c0 0 30.1-38.6 39.1-78.2-0.6 18.5-10 44.5-34.9 84.3-0.7-3-4.2-6.1-4.2-6.1z"/>
						</g>
					</g>
					<g id="&lt;Group&gt;">
						<path id="&lt;Path&gt;" class="s6" d="m520.6 621.7c0.4 3.4-2 6.6-5.4 7-3.4 0.5-6.6-1.9-7.1-5.3-0.4-3.5 2-6.6 5.4-7.1 3.5-0.4 6.6 2 7.1 5.4z"/>
					</g>
					<g id="&lt;Group&gt;">
						<path id="&lt;Path&gt;" class="s6" d="m560.7 637.6c0.9 6.6-3.7 12.6-10.3 13.5-6.5 0.9-12.6-3.7-13.5-10.3-0.8-6.6 3.8-12.6 10.3-13.5 6.6-0.9 12.6 3.7 13.5 10.3z"/>
					</g>
					<g id="&lt;Group&gt;">
						<path id="&lt;Path&gt;" class="s6" d="m578.4 608.1c0.3 2.7-1.6 5.2-4.3 5.6-2.7 0.4-5.2-1.5-5.6-4.3-0.4-2.7 1.6-5.2 4.3-5.5 2.7-0.4 5.2 1.5 5.6 4.2z"/>
					</g>
					<g id="&lt;Group&gt;">
						<path id="&lt;Path&gt;" class="s6" d="m587.3 660.3c0.4 3.7-2.1 7-5.7 7.5-3.6 0.5-7-2.1-7.5-5.7-0.4-3.6 2.1-7 5.7-7.4 3.6-0.5 7 2 7.5 5.6z"/>
					</g>
					<g id="&lt;Group&gt;">
						<path id="&lt;Path&gt;" class="s6" d="m647.2 587.9c0.9 6.9-3.9 13.2-10.8 14.1-6.8 0.9-13.1-3.9-14.1-10.7-0.9-6.9 3.9-13.2 10.8-14.1 6.9-0.9 13.2 3.9 14.1 10.7z"/>
					</g>
					<g id="&lt;Group&gt;">
						<path id="&lt;Path&gt;" class="s6" d="m673.6 582.6c0.4 2.9-1.6 5.6-4.5 6-2.9 0.4-5.6-1.7-6-4.6-0.4-2.9 1.7-5.6 4.6-6 2.9-0.4 5.6 1.7 5.9 4.6z"/>
					</g>
					<g id="&lt;Group&gt;">
						<path id="&lt;Path&gt;" class="s6" d="m650.4 621c0.3 2-1.1 3.8-3.1 4.1-2 0.3-3.9-1.1-4.1-3.1-0.3-2 1.1-3.9 3.1-4.1 2-0.3 3.8 1.1 4.1 3.1z"/>
					</g>
					<g id="&lt;Group&gt;">
						<path id="&lt;Path&gt;" class="s6" d="m684.1 646.6c0.7 4.8-2.7 9.2-7.5 9.9-4.8 0.6-9.2-2.8-9.8-7.5-0.6-4.8 2.7-9.2 7.5-9.9 4.8-0.6 9.2 2.8 9.8 7.5z"/>
					</g>
					<g id="&lt;Group&gt;">
						<path id="&lt;Path&gt;" class="s6" d="m647.9 687.6c0.6 4.7-2.7 9.1-7.4 9.7-4.7 0.6-9.1-2.7-9.7-7.4-0.6-4.7 2.7-9.1 7.4-9.7 4.7-0.6 9.1 2.7 9.7 7.4z"/>
					</g>
					<g id="&lt;Group&gt;">
						<path id="&lt;Path&gt;" class="s6" d="m586.7 720c0.4 3.3-1.9 6.2-5.1 6.7-3.2 0.4-6.2-1.9-6.6-5.1-0.5-3.2 1.8-6.2 5-6.6 3.3-0.5 6.2 1.8 6.7 5z"/>
					</g>
					<g id="&lt;Group&gt;">
						<path id="&lt;Path&gt;" class="s6" d="m549.2 502.8c0.4 2.7-1.5 5.2-4.2 5.6-2.8 0.4-5.3-1.5-5.6-4.3-0.4-2.7 1.5-5.2 4.2-5.5 2.8-0.4 5.3 1.5 5.6 4.2z"/>
					</g>
					<g id="&lt;Group&gt;">
						<path id="&lt;Path&gt;" class="s6" d="m584.6 524.2c0.8 5.7-3.2 11-9 11.8-5.8 0.8-11-3.3-11.8-9-0.8-5.8 3.3-11.1 9-11.8 5.8-0.8 11.1 3.2 11.8 9z"/>
					</g>
					<g id="&lt;Group&gt;">
						<path id="&lt;Path&gt;" class="s6" d="m571.6 488.7c0.3 2-1.1 3.9-3.1 4.1-2 0.3-3.8-1.1-4.1-3.1-0.3-2 1.1-3.8 3.1-4.1 2-0.3 3.9 1.1 4.1 3.1z"/>
					</g>
					<g id="&lt;Group&gt;">
						<path id="&lt;Path&gt;" class="s6" d="m570.4 463c0.3 2.6-1.5 5-4.1 5.3-2.6 0.4-5-1.4-5.3-4-0.4-2.6 1.5-5 4-5.3 2.6-0.4 5 1.4 5.4 4z"/>
					</g>
					<g id="&lt;Group&gt;">
						<path id="&lt;Path&gt;" class="s6" d="m609.8 470.2c0.6 4.2-2.3 8-6.5 8.6-4.2 0.5-8-2.4-8.6-6.6-0.5-4.1 2.4-8 6.6-8.5 4.1-0.6 8 2.3 8.5 6.5z"/>
					</g>
					<g id="&lt;Group&gt;">
						<path id="&lt;Path&gt;" class="s6" d="m648 482.3c0.5 3.3-1.8 6.3-5.1 6.8-3.3 0.4-6.4-1.9-6.8-5.2-0.4-3.3 1.9-6.3 5.2-6.8 3.3-0.4 6.3 1.9 6.7 5.2z"/>
					</g>
					<g id="&lt;Group&gt;">
						<path id="&lt;Path&gt;" class="s6" d="m632.5 530c0.5 4-2.3 7.6-6.2 8.2-4 0.5-7.7-2.3-8.2-6.3-0.5-4 2.3-7.6 6.2-8.1 4-0.6 7.7 2.2 8.2 6.2z"/>
					</g>
					<g id="&lt;Group&gt;">
						<path id="&lt;Path&gt;" class="s6" d="m627.9 563.5c0.4 3.1-1.7 5.9-4.7 6.3-3.1 0.4-5.9-1.8-6.3-4.8-0.4-3 1.7-5.8 4.8-6.3 3-0.4 5.8 1.8 6.2 4.8z"/>
					</g>
					<g id="&lt;Group&gt;">
						<path id="&lt;Path&gt;" class="s6" d="m565.2 570.5c0.4 3.3-1.8 6.2-5.1 6.7-3.2 0.4-6.2-1.9-6.6-5.1-0.4-3.2 1.8-6.2 5.1-6.6 3.2-0.5 6.2 1.8 6.6 5z"/>
					</g>
					<g id="&lt;Group&gt;">
						<path id="&lt;Path&gt;" class="s6" d="m566.1 390.1c0.3 2.7-1.6 5.3-4.4 5.7-2.8 0.3-5.3-1.6-5.7-4.4-0.4-2.8 1.6-5.3 4.3-5.7 2.8-0.4 5.4 1.6 5.8 4.4z"/>
					</g>
					<g id="&lt;Group&gt;">
						<path id="&lt;Path&gt;" class="s6" d="m566.4 421.4c0.8 5.8-3.3 11.1-9.1 11.9-5.8 0.8-11.2-3.3-11.9-9.1-0.8-5.8 3.3-11.2 9.1-12 5.8-0.8 11.2 3.3 11.9 9.2z"/>
					</g>
					<g id="&lt;Group&gt;">
						<path id="&lt;Path&gt;" class="s6" d="m566 446.6c0.3 1.8-1.1 3.6-2.9 3.8-1.9 0.3-3.6-1-3.9-2.9-0.2-1.9 1.1-3.6 2.9-3.9 1.9-0.2 3.6 1.1 3.9 3z"/>
					</g>
				</g>
				<g id="&lt;Group&gt;">
					<g id="&lt;Group&gt;">
						<path id="&lt;Path&gt;" class="s4" d="m39 737.7c0 0 84.7-67.5 88.7-112.7 3.9-45.2-28.6-35.8-44.7-23.4-16 12.4-11.6-37.9 2.7-82.5 14.4-44.6 0.9-53.3-19.4-38-20.3 15.3 7.9-68.6-4.1-94.3-11.9-25.8-49.8-27-56 22.2-6.2 49.2-16.6 37.8-24.7 27.6-8.1-10.2-36.3-14.1-29.9 42.9 6.4 57 12.4 91.7-5.2 86.9-17.6-4.9-40.8-27.8-46.4 14.9-5.7 42.6 21.2 120 67.4 150.1 46.3 30.2 71.6 6.3 71.6 6.3z"/>
					</g>
					<g id="&lt;Group&gt;">
						<g id="&lt;Group&gt;">
							<path id="&lt;Path&gt;" class="s5" d="m32.6 388.6c0 0-49.7 188.9-42.9 380.5 14.8 5.1 28.3 2.5 28.3 2.5 0 0-29.4-86.8 14.6-383z"/>
						</g>
						<g id="&lt;Group&gt;">
							<path id="&lt;Path&gt;" class="s5" d="m100.7 629.2c0 0-35.2 60.2-100.5 83 0-8.6-2.7-17.4-2.7-17.4 0 0 54.7-15.8 103.2-65.6z"/>
						</g>
						<g id="&lt;Group&gt;">
							<path id="&lt;Path&gt;" class="s5" d="m-0.8 675.2c0 0-53.9-26.2-73.8-84.2 20.1 31 54.6 67.4 75 70.6 1.5 7.3-1.2 13.6-1.2 13.6z"/>
						</g>
						<g id="&lt;Group&gt;">
							<path id="&lt;Path&gt;" class="s5" d="m7.3 583.3c0 0 60.2-45.3 69.5-87.2-29.5 45.1-67.3 72.4-67.3 72.4z"/>
						</g>
						<g id="&lt;Group&gt;">
							<path id="&lt;Path&gt;" class="s5" d="m12.4 524.9c0 0-31.9-37.2-42.6-76.4 1.4 18.4 12 44 38.7 82.7 0.5-3.1 3.9-6.3 3.9-6.3z"/>
						</g>
					</g>
					<g id="&lt;Group&gt;">
						<path id="&lt;Path&gt;" class="s6" d="m91.2 613c-0.3 3.5 2.3 6.5 5.7 6.8 3.5 0.3 6.5-2.2 6.8-5.7 0.3-3.4-2.2-6.4-5.7-6.7-3.4-0.3-6.5 2.2-6.8 5.6z"/>
					</g>
					<g id="&lt;Group&gt;">
						<path id="&lt;Path&gt;" class="s6" d="m51.8 630.8c-0.5 6.6 4.3 12.4 10.9 13 6.6 0.5 12.5-4.3 13-10.9 0.6-6.6-4.3-12.5-10.9-13-6.6-0.6-12.4 4.3-13 10.9z"/>
					</g>
					<g id="&lt;Group&gt;">
						<path id="&lt;Path&gt;" class="s6" d="m32.9 602.1c-0.3 2.7 1.8 5.1 4.5 5.4 2.7 0.2 5.1-1.8 5.4-4.5 0.2-2.8-1.8-5.2-4.5-5.4-2.8-0.2-5.2 1.8-5.4 4.5z"/>
					</g>
					<g id="&lt;Group&gt;">
						<path id="&lt;Path&gt;" class="s6" d="m26.4 654.7c-0.4 3.6 2.3 6.8 6 7.1 3.6 0.4 6.8-2.3 7.2-6 0.3-3.6-2.4-6.8-6.1-7.1-3.6-0.4-6.8 2.3-7.1 6z"/>
					</g>
					<g id="&lt;Group&gt;">
						<path id="&lt;Path&gt;" class="s6" d="m-36.8 585.1c-0.6 6.9 4.5 12.9 11.4 13.5 6.9 0.7 13-4.4 13.6-11.3 0.6-6.9-4.5-13-11.4-13.6-6.9-0.6-13 4.5-13.6 11.4z"/>
					</g>
					<g id="&lt;Group&gt;">
						<path id="&lt;Path&gt;" class="s6" d="m-63.5 581c-0.2 2.9 1.9 5.5 4.9 5.7 2.9 0.3 5.5-1.9 5.7-4.8 0.3-2.9-1.9-5.5-4.8-5.8-2.9-0.2-5.5 1.9-5.8 4.9z"/>
					</g>
					<g id="&lt;Group&gt;">
						<path id="&lt;Path&gt;" class="s6" d="m-38.5 618.3c-0.2 2 1.3 3.7 3.3 3.9 2 0.2 3.8-1.3 4-3.3 0.2-2-1.3-3.8-3.3-4-2.1-0.2-3.8 1.3-4 3.4z"/>
					</g>
					<g id="&lt;Group&gt;">
						<path id="&lt;Path&gt;" class="s6" d="m-71 645.4c-0.5 4.8 3.1 9.1 7.9 9.5 4.8 0.4 9.1-3.2 9.5-8 0.4-4.8-3.1-9-8-9.4-4.8-0.5-9 3.1-9.4 7.9z"/>
					</g>
					<g id="&lt;Group&gt;">
						<path id="&lt;Path&gt;" class="s6" d="m-33 684.7c-0.4 4.7 3.1 8.9 7.9 9.3 4.7 0.5 8.9-3.1 9.3-7.8 0.4-4.7-3.1-8.9-7.8-9.3-4.8-0.5-8.9 3-9.4 7.8z"/>
					</g>
					<g id="&lt;Group&gt;">
						<path id="&lt;Path&gt;" class="s6" d="m29.7 714.3c-0.3 3.2 2.1 6.1 5.3 6.4 3.3 0.3 6.2-2.1 6.4-5.4 0.3-3.2-2.1-6.1-5.3-6.4-3.3-0.3-6.1 2.1-6.4 5.4z"/>
					</g>
					<g id="&lt;Group&gt;">
						<path id="&lt;Path&gt;" class="s6" d="m57.2 495.6c-0.2 2.7 1.8 5.1 4.5 5.4 2.7 0.2 5.1-1.8 5.4-4.5 0.2-2.8-1.8-5.2-4.5-5.4-2.8-0.3-5.2 1.8-5.4 4.5z"/>
					</g>
					<g id="&lt;Group&gt;">
						<path id="&lt;Path&gt;" class="s6" d="m22.8 518.5c-0.5 5.8 3.8 10.9 9.5 11.4 5.8 0.6 10.9-3.7 11.4-9.5 0.6-5.8-3.7-10.9-9.5-11.4-5.8-0.5-10.9 3.8-11.4 9.5z"/>
					</g>
					<g id="&lt;Group&gt;">
						<path id="&lt;Path&gt;" class="s6" d="m34.1 482.5c-0.1 2.1 1.4 3.8 3.4 4 2 0.2 3.8-1.3 3.9-3.3 0.2-2-1.3-3.8-3.3-4-2-0.2-3.8 1.3-4 3.3z"/>
					</g>
					<g id="&lt;Group&gt;">
						<path id="&lt;Path&gt;" class="s6" d="m34.3 456.8c-0.3 2.6 1.7 4.9 4.3 5.1 2.6 0.3 4.9-1.7 5.1-4.3 0.2-2.6-1.7-4.9-4.3-5.1-2.6-0.2-4.9 1.7-5.1 4.3z"/>
					</g>
					<g id="&lt;Group&gt;">
						<path id="&lt;Path&gt;" class="s6" d="m-4.8 465.8c-0.4 4.2 2.7 7.9 6.9 8.2 4.2 0.4 7.9-2.7 8.2-6.9 0.4-4.2-2.7-7.9-6.9-8.3-4.2-0.3-7.9 2.8-8.2 7z"/>
					</g>
					<g id="&lt;Group&gt;">
						<path id="&lt;Path&gt;" class="s6" d="m-42.5 479.6c-0.3 3.3 2.2 6.2 5.5 6.5 3.3 0.3 6.2-2.1 6.5-5.4 0.3-3.4-2.1-6.3-5.4-6.6-3.3-0.3-6.3 2.2-6.6 5.5z"/>
					</g>
					<g id="&lt;Group&gt;">
						<path id="&lt;Path&gt;" class="s6" d="m-24.8 526.5c-0.3 4 2.6 7.6 6.6 7.9 4 0.4 7.6-2.6 7.9-6.6 0.4-4-2.6-7.5-6.6-7.9-4-0.3-7.5 2.6-7.9 6.6z"/>
					</g>
					<g id="&lt;Group&gt;">
						<path id="&lt;Path&gt;" class="s6" d="m-18.7 559.8c-0.2 3.1 2 5.8 5.1 6 3 0.3 5.7-2 6-5 0.3-3.1-2-5.8-5.1-6-3-0.3-5.7 2-6 5z"/>
					</g>
					<g id="&lt;Group&gt;">
						<path id="&lt;Path&gt;" class="s6" d="m44.3 564c-0.3 3.2 2.1 6.1 5.4 6.4 3.2 0.3 6.1-2.1 6.4-5.4 0.3-3.2-2.1-6.1-5.4-6.4-3.2-0.3-6.1 2.1-6.4 5.4z"/>
					</g>
					<g id="&lt;Group&gt;">
						<path id="&lt;Path&gt;" class="s6" d="m35.2 383.7c-0.2 2.8 1.9 5.3 4.6 5.5 2.8 0.3 5.3-1.8 5.6-4.6 0.2-2.8-1.9-5.3-4.7-5.5-2.8-0.3-5.2 1.8-5.5 4.6z"/>
					</g>
					<g id="&lt;Group&gt;">
						<path id="&lt;Path&gt;" class="s6" d="m36.3 415c-0.5 5.8 3.8 11 9.6 11.5 5.9 0.5 11.1-3.8 11.6-9.6 0.5-5.9-3.8-11.1-9.7-11.6-5.8-0.5-11 3.8-11.5 9.7z"/>
					</g>
					<g id="&lt;Group&gt;">
						<path id="&lt;Path&gt;" class="s6" d="m37.9 440.2c-0.2 1.8 1.2 3.5 3.1 3.7 1.9 0.1 3.5-1.3 3.7-3.1 0.2-1.9-1.2-3.6-3.1-3.8-1.9-0.1-3.6 1.3-3.7 3.2z"/>
					</g>
				</g>
			</g>
		</g>
		<g id="&lt;Clip Group&gt;" clip-path="url(#cp3)">
			<g id="&lt;Group&gt;">
				<g id="&lt;Group&gt;">
					<path id="&lt;Path&gt;" class="s7" d="m-488.5 816.3c0 0 298.4-48.8 650.1-74.3 351.7-25.4 769.1 74.3 769.1 74.3 0 0-158.1 77.6-573.7 106.1-415.6 28.4-845.5-106.1-845.5-106.1z"/>
				</g>
				<g id="&lt;Group&gt;">
					<path id="&lt;Path&gt;" class="s8" d="m161.6 742c-121.6 8.8-236.9 20.4-335.7 31.8-11.8 1.4-29.3 6.4-19.5 12.8 24.8 17 69.2 17 103 11.7 56.8-8.5 113.7-12.8 170.5-11.7 7.1 1.1 12.4 4.2 12.4 7.4 7.1 13.8-8.8 28.7 0 40.3 17.8 21.2 67.5 18.1 99.5 12.8 33.8-5.4 58.6-23.4 90.6-29.7 44.4-9.6 90.6-7.5 135 0 76.4 13.7 154.5 24.3 236.2 15.9 14.2-1.1 28.4-9.6 19.6-17-21.4-17-60.4-15.9-85.3-28.6-8.9-5.4 14.2-6.4 23.1-4.3 51.5 7.4 99.5 19.1 149.2 23.3 54.2 3.4 108.7 6.9 163.2 7.9-57.1-13-437.4-96-761.8-72.6z"/>
				</g>
			</g>
		</g>
		<g id="&lt;Group&gt;">
			<path id="&lt;Path&gt;" class="s9" d="m285.4 826.7c0 10.5-60.5 19-135.3 19-74.7 0-135.3-8.5-135.3-19 0-10.5 60.6-19.1 135.3-19.1 74.8 0 135.3 8.6 135.3 19.1z"/>
			<path id="&lt;Path&gt;" class="s9" d="m597.3 831.5c0 10.6-69.3 19.1-154.7 19.1-85.4 0-154.6-8.5-154.6-19.1 0-10.5 69.2-19 154.6-19 85.4 0 154.7 8.5 154.7 19z"/>
		</g>
		<g id="&lt;Group&gt;">
			<g id="&lt;Group&gt;">
				<g id="&lt;Group&gt;">
					<g id="&lt;Group&gt;">
						<g id="&lt;Group&gt;">
							<g id="&lt;Group&gt;">
								<path id="&lt;Path&gt;" class="s10" d="m175.7 761.2l-1.1 6.7-49 6.1-4.1-9.5z"/>
								<g id="&lt;Group&gt;">
									<path id="&lt;Path&gt;" class="s11" d="m168.3 601c-5.1-4.9-12.2-7-19.1-6.4-6.8 0.5-22.9-3.6-31.3 18.1-2.1 5.4-3.3 13-1.9 18.7 1.2 5 4.2 9.4 4.6 14.5 0.3 5.4-2.3 10.4-5.3 14.8-2.9 4.3-6.3 8.5-7.6 13.7-2.3 8.6 1.6 18 7.7 24 6.1 6 14.1 9.1 22 11.6 8.2 2.6 16.7 4.7 25.1 3.2 8.4-1.4 16.7-7.2 19.2-16 1.9-6.7 0.4-14-1.6-20.6-2-6.7-4.4-13.4-4.3-20.4 0.1-6.1 2.2-11.9 3-17.9 0.5-3.3 0.5-6.8-0.4-10.1-0.8-3-3-5.1-3.2-8.1-0.6-7.6-1.1-13.7-6.9-19.1z"/>
									<g id="&lt;Group&gt;">
										<path id="&lt;Path&gt;" class="s10" d="m252.3 735.8c-0.3 1.1 0.9 1.7 3.3 2.3 2 2.8-4.3 4-4.3 4l-5.3 0.2c0 0-2 0-0.8-2.8 1.2-2.7 1.3-2.1 2.9-2.3 1.6-0.2 5.7-0.6 4.2-2.6-0.6-0.8-4.3-2.2-6.5-2.2-0.9 0-3.6 3-5.2 4.6-1.4 1.4-3 6.1-3 6.1-24.3 5.2-38.1-1.7-38.1-1.7-3.4-10.5-8-64.2-26.4-61.6-3.5 0.5-10.7 11.8-9.6 22.3 0.3 16.7 9.8 33.2 13.8 55.8 2.8 15.6 43.3 2.3 64.9-1.4 0 0 33.8-5.1 33.2-8.1-0.6-3-15.2-0.4-15.2-0.4 0 0 16.2 0.2 15.8-2.6-0.4-2.7-18.8-0.2-18.8-0.2l2.4-1.8c0.8-0.6 1.2-1.7 0.8-2.7l-1.3-3.7c-0.3-0.8-0.9-1.4-1.7-1.6-1-0.1-2.1-0.5-3-0.7-0.9-0.3-1.9 0.2-2.1 1.1z"/>
									</g>
									<g id="&lt;Group&gt;">
										<path id="&lt;Path&gt;" class="s10" d="m132.1 625.1c-0.1 0.5-0.6 0.8-1.1 0.7-2-0.6-6.6-2.2-8.7 3-2 5.3 2.4 9.6 5.4 10.6 0.9 0.3 3 1 3.4 1.8 1.4 2.5 1.1 7.2 1.1 13.1 0.1 13.1-4.5 24.6-4.5 24.6 0 0 25.5 16.8 29.2 0.9 0 0-0.1-30.7 0.1-30.8 3.1-1.9 14.3-0.8 13.4-23.1-0.7-20.7-15.2-22.9-19-23.2-3.1-0.2-13.8-2.2-19.3 22.4z"/>
										<g id="&lt;Group&gt;">
											<path id="&lt;Path&gt;" class="s12" d="m124.3 630.9c0 0 4.9-5.9 6.7 4.2"/>
											<path id="&lt;Path&gt;" class="s13" d="m150 629.6c2.7 0.7 4.3 3.3 3.7 6-0.6 2.7-3.3 4.4-5.9 3.8-2.7-0.7-4.4-3.3-3.8-6 0.6-2.7 3.3-4.4 6-3.8z"/>
											<path id="&lt;Path&gt;" class="s13" d="m169.7 636.6c-2.2-1-3.4-3.3-2.8-5.7 0.4-1.8 1.7-3.2 3.4-3.7 0 0 0.7 5.9-0.6 9.4z"/>
											<path id="&lt;Path&gt;" class="s14" d="m157.9 634.4c0 0 1.6 2.5 5.1 1.9 2.2-0.4 3.4-2.8 3.4-2.8"/>
											<path id="&lt;Path&gt;" class="s12" d="m162.1 629.3l-0.7 3.8h2c0.4 0 0.6-0.4 0.4-0.8z"/>
											<path id="&lt;Path&gt;" class="s15" d="m153.6 623.1c-0.8 0.7 0.3-2.3 1.6-2.8 1.2-0.4 2.5 0.1 2.9 1.1 0 0-2.4-0.1-4.5 1.7z"/>
											<path id="&lt;Path&gt;" class="s15" d="m168 621.5c1 0.5-0.6-2.2-1.9-2.4-1.3-0.3-2.5 0.4-2.7 1.6 0 0 2.3-0.6 4.6 0.8z"/>
											<path id="&lt;Path&gt;" class="s12" d="m158 648.7c0 0-5.9 0.4-10.5-1 2.6 6.8 8.1 6.4 10.5 1z"/>
										</g>
										<path id="&lt;Path&gt;" class="s11" d="m165.5 599.1c11.7 6 6.2 20.6 6.2 20.6-5.7 0.7-11.5-7.2-13.1-12.6l-0.6-1.8c0.5 6.6-3.6 12.7-9.9 14.7l-11.2 3.8 3.4-13-5.4 15.2-7.8-2.3c0 0 11-38.7 38.4-24.6z"/>
										<g id="&lt;Group&gt;">
											<path id="&lt;Path&gt;" class="s14" d="m156.3 629.8c1.1 0.4 2.5 0.8 3.5-0.3"/>
											<path id="&lt;Path&gt;" class="s14" d="m163.9 629.2c1.1 0.4 2.5 0.8 3.5-0.4"/>
										</g>
									</g>
									<path id="&lt;Path&gt;" class="s16" d="m158.2 666.5c0 0 24.5-4.5 30.8 34.9l-28.4 4.8z"/>
									<path id="&lt;Path&gt;" class="s16" d="m175.8 683.1c-5.3-5.7-11.4-9.9-17.4-14.6l2.2 37.7 28.4-4.8c0-0.4-0.1-0.9-0.2-1.3-3.9-6-8.1-11.8-13-17z"/>
									<g id="&lt;Group&gt;">
										<path id="&lt;Path&gt;" class="s16" d="m157.6 666.3c12.9 6.3 23.4 37.7 23.9 51.9 0.5 14.4-0.8 37.3-0.8 37.3 0 0-47.9 1.1-61.9 2-7.8-23.6-8.8-63.4-4-81.6 0 0 7.7-5.7 14.5-8.7 0 0 20.5 26.9 28.3-0.9z"/>
									</g>
									<g id="&lt;Group&gt;">
										<path id="&lt;Path&gt;" class="s16" d="m114.2 678.7c-4.1 19.3-2.8 56.4 4.6 78.8 7.1-0.5 23-1 36.9-1.4-20-22-37-47.9-41.5-77.4z"/>
									</g>
									<g id="&lt;Group&gt;">
										<path id="&lt;Path&gt;" class="s10" d="m35.5 735.8c0.3 1.1-1 1.7-3.4 2.3-2 2.8 4.4 4 4.4 4l5.3 0.2c0 0 2 0 0.8-2.8-1.2-2.7-1.3-2.1-3-2.3-1.6-0.2-5.6-0.6-4.1-2.6 0.6-0.8 4.3-2.2 6.5-2.2 0.8 0 3.5 3 5.1 4.6 1.4 1.4 3.1 6.1 3.1 6.1 24.2 5.2 38-1.7 38-1.7 3.5-10.5 8-64.2 26.5-61.6 3.5 0.5 10.7 11.8 9.6 22.3-0.4 16.7-9.8 33.2-13.8 55.8-2.8 15.6-43.4 2.3-65-1.4 0 0-33.7-5.1-33.1-8.1 0.6-3 15.2-0.4 15.2-0.4 0 0-16.2 0.2-15.8-2.6 0.4-2.7 18.7-0.2 18.7-0.2l-2.4-1.8c-0.8-0.6-1.1-1.7-0.8-2.7l1.3-3.7c0.3-0.8 1-1.4 1.8-1.6 0.9-0.1 2.1-0.5 2.9-0.7 1-0.3 2 0.2 2.2 1.1z"/>
									</g>
									<path id="&lt;Path&gt;" class="s16" d="m120.3 671.4c10 2.1 21 13.1 5.6 46.2l-34.4-11.8c0 0 11.9-37.9 28.8-34.4z"/>
									<path id="&lt;Path&gt;" class="s11" d="m136 702.4c5.8-1.7 16.2-7.9 15.1-9.3-1.6-2-3.7-3.6-5.8-5.1-2.6-1.8-5.4-3.7-7.3-6.3-3-3.8-3.8-8.8-3.9-13.7-0.2-4.8 0.2-9.7-0.8-14.4-0.5-2.8-3.9-12.7-7.8-8.5-1.5 1.7-1.5 5.3-2.4 7.5-1.2 2.7-2.8 5.3-4.5 7.7-3.4 5.1-7.3 10.2-8 16.4-0.7 7 3.2 13.8 8.6 18.4 4 3.3 8.7 5.7 13.5 7.6 0.7 0.3 1.8 0.1 3.3-0.3z"/>
									<path id="&lt;Path&gt;" class="s17" d="m138.8 612.6c-5.5 3.9-9 10.5-9.3 17.2-0.2 6.8 2.9 13.6 8.2 17.8 2.3 1.9 5 3.4 7 5.6 4.7 5.3 3.5 14.7-2.4 18.6"/>
									<path id="&lt;Path&gt;" class="s17" d="m123.4 639.2c1.5 3.2 1 7.1-0.6 10.3-1.6 3.1-4.1 5.8-6.6 8.3-2.5 2.5-5.1 5-6.9 8-4.2 6.8-3.9 16.1 0.6 22.7"/>
									<path id="&lt;Path&gt;" class="s17" d="m175.3 628.9c-1.8 3.1-2.6 6.7-3 10.2-1.7 14.7 2.8 30 12 41.6"/>
									<path id="&lt;Path&gt;" class="s17" d="m131.9 617.5c-4.3 5.5-4.9 13.2-3.9 20.1 1.1 7 3.6 13.6 4.7 20.6 1.1 6.9 0.7 14.6-3.5 20.2"/>
									<path id="&lt;Path&gt;" class="s17" d="m166.6 612.4c4.2 4.7 8.4 9.4 11.4 15 3 5.5 4.5 12.1 3 18.2"/>
								</g>
							</g>
							<path id="&lt;Path&gt;" class="s18" d="m122.4 756.7c-15.1 18.2-25.5 66.2-25.5 66.2l104-2.5c0 0-6-47.2-25.1-64.7-0.1 0.1-29.4-1-53.4 1z"/>
							<path id="&lt;Path&gt;" class="s19" d="m122.4 756.7c-15.1 18.2-25.5 66.2-25.5 66.2l104-2.5c0 0-6-47.2-25.1-64.7-0.1 0.1-29.4-1-53.4 1z"/>
							<g id="&lt;Group&gt;" style="opacity: .3">
								<g id="&lt;Group&gt;">
									<path id="&lt;Path&gt;" class="s20" d="m101.9 683.4c3.8 7.9 12.6 12.9 14.2 22 0.6 2.9 0.2 6.2-1.7 8.5 6.1-12.2-8.9-20.3-12.5-30.5z"/>
								</g>
								<g id="&lt;Group&gt;">
									<path id="&lt;Path&gt;" class="s20" d="m95.2 692.4c4.8 4 8.1 10 9.1 16.2-2.2-5.9-5.2-11.3-9.1-16.2z"/>
								</g>
								<g id="&lt;Group&gt;">
									<path id="&lt;Path&gt;" class="s20" d="m115.2 673.4c1.9 10 4.4 22.2 15.3 25.9-11.4-2.4-14.8-15.8-15.3-25.9z"/>
								</g>
								<g id="&lt;Group&gt;">
									<path id="&lt;Path&gt;" class="s20" d="m129.5 754c3.8-24.5 26.3-47 52.3-39.5-26-6.1-47.2 15.5-52.3 39.5z"/>
								</g>
								<g id="&lt;Group&gt;">
									<path id="&lt;Path&gt;" class="s20" d="m182.7 732.7c-2.7-1.4-6.2-3-9-1.2-1.3 0.8-1.6 2.4-2 4-0.5 1.6-1.3 3.1-2.4 4.4-3 4.2-8.7 4.5-12.1 8.1-1.1 1.1-1.8 2.7-1.7 4.3-0.3-1.6 0.4-3.3 1.4-4.6 3.1-3.9 8.8-4.3 11.7-8.3 1.7-1.9 2.3-4.2 3.1-6.5 2.1-4.5 7.9-2.6 11-0.2z"/>
								</g>
								<g id="&lt;Group&gt;">
									<path id="&lt;Path&gt;" class="s20" d="m166.8 668.2c3.5 8.5 9.8 15.5 17.9 19.9-8.6-3.2-15.7-11-17.9-19.9z"/>
								</g>
								<g id="&lt;Group&gt;">
									<path id="&lt;Path&gt;" class="s20" d="m159.9 668.2c1.2 6.2 1.9 12.6 2 19 0.3 6.4-1.3 14.7-9.4 14.6-8.7-0.4-10.6 1.5-14.8 8.7-3.4 5.5-8.4 10-14.2 12.6 5.6-2.9 10.4-7.5 13.6-12.9 4-7.4 6.7-9.7 15.4-9.3 7.5 0.2 8.8-7.6 8.7-13.7 0.1-6.4-0.4-12.7-1.3-19z"/>
								</g>
							</g>
						</g>
						<g id="&lt;Group&gt;">
							<path id="&lt;Path&gt;" class="s10" d="m220.7 832.2c1.9-0.4 0-3.9-4.4-5.2-7.1-2.1-18.4-6.1-21.8-10.1-3.8-4.7-7.4-6.5-9.9-7.2-1.9-0.5-4 0-5.5 1.3-1 0.8-2.4 1.8-3.8 1.9-1.5 0.1-3.5-0.3-3.5-0.3l0.8 21.4c0 0 39.6-0.3 48.1-1.8z"/>
						</g>
						<path id="&lt;Path&gt;" class="s18" d="m175.6 833.8c0 0-132-1.9-133-36.1-0.8-31.5 51.7-24 57.2-23.2 20.7 2.9 76.5 28.7 76.5 28.7z"/>
						<path id="&lt;Path&gt;" class="s21" d="m140.5 787.9l34.7 14.6-0.7 31.4c0 0-85-4.5-104.9-14.5z"/>
						<path id="&lt;Path&gt;" class="s22" d="m163.5 833.5l3.8-35"/>
						<path id="&lt;Path&gt;" class="s18" d="m134.6 832.1c0 0 126.4-4.3 122.7-38.3-2.7-25.3-44.2-20.3-63.9-13.4-19.8 6.9-60.4 25.2-60.4 25.2z"/>
						<g id="&lt;Group&gt;">
							<path id="&lt;Path&gt;" class="s10" d="m86.9 832.2c-1.9-0.2-0.3-3.9 4-5.6 6.8-2.8 17.7-7.9 20.6-12.2 3.4-5 6.7-7.2 9.2-8.1 1.9-0.7 3.9-0.4 5.6 0.7 1.1 0.8 2.6 1.6 3.9 1.5 1.6 0 3.5-0.6 3.5-0.6l1.2 21.4c0 0-39.3 3.5-48 2.9z"/>
						</g>
						<path id="&lt;Path&gt;" class="s22" d="m139.8 803l2.6 27.5"/>
					</g>
				</g>
			</g>
			<g id="&lt;Group&gt;">
				<g id="&lt;Group&gt;">
					<g id="&lt;Group&gt;">
						<g id="&lt;Group&gt;">
							<g id="&lt;Group&gt;">
								<path id="&lt;Path&gt;" class="s23" d="m363.1 648.6c9.4 19.8 27.6 61.3 37 68.3 11.6 8.5 34.1 11.1 34.1 11.1-34.4 47.3-50.5 35.5-50.5 35.5-23.2-17.9-33.8-94.5-35.7-108.1l-11.6-13.8c0 0-4.1-4.2-5-9.6-1-5.5-1.9-10.2-0.8-10 1.1 0.2 4.1 7.4 4.6 8.8 0.5 1.3 2.1 3.8 2.7 4.3 0.7 0.4-4.4-13.1-4.6-16.3-0.3-3.1-1.4-7.8-0.3-7.8 1.1-0.1 3.9 5.3 3.9 5.3 0 0-1-6.5 0.2-6.7 1.1-0.3 2.7 4 3.2 6 0.4 2.1 5.5 13.1 6.8 13.5 0 0 1.6-10.9 2.5-12.5 0.9-1.6 9 1.1 9.2 2 0.2 0.9-3.6 2.5-5.2 2.3l-1 7.3c0 0 3.6 5.6 6.3 5.1 0 0 2.2-6.2 2.1-6.9-0.1-0.7-3.7-2.9-2.3-7.1 1.4-4.2 8.3 12.1 8.3 12.1 0 0-4.4 11.2-3.9 17.2z"/>
								<g id="&lt;Group&gt;">
									<g id="&lt;Group&gt;">
										<g id="&lt;Group&gt;">
											<path id="&lt;Path&gt;" class="s12" d="m336.3 615.8c1.5 6.2 4.1 12 7.6 17.3 0.3 0.5 1 0.1 0.7-0.3-3.5-5.3-6.1-11.1-7.6-17.2-0.1-0.5-0.8-0.3-0.7 0.2z"/>
										</g>
									</g>
									<g id="&lt;Group&gt;">
										<g id="&lt;Group&gt;">
											<path id="&lt;Path&gt;" class="s12" d="m357.5 633.4c-0.7 0-1.6 0-2.3 0.3-0.8 0.5-1.1 1.3-1.1 2.2 0 2.3 0.3 4.7 0.9 7 0.1 0.5 0.9 0.3 0.8-0.2q-0.8-2.9-0.9-6c0-0.8-0.2-1.8 0.6-2.3 0.6-0.3 1.4-0.3 2-0.2 0.5 0 0.5-0.8 0-0.8z"/>
										</g>
									</g>
									<g id="&lt;Group&gt;">
										<g id="&lt;Group&gt;">
											<path id="&lt;Path&gt;" class="s12" d="m341.6 638.7q2.6-3.3 5.2-6.6c0.3-0.4-0.3-0.9-0.6-0.5q-2.5 3.2-5.1 6.5c-0.3 0.4 0.2 1 0.5 0.6z"/>
										</g>
									</g>
								</g>
							</g>
							<g id="&lt;Group&gt;">
								<path id="&lt;Path&gt;" class="s18" d="m422.9 639.4c0 0-24.2 4.7-36.4 60l18.3 29.2z"/>
								<path id="&lt;Path&gt;" class="s21" d="m419.6 640.7c0.7 1.6 0.5 3.5-1 5.2-5.2 5.4-8.3 12.2-11.3 19-3 6.9-5.9 13.9-8.5 21.1-2.6 7.2-4.8 14.6-6.9 22l12.9 20.6 18.1-89.2c0 0-1.2 0.3-3.3 1.3z"/>
								<g id="&lt;Group&gt;">
									<g id="&lt;Group&gt;">
										<g id="&lt;Group&gt;">
											<path id="&lt;Path&gt;" class="s18" d="m494.6 782.9c0 0 0.9-88.8-4.2-115.6-5-26.8-33.1-33.9-33.1-33.9l-9.9-4.2-20.7 6.7-7.3 4.9c-6 4.4-9.2 16.3-10.4 23.3l-13.2 118.7z"/>
											<path id="&lt;Path&gt;" class="s21" d="m490.4 667.3c-3.9-20.8-21.7-29.7-29.4-32.7-3.1 12.9-8.5 25.1-12.6 37.7-5.2 15.6-9.9 31.3-14.6 47-5.6 19.3-13.9 43.4-20 62.4l81.3 0.3c0 0 0.4-87.9-4.7-114.7z"/>
											<g id="&lt;Group&gt;">
												<path id="&lt;Path&gt;" class="s23" d="m424.3 625.7l-0.1-2.5 0.8-0.1 15.8-15.5c0 0 2.7 1.6 3 2.2 0.4 0.6 1.7-0.4 1.7-0.4l4.1 20.3c0 0-16.2 13.9-22.4 13.2-2.4-0.3-2.6-0.8-2.6-0.8z"/>
												<path id="&lt;Path&gt;" class="s12" d="m441.2 606.7l-17.1 16.8 0.3 5.1c0 0 9.1-6.6 12.8-18.7"/>
											</g>
										</g>
										<g id="&lt;Group&gt;">
											<path id="&lt;Path&gt;" class="s11" d="m446.1 602.3c0 0-5.5 0.5-7.3 3.2l-7.7-13.9c0 0-2.8-10.4-5.8-7.8-3.1 2.6-5.7 4.2-7.9 3.5-2.1-0.6-4-3.9-4-3.9 0 0-15-13.9-5.5-24.5 10.4-11.6 11.3-2.6 18.6 0 2.8 1 8.3-0.7 11.2 0.1 3.1 0.9 3.3 8.1 5.2 8.1 10.6-0.1 9.4 14.8 4.3 35"/>
											<path id="&lt;Path&gt;" class="s11" d="m440.3 592.1c-2.1 1-4 2.5-5.3 4.7q-0.3 0.5-0.6 0.8l4.4 7.9c1.8-2.7 7.3-3.2 7.3-3.2l1.1-0.2q1.2-4.7 2.1-8.6c-2.9-1.1-5.8-1.7-9-1.4z"/>
											<path id="&lt;Path&gt;" class="s23" d="m441.1 602.9c0.2 0.5 6.1-3.9 7.4 1.2 1.7 6.8-6.2 6.4-6.7 7.4-1.1 1.9-0.1 3.3-5.7 6.1-3.5 1.7-13.1 9.1-17.1 5.8-4.1-3.4-5.4-2.8-6.1-41.1 0 0 3.5-3.3 5.5-1.5 3.9 3.2 5.2 2.7 6.1 1.5 1.3-1.7 3.8-2 5.5-0.7 9.6 7.3 9.8 18.6 11.1 21.3z"/>
											<g id="&lt;Group&gt;">
												<path id="&lt;Path&gt;" class="s12" d="m447.4 604.3c0 0-3-2.1-4.1 1.6"/>
												<path id="&lt;Path&gt;" class="s12" d="m418 596.7l1.3 13.3-2.8-0.2c0.2 0 1.5-13.1 1.5-13.1z"/>
												<path id="&lt;Path&gt;" class="s15" d="m425.3 596c-2.6-0.9-4.8-0.2-4.8-0.2 0.2-1.3 1.5-2.2 3-2.1 0.6 0.1 1.4 0.4 1.8 1.1 0.2 0.2 0.5 1.4 0 1.2z"/>
												<path id="&lt;Path&gt;" class="s15" d="m414.9 596.6c-2.7 0-3.4 0.8-3.4 0.8 0.2-1 0.3-1.6 0.9-2.4 0.4-0.4 1.5-0.1 2.1 0.4 0.2 0.2 0.9 1.1 0.4 1.2z"/>
												<g id="&lt;Group&gt;">
													<path id="&lt;Path&gt;" class="s24" d="m420.6 602.3c1.4 1.4 3.1 1.2 3.9-0.2"/>
													<path id="&lt;Path&gt;" class="s24" d="m413.5 602.9c0.7 1.5 2.5 1 2.7-0.2"/>
												</g>
											</g>
											<path id="&lt;Path&gt;" class="s24" d="m421.8 610.6c0 0-1 2.3-4 1.6"/>
										</g>
									</g>
								</g>
							</g>
							<g id="&lt;Group&gt;">
								<path id="&lt;Path&gt;" class="s23" d="m523.9 645.9c-9.1 19.9-22.6 46.9-28.6 59.6 0.5-0.7-0.5-7.9-0.3-9.5-14.8 9.6-32.3 17.2-32.3 17.2 3.8 26.1 18.5 42.9 26.8 46.7 10.7 5 15.7 1.2 15.7 1.2 22.9-18.3 32.2-95 33.9-108.6l11.3-14c0 0 4.1-4.3 4.9-9.8 0.9-5.4 1.7-10.1 0.6-9.9-1.1 0.2-4 7.5-4.4 8.8-0.5 1.4-2 3.9-2.7 4.3-0.7 0.5 4.2-13.1 4.4-16.2 0.2-3.2 1.3-7.9 0.1-7.9-1.1 0-3.7 5.4-3.7 5.4 0 0 0.8-6.5-0.3-6.8-1.2-0.2-2.7 4.1-3.1 6.2-0.5 2-5.3 13.1-6.7 13.6 0 0-1.8-11-2.7-12.5-0.9-1.6-8.9 1.3-9.1 2.2-0.2 0.9 3.6 2.4 5.2 2.2l1.2 7.2c0 0-3.6 5.7-6.3 5.2 0 0-2.3-6.1-2.2-6.8 0.1-0.7 3.7-3 2.2-7.1-1.5-4.2-8.1 12.2-8.1 12.2 0 0 4.6 11.1 4.2 17.1z"/>
								<g id="&lt;Group&gt;">
									<g id="&lt;Group&gt;">
										<g id="&lt;Group&gt;">
											<path id="&lt;Path&gt;" class="s12" d="m549.4 612.4c-1.4 6.2-3.9 12-7.3 17.4-0.3 0.4 0.4 0.8 0.7 0.3 3.4-5.3 5.9-11.2 7.3-17.5 0.1-0.4-0.6-0.6-0.7-0.2z"/>
										</g>
									</g>
									<g id="&lt;Group&gt;">
										<g id="&lt;Group&gt;">
											<path id="&lt;Path&gt;" class="s12" d="m529.2 631.4c0.6-0.1 1.4-0.1 2 0.2 0.8 0.4 0.7 1.5 0.7 2.3q-0.1 3-0.8 6c-0.1 0.5 0.7 0.7 0.8 0.2 0.5-2.3 0.8-4.7 0.8-7.1-0.1-0.9-0.3-1.7-1.1-2.1-0.8-0.3-1.6-0.3-2.4-0.3-0.5 0.1-0.5 0.8 0 0.8z"/>
										</g>
									</g>
									<g id="&lt;Group&gt;">
										<g id="&lt;Group&gt;">
											<path id="&lt;Path&gt;" class="s12" d="m545.7 635.1q-2.6-3.3-5.2-6.5c-0.3-0.4-0.9 0.1-0.6 0.5q2.7 3.3 5.3 6.5c0.3 0.4 0.8-0.1 0.5-0.5z"/>
										</g>
									</g>
								</g>
							</g>
							<g id="&lt;Group&gt;">
								<path id="&lt;Path&gt;" class="s23" d="m511.4 805.1l6.9 6c3.5 1.6 6.1 4.9 7.3 8.1l19 8.4c5.9 2.6 10.1 10.2 5.5 9.9l-56.4-1.8z"/>
								<path id="&lt;Path&gt;" class="s25" d="m507.1 837.5l16-35.6c0 0-174.2-70.3-187.3-12.3-9.7 43.5 74.6 46.4 171.3 47.9z"/>
								<path id="&lt;Path&gt;" class="s26" d="m388.1 834.3l-5.7-32.4c0 0 145.1-76.9 159.1-19.1 10.4 43.4-56.7 48.5-153.4 51.5z"/>
								<path id="&lt;Path&gt;" class="s23" d="m383.4 805.5l-13.6 1.4c-2 1.2-3.7 2.8-4.8 4.9-2 3.3-4.9 7.8-7.6 9.6-8.4 5.6-25 10.4-25 10.4-3.7 1.3-5.6 8.1-1.3 7.8l57.9-5.3z"/>
							</g>
							<path id="&lt;Path&gt;" class="s18" d="m460 716.4l41.1-22.9c0 0-11.8-59.7-36.8-57.9-25 1.8-4.3 80.8-4.3 80.8z"/>
						</g>
					</g>
				</g>
				<path id="&lt;Path&gt;" class="s11" d="m413 612.7c-1.1 1.8-1 4.3 0.3 6 0.4 0.5 0.9 1 1.1 1.6 0.3 0.8 0.1 1.6 0.3 2.3 0.3 1.2 1.4 1.9 2.4 2.5 0.9 0.5 1.8 1.1 2.9 1.4 1.5 0.4 3.2 0.2 4.6-0.5 0.7-0.4 1.4-1 2-1.6q0.9-0.7 1.7-1.4c0.9-0.9 1.9-1.7 2.6-2.7 1.2-1.9 1.4-4.3 0.7-6.3-0.5-1.2-1.3-2.2-2-3.2-0.5-0.6-0.9-1.2-1.6-1.6-1.4-0.9-3.2-0.5-4.7 0-1.2 0.3-2.3 0.6-3.4 1-0.7 0.2-1.3 0.4-2.1 0.4-1.8 0.1-3.6 0.4-4.8 2.1z"/>
				<path id="&lt;Path&gt;" class="s20" d="m419.7 614.4c0 0.7-0.2 1.2-0.5 1.2-0.4 0-0.6-0.5-0.6-1.2 0-0.6 0.2-1.1 0.6-1.1 0.3 0 0.5 0.5 0.5 1.1z"/>
			</g>
		</g>
		<g id="&lt;Group&gt;">
			<g id="&lt;Group&gt;">
				<g id="&lt;Group&gt;">
					<g id="&lt;Group&gt;">
						<path id="&lt;Path&gt;" class="s27" d="m567.2 787.2c0 0-10-19.3-5.7-31.6 4.2-12.4 13.9-7.3 12.5 6.7-1.4 14.1-2.8 24.9-2.8 24.9z"/>
					</g>
					<g id="&lt;Group&gt;">
						<path id="&lt;Path&gt;" class="s8" d="m569.4 787.2l-2.3-36h0.4l2.3 36z"/>
					</g>
					<g id="&lt;Group&gt;">
						<path id="&lt;Path&gt;" class="s8" d="m567.9 760.4l-4.9-4 0.3-0.3 4.5 3.8 4.6-4.8 0.3 0.3z"/>
					</g>
					<g id="&lt;Group&gt;">
						<path id="&lt;Path&gt;" class="s8" d="m568.4 768.7l-6.4-4.1 0.2-0.3 6.2 3.9 4-4.3 0.3 0.2z"/>
					</g>
					<g id="&lt;Group&gt;">
						<path id="&lt;Path&gt;" class="s8" d="m569 777.6h-0.1c-2.1-1.4-5.2-3.3-5.5-3.4v-0.2-0.3c0.1 0 0.3 0 5.5 3.4l2.8-3 0.3 0.3z"/>
					</g>
					<g id="&lt;Group&gt;">
						<path id="&lt;Path&gt;" class="s8" d="m569.4 783.5l-3.8-2.4 0.2-0.3 3.5 2.2 1.8-1.8 0.3 0.3z"/>
					</g>
				</g>
				<g id="&lt;Group&gt;">
					<g id="&lt;Group&gt;">
						<path id="&lt;Path&gt;" class="s28" d="m581.8 756.7c-9.3 8.6-9.9 29.2-10 30.5h4.9c2.3-3.2 7.2-10.2 12.9-18.6 7.9-11.7 1.8-20.7-7.8-11.9z"/>
					</g>
					<g id="&lt;Group&gt;">
						<path id="&lt;Path&gt;" class="s8" d="m574.7 787.3l-0.4-0.2c2.9-5.9 5.8-12.4 8.6-18.6 2-4.5 4-8.8 5.9-12.9l0.4 0.1c-1.9 4.1-3.9 8.4-5.9 13-2.8 6.2-5.7 12.6-8.6 18.6z"/>
					</g>
					<g id="&lt;Group&gt;">
						<path id="&lt;Path&gt;" class="s8" d="m585.1 764.1l-2.3-5.9 0.4-0.2 2.2 5.5 6.2-2 0.2 0.4z"/>
					</g>
					<g id="&lt;Group&gt;">
						<path id="&lt;Path&gt;" class="s8" d="m581.7 771.6l-3.7-6.6 0.4-0.2 3.5 6.3 5.6-1.9 0.1 0.4z"/>
					</g>
					<g id="&lt;Group&gt;">
						<path id="&lt;Path&gt;" class="s8" d="m577.9 779.7v-0.1c-1.2-2.2-3.1-5.4-3.2-5.6l0.1-0.1 0.1-0.3c0.1 0.1 0.2 0.1 3.2 5.6l3.9-1.3 0.1 0.4z"/>
					</g>
					<g id="&lt;Group&gt;">
						<path id="&lt;Path&gt;" class="s8" d="m575.5 785l-2.2-3.8 0.3-0.2 2.1 3.5 2.4-0.7 0.1 0.4z"/>
					</g>
				</g>
			</g>
			<g id="&lt;Group&gt;">
				<g id="&lt;Group&gt;">
					<g id="&lt;Group&gt;">
						<path id="&lt;Path&gt;" class="s27" d="m26 802c0 0-12-13.4-11.2-24.2 0.8-10.8 9.7-8.7 11.5 2.8 1.8 11.6 2.9 20.6 2.9 20.6z"/>
					</g>
					<g id="&lt;Group&gt;">
						<path id="&lt;Path&gt;" class="s8" d="m27.8 801.6l-9.4-28.4 0.3-0.1 9.4 28.4z"/>
					</g>
					<g id="&lt;Group&gt;">
						<path id="&lt;Path&gt;" class="s8" d="m21 780.4l-4.8-2.2 0.2-0.3 4.4 2 2.7-4.7 0.3 0.1z"/>
					</g>
					<g id="&lt;Group&gt;">
						<path id="&lt;Path&gt;" class="s8" d="m23.2 787l-6-2 0.1-0.3 5.7 1.8 2.3-4.3 0.3 0.2z"/>
					</g>
					<g id="&lt;Group&gt;">
						<path id="&lt;Path&gt;" class="s8" d="m25.5 794l-0.2-0.1c-1.9-0.6-4.8-1.5-5.1-1.6v-0.1-0.2c0.1 0 0.2 0 5.1 1.6l1.6-3 0.3 0.2z"/>
					</g>
					<g id="&lt;Group&gt;">
						<path id="&lt;Path&gt;" class="s8" d="m27 798.6l-3.5-1.1 0.1-0.3 3.2 1 1.1-1.8 0.3 0.2z"/>
					</g>
				</g>
				<g id="&lt;Group&gt;">
					<g id="&lt;Group&gt;">
						<path id="&lt;Path&gt;" class="s28" d="m31.4 774.5c-5.7 8.8-1.9 25.5-1.7 26.6l3.9-1c1.2-3.1 3.7-9.7 6.5-17.7 4-11-2.8-17-8.7-7.9z"/>
					</g>
					<g id="&lt;Group&gt;">
						<path id="&lt;Path&gt;" class="s8" d="m32 800.5h-0.3c1.1-5.4 2.1-11.2 3-16.7 0.7-4.1 1.4-8 2.1-11.7l0.3 0.1c-0.7 3.7-1.3 7.5-2 11.6-1 5.6-2 11.4-3.1 16.7z"/>
					</g>
					<g id="&lt;Group&gt;">
						<path id="&lt;Path&gt;" class="s8" d="m35.6 779.7l-3.1-4.2 0.3-0.2 2.9 3.9 4.6-2.9 0.2 0.3z"/>
					</g>
					<g id="&lt;Group&gt;">
						<path id="&lt;Path&gt;" class="s8" d="m34.4 786.5l-4.3-4.6 0.2-0.2 4.1 4.4 4.1-2.7 0.2 0.3z"/>
					</g>
					<g id="&lt;Group&gt;">
						<path id="&lt;Path&gt;" class="s8" d="m33.1 793.8l-0.1-0.1c-1.4-1.5-3.6-3.7-3.7-3.8v-0.1l0.1-0.3c0 0.1 0.2 0.1 3.7 3.8l2.8-1.8 0.2 0.3z"/>
					</g>
					<g id="&lt;Group&gt;">
						<path id="&lt;Path&gt;" class="s8" d="m32.2 798.6l-2.6-2.7 0.3-0.2 2.4 2.4 1.7-1 0.2 0.3z"/>
					</g>
				</g>
			</g>
			<g id="&lt;Group&gt;">
				<g id="&lt;Group&gt;">
					<g id="&lt;Group&gt;">
						<path id="&lt;Path&gt;" class="s27" d="m336.8 762.5c0 0-14.4-16-13.4-29 1-12.9 11.6-10.4 13.7 3.4 2.1 13.9 3.5 24.6 3.5 24.6z"/>
					</g>
					<g id="&lt;Group&gt;">
						<path id="&lt;Path&gt;" class="s8" d="m338.9 762l-11.2-34 0.4-0.1 11.2 33.9z"/>
					</g>
					<g id="&lt;Group&gt;">
						<path id="&lt;Path&gt;" class="s8" d="m330.8 736.6l-5.7-2.6 0.2-0.4 5.3 2.5 3.2-5.7 0.3 0.2z"/>
					</g>
					<g id="&lt;Group&gt;">
						<path id="&lt;Path&gt;" class="s8" d="m333.4 744.5l-7.2-2.4 0.1-0.4 6.9 2.3 2.7-5.2 0.4 0.2z"/>
					</g>
					<g id="&lt;Group&gt;">
						<path id="&lt;Path&gt;" class="s8" d="m336.1 752.9l-0.1-0.1c-2.3-0.7-5.9-1.8-6.1-1.9v-0.1l-0.1-0.3c0.1 0 0.2 0 6.1 1.9l1.9-3.6 0.4 0.2z"/>
					</g>
					<g id="&lt;Group&gt;">
						<path id="&lt;Path&gt;" class="s8" d="m337.9 758.4l-4.2-1.3 0.2-0.4 3.9 1.2 1.2-2.1 0.4 0.2z"/>
					</g>
				</g>
				<g id="&lt;Group&gt;">
					<g id="&lt;Group&gt;">
						<path id="&lt;Path&gt;" class="s28" d="m343.3 729.6c-6.9 10.5-2.4 30.5-2.1 31.7l4.7-1.2c1.4-3.6 4.4-11.5 7.8-21 4.7-13.2-3.4-20.4-10.4-9.5z"/>
					</g>
					<g id="&lt;Group&gt;">
						<path id="&lt;Path&gt;" class="s8" d="m344 760.7l-0.4-0.1c1.3-6.4 2.5-13.3 3.6-19.9 0.9-4.9 1.6-9.5 2.5-14l0.4 0.1c-0.8 4.4-1.6 9-2.5 13.9-1.1 6.7-2.3 13.6-3.6 20z"/>
					</g>
					<g id="&lt;Group&gt;">
						<path id="&lt;Path&gt;" class="s8" d="m348.3 735.8l-3.8-5 0.4-0.3 3.5 4.8 5.5-3.5 0.2 0.3z"/>
					</g>
					<g id="&lt;Group&gt;">
						<path id="&lt;Path&gt;" class="s8" d="m346.8 743.9l-5.2-5.4 0.3-0.3 5 5.2 4.9-3.2 0.2 0.3z"/>
					</g>
					<g id="&lt;Group&gt;">
						<path id="&lt;Path&gt;" class="s8" d="m345.2 752.7l-0.1-0.2c-1.7-1.7-4.2-4.4-4.4-4.6v-0.1l0.1-0.2c0.1 0 0.2 0 4.5 4.5l3.3-2.2 0.3 0.4z"/>
					</g>
					<g id="&lt;Group&gt;">
						<path id="&lt;Path&gt;" class="s8" d="m344.2 758.4l-3.1-3.2 0.3-0.3 2.9 2.9 2.1-1.2 0.2 0.3z"/>
					</g>
				</g>
			</g>
			<g id="&lt;Group&gt;">
				<g id="&lt;Group&gt;">
					<g id="&lt;Group&gt;">
						<path id="&lt;Path&gt;" class="s27" d="m284.1 813.2c0 0-12.8-14.3-11.9-25.7 0.9-11.5 10.3-9.4 12.2 3 1.9 12.3 3 21.8 3 21.8z"/>
					</g>
					<g id="&lt;Group&gt;">
						<path id="&lt;Path&gt;" class="s8" d="m285.9 812.7l-9.9-30.2 0.4-0.1 9.9 30.2z"/>
					</g>
					<g id="&lt;Group&gt;">
						<path id="&lt;Path&gt;" class="s8" d="m278.7 790.2l-5-2.4 0.1-0.3 4.8 2.2 2.8-5 0.3 0.1z"/>
					</g>
					<g id="&lt;Group&gt;">
						<path id="&lt;Path&gt;" class="s8" d="m281 797.2l-6.3-2.1 0.1-0.4 6.1 2 2.4-4.6 0.3 0.2z"/>
					</g>
					<g id="&lt;Group&gt;">
						<path id="&lt;Path&gt;" class="s8" d="m283.5 804.6h-0.1c-2.1-0.7-5.2-1.7-5.5-1.7v-0.1-0.3c0.1 0 0.2 0 5.4 1.7l1.7-3.1 0.3 0.1z"/>
					</g>
					<g id="&lt;Group&gt;">
						<path id="&lt;Path&gt;" class="s8" d="m285.1 809.5l-3.7-1.1 0.1-0.4 3.4 1.1 1.2-1.9 0.3 0.2z"/>
					</g>
				</g>
				<g id="&lt;Group&gt;">
					<g id="&lt;Group&gt;">
						<path id="&lt;Path&gt;" class="s28" d="m289.8 783.9c-6 9.4-2.1 27.1-1.8 28.3l4.2-1.1c1.2-3.3 3.9-10.3 6.9-18.7 4.2-11.7-3-18.1-9.3-8.5z"/>
					</g>
					<g id="&lt;Group&gt;">
						<path id="&lt;Path&gt;" class="s8" d="m290.5 811.6l-0.4-0.1c1.2-5.7 2.2-11.8 3.2-17.7 0.8-4.4 1.5-8.5 2.2-12.4l0.4 0.1c-0.7 3.9-1.4 8-2.2 12.3-1 6-2.1 12.1-3.2 17.8z"/>
					</g>
					<g id="&lt;Group&gt;">
						<path id="&lt;Path&gt;" class="s8" d="m294.3 789.5l-3.3-4.5 0.3-0.2 3.1 4.2 4.9-3.1 0.2 0.3z"/>
					</g>
					<g id="&lt;Group&gt;">
						<path id="&lt;Path&gt;" class="s8" d="m293 796.7l-4.6-4.9 0.2-0.2 4.4 4.6 4.4-2.8 0.2 0.3z"/>
					</g>
					<g id="&lt;Group&gt;">
						<path id="&lt;Path&gt;" class="s8" d="m291.6 804.4l-0.1-0.1c-1.5-1.5-3.8-3.9-4-4l0.1-0.2 0.1-0.2c0 0 0.1 0.1 3.9 4.1l3-2 0.2 0.3z"/>
					</g>
					<g id="&lt;Group&gt;">
						<path id="&lt;Path&gt;" class="s8" d="m290.7 809.5l-2.8-2.8 0.3-0.3 2.5 2.7 1.9-1.2 0.2 0.3z"/>
					</g>
				</g>
			</g>
		</g>
		<g id="&lt;Clip Group&gt;" clip-path="url(#cp4)">
			<g id="&lt;Group&gt;">
				<g id="&lt;Group&gt;">
					<path id="&lt;Path&gt;" class="s29" d="m130.3 123.8c0 0-7.4-40-32.4-53.9q-3.6-5.5-7.7-10.7c10.2 9.1 26.5 21.3 44 25.8 0 0-23.6-34.8-52.8-36.4q-4.3-4.9-8.9-9.4c11 5.3 35.4 15.5 57.7 14 0 0-33.4-25.4-61.6-17.8q-7.1-6.7-14.7-12.9c5.8 1.6 39 9.7 65 1.4 0 0-40-17.5-65.6-1.8-2.8-2.2-5.7-4.2-8.6-6.3l-4.3-3.1-4.5-2.9-2.1-1.2q0-0.1 0-0.1c11.3 2.5 38.5 7.3 60.6 0.3 0 0-38.7-17-64.3-2.6l-3.3-2.1q-4.7-2.5-9.4-5l-4.7-2.5c-1.3-0.6-2.5-1.2-3.8-1.8 12.1 1.7 38.5 3.9 59.2-4.6 0 0-39.8-13.8-64.2 2.4l-5.8-2.6c-3.2-1.5-6.7-2.5-10-3.8q-5-1.8-10-3.6c6.4 3.1 13 5.7 19.3 8.9l6.7 3.3c-1.5 7.1-7.8 39.6 1.3 64.6 0 0 15.1-38.6 0.5-63.7l1 0.6c1.6 0.8 3.1 1.5 4.7 2.4l4.6 2.7q4.5 2.7 9.1 5.3l6.6 4.3c-4.1 9.4-14.8 37-11.6 61.2 0 0 21.5-32 14.9-59.1l3.4 2.2 4.3 3.2c2.8 2.1 5.6 4.1 8.4 6.3q0.5 0.4 0.9 0.7c-2.8 6.2-16.2 36.9-12.7 63.5 0 0 23.3-34.8 14-62.4q5.9 4.6 11.5 9.7c-1.7 8.5-6.9 39.6 2 63.7 0 0 13.5-35.3 1.8-60.2q5.4 5.1 10.5 10.5c-1.7 8.7-6.8 39.6 2.1 63.5 0 0 13-33.9 2.4-58.7q2.8 3.1 5.4 6.3c2 2.3 3.7 4.6 5.5 6.9q0 0 0 0c0 0 12 36.9 35.6 55.5z"/>
					<path id="&lt;Path&gt;" class="s30" d="m86.2 341.1c0 0-7.4-40-32.4-53.9q-3.6-5.5-7.7-10.7c10.3 9.1 26.5 21.3 44 25.8 0 0-23.6-34.7-52.8-36.4q-4.3-4.9-8.9-9.4c11 5.3 35.4 15.6 57.7 14 0 0-33.4-25.4-61.6-17.8q-7.1-6.7-14.7-12.8c5.8 1.5 39 9.7 65 1.4 0 0-40-17.6-65.6-1.9-2.8-2.2-5.7-4.2-8.5-6.2l-4.4-3.2-4.5-2.8-2.1-1.3q0-0.1 0-0.1c11.3 2.5 38.5 7.3 60.7 0.3 0 0-38.8-17-64.4-2.6l-3.3-2q-4.6-2.6-9.4-5.1l-4.7-2.5c-1.3-0.6-2.5-1.2-3.8-1.8 12.1 1.7 38.5 3.9 59.2-4.6 0 0-39.8-13.8-64.2 2.4l-5.8-2.6c-3.2-1.5-6.7-2.5-10-3.8q-5-1.8-10-3.5c6.4 3 13 5.6 19.3 8.8l6.7 3.4c-1.5 7-7.8 39.5 1.3 64.5 0 0 15.1-38.6 0.5-63.6l1 0.5c1.6 0.8 3.2 1.5 4.7 2.4l4.6 2.7q4.5 2.7 9.1 5.3l6.7 4.3c-4.2 9.4-14.9 37-11.7 61.3 0 0 21.5-32.1 14.9-59.2l3.4 2.2 4.3 3.2c2.8 2.1 5.7 4.1 8.4 6.3q0.5 0.4 0.9 0.7c-2.8 6.2-16.2 36.9-12.7 63.6 0 0 23.3-34.8 14-62.5q5.9 4.7 11.5 9.7c-1.7 8.5-6.9 39.6 2.1 63.7 0 0 13.4-35.3 1.7-60.2q5.4 5.1 10.5 10.5c-1.7 8.8-6.8 39.6 2.1 63.6 0 0 13-34 2.4-58.8q2.8 3.1 5.5 6.4c1.9 2.2 3.6 4.5 5.4 6.8q0 0 0 0c0 0 12 36.9 35.6 55.5z"/>
					<path id="&lt;Path&gt;" class="s29" d="m516.3 105.9c0 0 7.4-39.9 32.4-53.9q3.7-5.4 7.7-10.7c-10.2 9.1-26.5 21.3-43.9 25.9 0 0 23.5-34.8 52.7-36.5q4.3-4.8 8.9-9.4c-11 5.4-35.4 15.6-57.7 14 0 0 33.4-25.4 61.6-17.7q7.1-6.8 14.7-12.9c-5.8 1.5-39 9.7-65 1.4 0 0 40-17.6 65.6-1.9 2.8-2.1 5.7-4.1 8.6-6.2l4.3-3.1 4.5-2.9 2.1-1.3q0 0 0-0.1c-11.3 2.6-38.5 7.4-60.6 0.3 0 0 38.7-17 64.3-2.5l3.3-2.1q4.7-2.6 9.4-5.1l4.7-2.5c1.3-0.6 2.6-1.2 3.8-1.7-12.1 1.6-38.5 3.8-59.2-4.6 0 0 39.8-13.9 64.2 2.3l5.8-2.6c3.2-1.5 6.7-2.5 10-3.8q5-1.8 10-3.5c-6.4 3.1-13 5.7-19.3 8.8l-6.7 3.4c1.6 7 7.8 39.5-1.3 64.6 0 0-15.1-38.7-0.4-63.7l-1.1 0.5c-1.5 0.8-3.1 1.6-4.7 2.4l-4.5 2.7q-4.6 2.7-9.2 5.3l-6.6 4.3c4.1 9.4 14.9 37 11.6 61.3 0 0-21.4-32.1-14.9-59.1l-3.4 2.2-4.2 3.1c-2.9 2.1-5.7 4.2-8.5 6.4q-0.4 0.3-0.9 0.7c2.9 6.1 16.2 36.8 12.7 63.5 0 0-23.3-34.8-14-62.5q-5.9 4.7-11.5 9.8c1.7 8.5 7 39.6-2 63.7 0 0-13.5-35.4-1.8-60.2q-5.4 5.1-10.5 10.5c1.8 8.7 6.9 39.6-2.1 63.5 0 0-12.9-34-2.4-58.8q-2.8 3.1-5.4 6.4c-2 2.2-3.7 4.5-5.5 6.9q0 0 0-0.1c0 0-12 37-35.6 55.5z"/>
					<path id="&lt;Path&gt;" class="s29" d="m527 343.7c0 0 7.4-39.9 32.5-53.9q3.6-5.5 7.6-10.7c-10.2 9.1-26.5 21.3-43.9 25.8 0 0 23.5-34.7 52.7-36.4q4.3-4.9 8.9-9.4c-11 5.3-35.3 15.6-57.7 14 0 0 33.4-25.4 61.6-17.8q7.1-6.7 14.8-12.8c-5.9 1.5-39 9.7-65.1 1.4 0 0 40-17.6 65.6-1.9 2.8-2.2 5.7-4.1 8.6-6.2l4.3-3.2 4.6-2.8 2-1.3q0-0.1 0-0.1c-11.2 2.5-38.5 7.3-60.6 0.3 0 0 38.7-17 64.4-2.6l3.2-2q4.7-2.6 9.4-5.1l4.8-2.5c1.2-0.6 2.5-1.2 3.8-1.8-12.2 1.7-38.5 3.9-59.3-4.6 0 0 39.8-13.8 64.2 2.4l5.8-2.6c3.3-1.5 6.7-2.5 10-3.8q5-1.8 10.1-3.5c-6.5 3-13.1 5.6-19.4 8.8l-6.7 3.4c1.6 7 7.8 39.5-1.3 64.5 0 0-15.1-38.6-0.4-63.6l-1 0.5c-1.6 0.8-3.2 1.6-4.8 2.4l-4.5 2.7q-4.6 2.7-9.2 5.3l-6.6 4.3c4.1 9.4 14.9 37 11.7 61.3 0 0-21.5-32.1-15-59.2l-3.4 2.2-4.2 3.2c-2.8 2.1-5.7 4.1-8.5 6.3q-0.4 0.4-0.9 0.7c2.9 6.2 16.2 36.9 12.7 63.6 0 0-23.3-34.8-14-62.5q-5.9 4.7-11.4 9.7c1.7 8.5 6.9 39.6-2.1 63.7 0 0-13.5-35.3-1.7-60.2q-5.4 5.1-10.6 10.5c1.8 8.8 6.9 39.6-2 63.6 0 0-13-34-2.4-58.8q-2.9 3.1-5.5 6.4c-1.9 2.2-3.7 4.5-5.5 6.8q0 0 0.1 0c0 0-12 36.9-35.7 55.5z"/>
					<path id="&lt;Path&gt;" class="s30" d="m243.2 93c0 0 7.4-40 32.5-53.9q3.6-5.5 7.6-10.7c-10.2 9-26.5 21.2-43.9 25.8 0 0 23.5-34.8 52.7-36.5q4.3-4.8 8.9-9.4c-11 5.4-35.3 15.6-57.6 14 0 0 33.3-25.4 61.5-17.7q7.1-6.7 14.8-12.9c-5.9 1.6-39 9.7-65.1 1.4 0 0 40-17.5 65.6-1.8 2.8-2.2 5.7-4.2 8.6-6.3l4.3-3.1 4.6-2.9 2-1.3q0 0 0-0.1c-11.2 2.6-38.5 7.4-60.6 0.3 0 0 38.7-16.9 64.4-2.5l3.2-2.1q4.7-2.6 9.4-5.1l4.8-2.5c1.2-0.6 2.5-1.1 3.8-1.7-12.2 1.6-38.5 3.8-59.3-4.6 0 0 39.8-13.9 64.2 2.3l5.8-2.6c3.3-1.5 6.7-2.5 10-3.7q5-1.9 10.1-3.6c-6.5 3.1-13 5.7-19.4 8.8l-6.6 3.4c1.5 7.1 7.7 39.5-1.4 64.6 0 0-15.1-38.6-0.4-63.7l-1 0.5c-1.6 0.8-3.2 1.6-4.8 2.4l-4.5 2.7q-4.6 2.7-9.2 5.3l-6.6 4.3c4.1 9.4 14.9 37 11.7 61.3 0 0-21.5-32.1-15-59.1l-3.4 2.2-4.2 3.1c-2.8 2.2-5.7 4.2-8.5 6.4q-0.4 0.3-0.9 0.7c2.9 6.1 16.3 36.8 12.7 63.5 0 0-23.3-34.8-14-62.5q-5.9 4.7-11.4 9.8c1.7 8.5 6.9 39.6-2.1 63.7 0 0-13.5-35.3-1.7-60.2q-5.4 5.1-10.5 10.5c1.7 8.7 6.8 39.6-2.1 63.5 0 0-13-34-2.4-58.7q-2.9 3.1-5.5 6.3c-1.9 2.2-3.7 4.6-5.5 6.9q0.1 0 0.1 0c0 0-12 36.9-35.7 55.5z"/>
					<g id="&lt;Group&gt;">
						<g id="&lt;Group&gt;">
							<g id="&lt;Group&gt;">
								<path id="&lt;Path&gt;" class="s31" d="m-49.3 85.8q0-0.1 0.1-0.2c0.1-0.4 0.4-0.5 0.7-0.4 0.2 0 16.2 5.4 36.5 17.9 18.6 11.6 44.8 31.8 63.3 62.6 0.2 0.2 0.1 0.6-0.2 0.8-0.3 0.2-0.6 0.1-0.8-0.2-18.4-30.6-44.4-50.7-63-62.2-20.1-12.4-36-17.7-36.2-17.8-0.2-0.1-0.3-0.3-0.4-0.5z"/>
							</g>
						</g>
						<g id="&lt;Group&gt;">
							<g id="&lt;Group&gt;">
								<path id="&lt;Path&gt;" class="s31" d="m49 163c0 0 13.2 6.1 14 15.4 0.8 9.1-8.1 5.4-10.4-1.6-1.7-5.3-3.6-13.8-3.6-13.8z"/>
							</g>
						</g>
						<g id="&lt;Group&gt;">
							<g id="&lt;Group&gt;">
								<path id="&lt;Path&gt;" class="s31" d="m41.4 152.3c0 0 12.4-4.2 18.6 1.4 6.2 5.5-1.9 8.5-7.7 5.3-4.4-2.3-10.9-6.7-10.9-6.7z"/>
							</g>
						</g>
						<g id="&lt;Group&gt;">
							<g id="&lt;Group&gt;">
								<path id="&lt;Path&gt;" class="s31" d="m43.3 154.1c0 0-8.3 10.1-5.4 17.9 2.8 7.8 8.6 1.3 7.8-5.3-0.7-4.9-2.4-12.6-2.4-12.6z"/>
							</g>
						</g>
						<g id="&lt;Group&gt;">
							<g id="&lt;Group&gt;">
								<path id="&lt;Path&gt;" class="s31" d="m30 138.4c0 0-8 12-3.8 20.3 4 8.1 9.6 0.3 7.9-6.8-1.3-5.3-4.1-13.5-4.1-13.5z"/>
							</g>
						</g>
						<g id="&lt;Group&gt;">
							<g id="&lt;Group&gt;">
								<path id="&lt;Path&gt;" class="s31" d="m16.7 125.4c0 0-8 12-3.8 20.3 4 8.1 9.6 0.4 7.9-6.7-1.3-5.3-4.1-13.6-4.1-13.6z"/>
							</g>
						</g>
						<g id="&lt;Group&gt;">
							<g id="&lt;Group&gt;">
								<path id="&lt;Path&gt;" class="s31" d="m1.1 112.8c0 0-4.6 13.7 1.5 20.6 6.1 6.8 9.4-2.1 5.9-8.5-2.6-4.8-7.4-12.1-7.4-12.1z"/>
							</g>
						</g>
						<g id="&lt;Group&gt;">
							<g id="&lt;Group&gt;">
								<path id="&lt;Path&gt;" class="s31" d="m-13.5 102.9c0 0-4.7 13.7 1.5 20.6 6 6.8 9.4-2.1 5.9-8.5-2.6-4.8-7.4-12.1-7.4-12.1z"/>
							</g>
						</g>
						<g id="&lt;Group&gt;">
							<g id="&lt;Group&gt;">
								<path id="&lt;Path&gt;" class="s31" d="m-29.7 93.9c0 0-2.4 12.5 3.9 17.8 6.1 5.3 8-3 4.1-8.2-2.9-3.9-8-9.6-8-9.6z"/>
							</g>
						</g>
						<g id="&lt;Group&gt;">
							<g id="&lt;Group&gt;">
								<path id="&lt;Path&gt;" class="s31" d="m28.5 136.9c0 0 13-6.6 20.8-1.5 7.7 5-0.7 9.7-7.7 7.1-5.1-1.9-13.1-5.6-13.1-5.6z"/>
							</g>
						</g>
						<g id="&lt;Group&gt;">
							<g id="&lt;Group&gt;">
								<path id="&lt;Path&gt;" class="s31" d="m14.2 123.5c0 0 12.5-7.5 20.6-2.9 8 4.5-0.1 9.7-7.2 7.6-5.3-1.5-13.4-4.7-13.4-4.7z"/>
							</g>
						</g>
						<g id="&lt;Group&gt;">
							<g id="&lt;Group&gt;">
								<path id="&lt;Path&gt;" class="s31" d="m-0.2 112.1c0 0 11.6-8.8 20.2-5.1 8.4 3.6 0.9 9.7-6.4 8.3-5.4-0.9-13.8-3.2-13.8-3.2z"/>
							</g>
						</g>
						<g id="&lt;Group&gt;">
							<g id="&lt;Group&gt;">
								<path id="&lt;Path&gt;" class="s31" d="m-16.8 101.2c0 0 11-9.5 19.8-6.4 8.7 3.1 1.6 9.6-5.8 8.8-5.4-0.6-14-2.4-14-2.4z"/>
							</g>
						</g>
						<g id="&lt;Group&gt;">
							<g id="&lt;Group&gt;">
								<path id="&lt;Path&gt;" class="s31" d="m-32.3 92.6c0 0 9.8-8.4 17.6-5.7 7.6 2.8 1.4 8.5-5.2 7.8-4.8-0.5-12.4-2.1-12.4-2.1z"/>
							</g>
						</g>
					</g>
					<g id="&lt;Group&gt;">
						<g id="&lt;Group&gt;">
							<g id="&lt;Group&gt;">
								<path id="&lt;Path&gt;" class="s31" d="m658.1 65.6q0.1 0 0.3 0.1c0.3 0.1 0.4 0.4 0.3 0.7 0 0.2-5.3 16.2-17.9 36.5-11.5 18.7-31.7 44.8-62.5 63.4-0.2 0.2-0.6 0.1-0.8-0.2-0.1-0.3 0-0.6 0.2-0.8 30.6-18.5 50.6-44.5 62.1-63.1 12.5-20.1 17.8-36 17.8-36.2 0.1-0.2 0.3-0.4 0.5-0.4z"/>
							</g>
						</g>
						<g id="&lt;Group&gt;">
							<g id="&lt;Group&gt;">
								<path id="&lt;Path&gt;" class="s31" d="m581 164c0 0-6.1 13.2-15.4 14-9.1 0.8-5.4-8.1 1.7-10.4 5.2-1.7 13.7-3.6 13.7-3.6z"/>
							</g>
						</g>
						<g id="&lt;Group&gt;">
							<g id="&lt;Group&gt;">
								<path id="&lt;Path&gt;" class="s31" d="m591.7 156.4c0 0 4.2 12.3-1.4 18.6-5.5 6.2-8.5-1.9-5.3-7.8 2.3-4.3 6.7-10.8 6.7-10.8z"/>
							</g>
						</g>
						<g id="&lt;Group&gt;">
							<g id="&lt;Group&gt;">
								<path id="&lt;Path&gt;" class="s31" d="m589.9 158.3c0 0-10.1-8.4-17.9-5.4-7.7 2.8-1.3 8.6 5.3 7.7 4.9-0.6 12.6-2.3 12.6-2.3z"/>
							</g>
						</g>
						<g id="&lt;Group&gt;">
							<g id="&lt;Group&gt;">
								<path id="&lt;Path&gt;" class="s31" d="m605.6 145c0 0-12-8-20.3-3.9-8.1 4.1-0.3 9.6 6.8 7.9 5.3-1.3 13.5-4 13.5-4z"/>
							</g>
						</g>
						<g id="&lt;Group&gt;">
							<g id="&lt;Group&gt;">
								<path id="&lt;Path&gt;" class="s31" d="m618.5 131.7c0 0-12-8-20.2-3.9-8.2 4.1-0.4 9.6 6.7 7.9 5.3-1.3 13.5-4 13.5-4z"/>
							</g>
						</g>
						<g id="&lt;Group&gt;">
							<g id="&lt;Group&gt;">
								<path id="&lt;Path&gt;" class="s31" d="m631.1 116.1c0 0-13.6-4.7-20.6 1.5-6.8 6 2.2 9.3 8.6 5.9 4.8-2.6 12-7.4 12-7.4z"/>
							</g>
						</g>
						<g id="&lt;Group&gt;">
							<g id="&lt;Group&gt;">
								<path id="&lt;Path&gt;" class="s31" d="m641 101.4c0 0-13.7-4.6-20.6 1.5-6.8 6 2.1 9.4 8.6 5.9 4.8-2.6 12-7.4 12-7.4z"/>
							</g>
						</g>
						<g id="&lt;Group&gt;">
							<g id="&lt;Group&gt;">
								<path id="&lt;Path&gt;" class="s31" d="m650.1 85.2c0 0-12.6-2.3-17.9 3.9-5.2 6.1 3 8 8.2 4.1 3.9-2.9 9.7-8 9.7-8z"/>
							</g>
						</g>
						<g id="&lt;Group&gt;">
							<g id="&lt;Group&gt;">
								<path id="&lt;Path&gt;" class="s31" d="m607.1 143.5c0 0 6.6 13 1.5 20.8-5 7.7-9.7-0.8-7.1-7.7 1.9-5.2 5.6-13.1 5.6-13.1z"/>
							</g>
						</g>
						<g id="&lt;Group&gt;">
							<g id="&lt;Group&gt;">
								<path id="&lt;Path&gt;" class="s31" d="m620.5 129.1c0 0 7.5 12.5 2.9 20.6-4.5 8-9.7-0.1-7.6-7.2 1.5-5.2 4.7-13.4 4.7-13.4z"/>
							</g>
						</g>
						<g id="&lt;Group&gt;">
							<g id="&lt;Group&gt;">
								<path id="&lt;Path&gt;" class="s31" d="m631.9 114.7c0 0 8.8 11.6 5.1 20.2-3.6 8.4-9.7 0.9-8.4-6.4 1-5.4 3.3-13.8 3.3-13.8z"/>
							</g>
						</g>
						<g id="&lt;Group&gt;">
							<g id="&lt;Group&gt;">
								<path id="&lt;Path&gt;" class="s31" d="m642.7 98.1c0 0 9.6 11 6.5 19.8-3.1 8.7-9.6 1.6-8.8-5.7 0.6-5.5 2.3-14.1 2.3-14.1z"/>
							</g>
						</g>
						<g id="&lt;Group&gt;">
							<g id="&lt;Group&gt;">
								<path id="&lt;Path&gt;" class="s31" d="m651.3 82.6c0 0 8.5 9.7 5.7 17.6-2.7 7.6-8.5 1.4-7.8-5.2 0.6-4.8 2.1-12.4 2.1-12.4z"/>
							</g>
						</g>
					</g>
				</g>
				<g id="&lt;Group&gt;">
					<g id="&lt;Group&gt;">
						<g id="&lt;Group&gt;">
							<g id="&lt;Group&gt;">
								<path id="&lt;Path&gt;" class="s31" d="m1.3 897.9q-0.2 0.1-0.3 0c-0.3 0-0.6-0.3-0.5-0.6 0-0.2 1.3-17 8.6-39.7 6.7-20.9 20.1-51.2 45.4-76.6 0.3-0.2 0.7-0.2 0.9 0 0.2 0.3 0.2 0.6 0 0.9-25.2 25.2-38.5 55.3-45.2 76.1-7.2 22.5-8.5 39.2-8.5 39.4-0.1 0.2-0.2 0.4-0.4 0.5z"/>
							</g>
						</g>
						<g id="&lt;Group&gt;">
							<g id="&lt;Group&gt;">
								<path id="&lt;Path&gt;" class="s31" d="m52.5 784c0 0 2.7-14.4 11.6-17.4 8.7-2.9 7.2 6.6 0.9 10.5-4.7 2.9-12.5 6.9-12.5 6.9z"/>
							</g>
						</g>
						<g id="&lt;Group&gt;">
							<g id="&lt;Group&gt;">
								<path id="&lt;Path&gt;" class="s31" d="m44 793.9c0 0-7.1-11-3.1-18.5 3.8-7.2 8.7-0.1 7 6.3-1.3 4.8-3.9 12.2-3.9 12.2z"/>
							</g>
						</g>
						<g id="&lt;Group&gt;">
							<g id="&lt;Group&gt;">
								<path id="&lt;Path&gt;" class="s31" d="m45.3 791.6c0 0 11.7 5.7 18.7 1 6.8-4.7-0.9-8.7-7.1-6.3-4.6 1.8-11.6 5.3-11.6 5.3z"/>
							</g>
						</g>
						<g id="&lt;Group&gt;">
							<g id="&lt;Group&gt;">
								<path id="&lt;Path&gt;" class="s31" d="m33.2 808.3c0 0 13.6 4.9 20.6-1.1 6.9-6-2-9.5-8.5-6.1-4.8 2.5-12.1 7.2-12.1 7.2z"/>
							</g>
						</g>
						<g id="&lt;Group&gt;">
							<g id="&lt;Group&gt;">
								<path id="&lt;Path&gt;" class="s31" d="m23.8 824.3c0 0 13.6 4.9 20.7-1.1 6.8-5.9-2-9.4-8.5-6.1-4.8 2.5-12.2 7.2-12.2 7.2z"/>
							</g>
						</g>
						<g id="&lt;Group&gt;">
							<g id="&lt;Group&gt;">
								<path id="&lt;Path&gt;" class="s31" d="m15.4 842.5c0 0 14.3 1.2 19.6-6.4 5.1-7.5-4.3-8.6-9.7-3.7-4.1 3.7-9.9 10.1-9.9 10.1z"/>
							</g>
						</g>
						<g id="&lt;Group&gt;">
							<g id="&lt;Group&gt;">
								<path id="&lt;Path&gt;" class="s31" d="m9.3 859.1c0 0 14.4 1.2 19.6-6.4 5.2-7.5-4.3-8.6-9.7-3.7-4 3.7-9.9 10.1-9.9 10.1z"/>
							</g>
						</g>
						<g id="&lt;Group&gt;">
							<g id="&lt;Group&gt;">
								<path id="&lt;Path&gt;" class="s31" d="m4.4 877c0 0 12.7-0.8 16.4-8.1 3.6-7.2-4.9-7-9-2-3.1 3.7-7.4 10.1-7.4 10.1z"/>
							</g>
						</g>
						<g id="&lt;Group&gt;">
							<g id="&lt;Group&gt;">
								<path id="&lt;Path&gt;" class="s31" d="m32.1 810.1c0 0-9.6-11-6.5-19.8 3.1-8.7 9.6-1.7 8.8 5.7-0.6 5.5-2.3 14.1-2.3 14.1z"/>
							</g>
						</g>
						<g id="&lt;Group&gt;">
							<g id="&lt;Group&gt;">
								<path id="&lt;Path&gt;" class="s31" d="m22.6 827.3c0 0-10.3-10.4-7.8-19.4 2.4-8.8 9.4-2.2 9.1 5.2-0.2 5.5-1.3 14.2-1.3 14.2z"/>
							</g>
						</g>
						<g id="&lt;Group&gt;">
							<g id="&lt;Group&gt;">
								<path id="&lt;Path&gt;" class="s31" d="m14.9 844c0 0-11.3-9.2-9.8-18.4 1.5-9.1 9.2-3.2 9.7 4.2 0.3 5.4 0.1 14.2 0.1 14.2z"/>
							</g>
						</g>
						<g id="&lt;Group&gt;">
							<g id="&lt;Group&gt;">
								<path id="&lt;Path&gt;" class="s31" d="m8.4 862.7c0 0-11.9-8.4-11-17.7 0.9-9.1 8.9-3.8 9.9 3.5 0.7 5.4 1.1 14.2 1.1 14.2z"/>
							</g>
						</g>
						<g id="&lt;Group&gt;">
							<g id="&lt;Group&gt;">
								<path id="&lt;Path&gt;" class="s31" d="m3.8 879.8c0 0-10.6-7.4-9.8-15.7 0.8-8.1 8-3.4 8.8 3.1 0.7 4.9 1 12.6 1 12.6z"/>
							</g>
						</g>
					</g>
					<g id="&lt;Group&gt;">
						<g id="&lt;Group&gt;">
							<g id="&lt;Group&gt;">
								<path id="&lt;Path&gt;" class="s31" d="m13.4 912.3q-0.1 0-0.2 0c-0.3-0.1-0.5-0.5-0.4-0.8 0.1-0.1 5.5-16.2 18.1-36.3 11.7-18.6 32.1-44.7 62.9-63.1 0.3-0.2 0.6-0.1 0.8 0.2 0.2 0.3 0.1 0.7-0.2 0.8-30.6 18.3-50.9 44.2-62.5 62.7-12.5 20.1-17.9 36-17.9 36.1-0.1 0.2-0.3 0.4-0.6 0.4z"/>
							</g>
						</g>
						<g id="&lt;Group&gt;">
							<g id="&lt;Group&gt;">
								<path id="&lt;Path&gt;" class="s31" d="m91.1 814.4c0 0 6.2-13.2 15.5-13.9 9.1-0.8 5.4 8.1-1.7 10.3-5.2 1.7-13.8 3.6-13.8 3.6z"/>
							</g>
						</g>
						<g id="&lt;Group&gt;">
							<g id="&lt;Group&gt;">
								<path id="&lt;Path&gt;" class="s31" d="m80.4 822c0 0-4.1-12.4 1.5-18.7 5.5-6.1 8.5 2 5.3 7.8-2.4 4.4-6.8 10.9-6.8 10.9z"/>
							</g>
						</g>
						<g id="&lt;Group&gt;">
							<g id="&lt;Group&gt;">
								<path id="&lt;Path&gt;" class="s31" d="m82.2 820c0 0 10 8.5 17.9 5.6 7.7-2.8 1.3-8.6-5.3-7.8-4.9 0.6-12.6 2.2-12.6 2.2z"/>
							</g>
						</g>
						<g id="&lt;Group&gt;">
							<g id="&lt;Group&gt;">
								<path id="&lt;Path&gt;" class="s31" d="m66.4 833.3c0 0 12 8.1 20.3 3.9 8.1-4 0.4-9.6-6.8-7.9-5.3 1.3-13.5 4-13.5 4z"/>
							</g>
						</g>
						<g id="&lt;Group&gt;">
							<g id="&lt;Group&gt;">
								<path id="&lt;Path&gt;" class="s31" d="m53.4 846.5c0 0 12 8.1 20.3 4 8.1-4.1 0.4-9.6-6.8-8-5.3 1.3-13.5 4-13.5 4z"/>
							</g>
						</g>
						<g id="&lt;Group&gt;">
							<g id="&lt;Group&gt;">
								<path id="&lt;Path&gt;" class="s31" d="m40.7 862c0 0 13.7 4.8 20.6-1.3 6.9-6-2-9.4-8.5-6-4.8 2.6-12.1 7.3-12.1 7.3z"/>
							</g>
						</g>
						<g id="&lt;Group&gt;">
							<g id="&lt;Group&gt;">
								<path id="&lt;Path&gt;" class="s31" d="m30.8 876.6c0 0 13.6 4.8 20.6-1.4 6.8-5.9-2.1-9.3-8.6-5.9-4.8 2.6-12 7.3-12 7.3z"/>
							</g>
						</g>
						<g id="&lt;Group&gt;">
							<g id="&lt;Group&gt;">
								<path id="&lt;Path&gt;" class="s31" d="m21.6 892.8c0 0 12.6 2.4 17.9-3.8 5.2-6.1-3-8-8.2-4.2-3.9 2.9-9.7 8-9.7 8z"/>
							</g>
						</g>
						<g id="&lt;Group&gt;">
							<g id="&lt;Group&gt;">
								<path id="&lt;Path&gt;" class="s31" d="m64.9 834.8c0 0-6.5-13-1.4-20.8 5.1-7.7 9.7 0.7 7.1 7.7-1.9 5.1-5.7 13.1-5.7 13.1z"/>
							</g>
						</g>
						<g id="&lt;Group&gt;">
							<g id="&lt;Group&gt;">
								<path id="&lt;Path&gt;" class="s31" d="m51.4 849.1c0 0-7.4-12.6-2.7-20.7 4.5-7.9 9.7 0.2 7.6 7.3-1.6 5.2-4.9 13.4-4.9 13.4z"/>
							</g>
						</g>
						<g id="&lt;Group&gt;">
							<g id="&lt;Group&gt;">
								<path id="&lt;Path&gt;" class="s31" d="m39.9 863.4c0 0-8.7-11.7-4.9-20.2 3.6-8.4 9.6-0.9 8.3 6.4-1 5.4-3.4 13.8-3.4 13.8z"/>
							</g>
						</g>
						<g id="&lt;Group&gt;">
							<g id="&lt;Group&gt;">
								<path id="&lt;Path&gt;" class="s31" d="m29 879.9c0 0-9.5-11-6.3-19.8 3.1-8.7 9.6-1.6 8.7 5.8-0.6 5.5-2.4 14-2.4 14z"/>
							</g>
						</g>
						<g id="&lt;Group&gt;">
							<g id="&lt;Group&gt;">
								<path id="&lt;Path&gt;" class="s31" d="m20.3 895.4c0 0-8.4-9.8-5.6-17.6 2.8-7.7 8.6-1.4 7.8 5.2-0.6 4.8-2.2 12.4-2.2 12.4z"/>
							</g>
						</g>
					</g>
					<g id="&lt;Group&gt;">
						<g id="&lt;Group&gt;">
							<g id="&lt;Group&gt;">
								<path id="&lt;Path&gt;" class="s31" d="m640.7 915.5q0.1 0 0.3 0c0.3 0 0.5-0.3 0.5-0.6 0-0.2-1.3-17.1-8.6-39.7-6.8-20.9-20.1-51.2-45.5-76.6-0.2-0.2-0.6-0.2-0.8 0-0.2 0.2-0.2 0.6 0 0.9 25.2 25.2 38.5 55.3 45.1 76.1 7.3 22.5 8.6 39.2 8.6 39.4 0 0.2 0.2 0.4 0.4 0.5z"/>
							</g>
						</g>
						<g id="&lt;Group&gt;">
							<g id="&lt;Group&gt;">
								<path id="&lt;Path&gt;" class="s31" d="m589.5 801.5c0 0-2.8-14.3-11.6-17.3-8.7-3-7.2 6.5-0.9 10.5 4.6 2.9 12.5 6.8 12.5 6.8z"/>
							</g>
						</g>
						<g id="&lt;Group&gt;">
							<g id="&lt;Group&gt;">
								<path id="&lt;Path&gt;" class="s31" d="m598 811.5c0 0 7-11 3.1-18.5-3.8-7.2-8.7-0.1-7 6.3 1.2 4.8 3.9 12.2 3.9 12.2z"/>
							</g>
						</g>
						<g id="&lt;Group&gt;">
							<g id="&lt;Group&gt;">
								<path id="&lt;Path&gt;" class="s31" d="m596.7 809.1c0 0-11.8 5.8-18.7 1-6.8-4.6 0.8-8.6 7-6.2 4.6 1.7 11.7 5.2 11.7 5.2z"/>
							</g>
						</g>
						<g id="&lt;Group&gt;">
							<g id="&lt;Group&gt;">
								<path id="&lt;Path&gt;" class="s31" d="m608.8 825.9c0 0-13.6 4.9-20.6-1.2-6.9-5.9 1.9-9.4 8.4-6 4.9 2.5 12.2 7.2 12.2 7.2z"/>
							</g>
						</g>
						<g id="&lt;Group&gt;">
							<g id="&lt;Group&gt;">
								<path id="&lt;Path&gt;" class="s31" d="m618.1 841.9c0 0-13.5 4.9-20.6-1.2-6.9-5.9 2-9.4 8.5-6 4.8 2.5 12.1 7.2 12.1 7.2z"/>
							</g>
						</g>
						<g id="&lt;Group&gt;">
							<g id="&lt;Group&gt;">
								<path id="&lt;Path&gt;" class="s31" d="m626.6 860.1c0 0-14.4 1.2-19.6-6.5-5.2-7.4 4.3-8.5 9.7-3.6 4 3.7 9.9 10.1 9.9 10.1z"/>
							</g>
						</g>
						<g id="&lt;Group&gt;">
							<g id="&lt;Group&gt;">
								<path id="&lt;Path&gt;" class="s31" d="m632.7 876.7c0 0-14.4 1.2-19.6-6.5-5.2-7.4 4.3-8.5 9.7-3.6 4 3.7 9.9 10.1 9.9 10.1z"/>
							</g>
						</g>
						<g id="&lt;Group&gt;">
							<g id="&lt;Group&gt;">
								<path id="&lt;Path&gt;" class="s31" d="m637.6 894.5c0 0-12.8-0.7-16.4-8-3.6-7.2 4.8-7 9-2 3 3.7 7.4 10 7.4 10z"/>
							</g>
						</g>
						<g id="&lt;Group&gt;">
							<g id="&lt;Group&gt;">
								<path id="&lt;Path&gt;" class="s31" d="m609.9 827.7c0 0 9.5-11 6.4-19.9-3-8.6-9.5-1.6-8.7 5.8 0.5 5.4 2.3 14.1 2.3 14.1z"/>
							</g>
						</g>
						<g id="&lt;Group&gt;">
							<g id="&lt;Group&gt;">
								<path id="&lt;Path&gt;" class="s31" d="m619.4 844.9c0 0 10.3-10.4 7.8-19.4-2.5-8.8-9.5-2.2-9.2 5.2 0.3 5.5 1.4 14.2 1.4 14.2z"/>
							</g>
						</g>
						<g id="&lt;Group&gt;">
							<g id="&lt;Group&gt;">
								<path id="&lt;Path&gt;" class="s31" d="m627 861.6c0 0 11.4-9.2 9.8-18.4-1.5-9.1-9.1-3.3-9.6 4.1-0.4 5.5-0.2 14.3-0.2 14.3z"/>
							</g>
						</g>
						<g id="&lt;Group&gt;">
							<g id="&lt;Group&gt;">
								<path id="&lt;Path&gt;" class="s31" d="m633.6 880.3c0 0 11.9-8.4 11-17.7-0.9-9.2-9-3.9-9.9 3.5-0.8 5.4-1.1 14.2-1.1 14.2z"/>
							</g>
						</g>
						<g id="&lt;Group&gt;">
							<g id="&lt;Group&gt;">
								<path id="&lt;Path&gt;" class="s31" d="m638.2 897.4c0 0 10.5-7.5 9.7-15.7-0.8-8.1-7.9-3.4-8.8 3.1-0.6 4.8-0.9 12.6-0.9 12.6z"/>
							</g>
						</g>
					</g>
					<g id="&lt;Group&gt;">
						<g id="&lt;Group&gt;">
							<g id="&lt;Group&gt;">
								<path id="&lt;Path&gt;" class="s31" d="m628.5 929.9q0.2 0 0.3 0c0.3-0.1 0.5-0.5 0.3-0.8 0-0.1-5.4-16.2-18.1-36.3-11.6-18.7-32-44.7-62.8-63.1-0.3-0.2-0.7-0.1-0.8 0.2-0.2 0.3-0.1 0.6 0.2 0.8 30.6 18.3 50.8 44.2 62.4 62.7 12.6 20 18 35.9 18 36.1 0.1 0.2 0.3 0.4 0.5 0.4z"/>
							</g>
						</g>
						<g id="&lt;Group&gt;">
							<g id="&lt;Group&gt;">
								<path id="&lt;Path&gt;" class="s31" d="m550.9 832c0 0-6.2-13.2-15.5-13.9-9.2-0.8-5.4 8.1 1.7 10.3 5.2 1.7 13.8 3.6 13.8 3.6z"/>
							</g>
						</g>
						<g id="&lt;Group&gt;">
							<g id="&lt;Group&gt;">
								<path id="&lt;Path&gt;" class="s31" d="m561.6 839.6c0 0 4.1-12.5-1.5-18.7-5.5-6.1-8.5 2-5.3 7.8 2.4 4.3 6.8 10.9 6.8 10.9z"/>
							</g>
						</g>
						<g id="&lt;Group&gt;">
							<g id="&lt;Group&gt;">
								<path id="&lt;Path&gt;" class="s31" d="m559.7 837.6c0 0-10 8.5-17.8 5.6-7.8-2.9-1.4-8.6 5.2-7.8 4.9 0.6 12.6 2.2 12.6 2.2z"/>
							</g>
						</g>
						<g id="&lt;Group&gt;">
							<g id="&lt;Group&gt;">
								<path id="&lt;Path&gt;" class="s31" d="m575.6 850.9c0 0-12 8-20.3 3.9-8.1-4-0.4-9.6 6.7-7.9 5.3 1.2 13.6 4 13.6 4z"/>
							</g>
						</g>
						<g id="&lt;Group&gt;">
							<g id="&lt;Group&gt;">
								<path id="&lt;Path&gt;" class="s31" d="m588.6 864.1c0 0-12 8.1-20.3 3.9-8.1-4-0.4-9.6 6.7-7.9 5.3 1.3 13.6 4 13.6 4z"/>
							</g>
						</g>
						<g id="&lt;Group&gt;">
							<g id="&lt;Group&gt;">
								<path id="&lt;Path&gt;" class="s31" d="m601.2 879.6c0 0-13.6 4.7-20.6-1.4-6.8-6 2.1-9.4 8.6-5.9 4.8 2.6 12 7.3 12 7.3z"/>
							</g>
						</g>
						<g id="&lt;Group&gt;">
							<g id="&lt;Group&gt;">
								<path id="&lt;Path&gt;" class="s31" d="m611.2 894.2c0 0-13.6 4.7-20.6-1.4-6.8-6 2.1-9.4 8.6-5.9 4.7 2.6 12 7.3 12 7.3z"/>
							</g>
						</g>
						<g id="&lt;Group&gt;">
							<g id="&lt;Group&gt;">
								<path id="&lt;Path&gt;" class="s31" d="m620.4 910.4c0 0-12.6 2.4-17.9-3.8-5.3-6.1 3-8 8.2-4.2 3.9 2.9 9.7 8 9.7 8z"/>
							</g>
						</g>
						<g id="&lt;Group&gt;">
							<g id="&lt;Group&gt;">
								<path id="&lt;Path&gt;" class="s31" d="m577 852.3c0 0 6.6-13 1.5-20.8-5.1-7.6-9.7 0.8-7.1 7.8 1.9 5.1 5.6 13 5.6 13z"/>
							</g>
						</g>
						<g id="&lt;Group&gt;">
							<g id="&lt;Group&gt;">
								<path id="&lt;Path&gt;" class="s31" d="m590.5 866.7c0 0 7.5-12.6 2.8-20.7-4.5-8-9.7 0.2-7.6 7.2 1.6 5.3 4.8 13.5 4.8 13.5z"/>
							</g>
						</g>
						<g id="&lt;Group&gt;">
							<g id="&lt;Group&gt;">
								<path id="&lt;Path&gt;" class="s31" d="m602 881c0 0 8.8-11.7 5-20.3-3.7-8.4-9.7-0.8-8.3 6.4 1 5.5 3.3 13.9 3.3 13.9z"/>
							</g>
						</g>
						<g id="&lt;Group&gt;">
							<g id="&lt;Group&gt;">
								<path id="&lt;Path&gt;" class="s31" d="m613 897.5c0 0 9.4-11.1 6.3-19.9-3.1-8.6-9.6-1.5-8.8 5.9 0.7 5.4 2.5 14 2.5 14z"/>
							</g>
						</g>
						<g id="&lt;Group&gt;">
							<g id="&lt;Group&gt;">
								<path id="&lt;Path&gt;" class="s31" d="m621.6 913c0 0 8.4-9.8 5.6-17.6-2.7-7.7-8.5-1.4-7.7 5.1 0.5 4.9 2.1 12.5 2.1 12.5z"/>
							</g>
						</g>
					</g>
				</g>
			</g>
		</g>
		<g id="&lt;Group&gt;">
			<g id="&lt;Group&gt;">
				<g id="&lt;Group&gt;">
					<text id="Saturday, June 21st" style="transform: matrix(2,0,0,2,151.881,297.949)" >
						<tspan x="0" y="0" class="t32">Saturday, June 21</tspan><tspan  y="0" class="t33">st
</tspan>
					</text>
					<text id="06.00 - 08.00 AM" style="transform: matrix(2,0,0,2,86.767,397.517)" >
						<tspan x="0" y="0" class="t34">06.00 - 08.00 AM
</tspan>
					</text>
					<text id="BC Alva Ground, Nitte" style="transform: matrix(2,0,0,2,187.266,477.23)" >
						<tspan x="0" y="0" class="t35">B</tspan><tspan  y="0" class="t35">C</tspan><tspan  y="0" class="t35"> </tspan><tspan  y="0" class="t35">A</tspan><tspan  y="0" class="t35">l</tspan><tspan  y="0" class="t35">v</tspan><tspan  y="0" class="t35">a</tspan><tspan  y="0" class="t35"> </tspan><tspan  y="0" class="t35">G</tspan><tspan  y="0" class="t35">r</tspan><tspan  y="0" class="t35">o</tspan><tspan  y="0" class="t35">u</tspan><tspan  y="0" class="t35">n</tspan><tspan  y="0" class="t35">d</tspan><tspan  y="0" class="t35">,</tspan><tspan  y="0" class="t35"> </tspan><tspan  y="0" class="t35">N</tspan><tspan  y="0" class="t35">i</tspan><tspan  y="0" class="t35">t</tspan><tspan  y="0" class="t35">t</tspan><tspan  y="0" class="t35">e</tspan><tspan  y="0" class="t35">
</tspan>
					</text>
					<text id="Lorem ipsum dolor sit amet, consectetur adipiscin" style="transform: matrix(2,0,0,2,292.834,555.541)" >
						<tspan x="-18.5" y="0" class="t36">C</tspan><tspan  y="0" class="t36">o</tspan><tspan  y="0" class="t36">n</tspan><tspan  y="0" class="t36">t</tspan><tspan  y="0" class="t36">a</tspan><tspan  y="0" class="t36">c</tspan><tspan  y="0" class="t36">t</tspan><tspan  y="0" class="t36">:</tspan><tspan  y="0" class="t36">
</tspan>
						<tspan x="-38" y="11.6" class="t36">A</tspan><tspan  y="11.6" class="t36">l</tspan><tspan  y="11.6" class="t36">e</tspan><tspan  y="11.6" class="t36">x</tspan><tspan  y="11.6" class="t36"> </tspan><tspan  y="11.6" class="t36">1</tspan><tspan  y="11.6" class="t36">2</tspan><tspan  y="11.6" class="t36">3</tspan><tspan  y="11.6" class="t36">4</tspan><tspan  y="11.6" class="t36">5</tspan><tspan  y="11.6" class="t36">6</tspan><tspan  y="11.6" class="t36">7</tspan><tspan  y="11.6" class="t36">8</tspan><tspan  y="11.6" class="t36">9</tspan><tspan  y="11.6" class="t36">0</tspan><tspan  y="11.6" class="t36">
</tspan>
						<tspan x="-38.4" y="23.3" class="t36">Z</tspan><tspan  y="23.3" class="t36">e</tspan><tspan  y="23.3" class="t36">t</tspan><tspan  y="23.3" class="t36">a</tspan><tspan  y="23.3" class="t36"> </tspan><tspan  y="23.3" class="t36">0</tspan><tspan  y="23.3" class="t36">9</tspan><tspan  y="23.3" class="t36">8</tspan><tspan  y="23.3" class="t36">7</tspan><tspan  y="23.3" class="t36">6</tspan><tspan  y="23.3" class="t36">5</tspan><tspan  y="23.3" class="t36">4</tspan><tspan  y="23.3" class="t36">3</tspan><tspan  y="23.3" class="t36">2</tspan><tspan  y="23.3" class="t36">1</tspan><tspan  y="23.3" class="t36">
</tspan>
					</text>
				</g>
			</g>
			<g id="&lt;Group&gt;">
				<text id="INTERNATIONAL
" style="transform: matrix(2,0,0,2,167.999,121.659)" >
					<tspan x="0" y="0" class="t37" dx="0 3 3 3 3 3 3 3 3 3 3 3 3 3" >INTERNATIONAL
</tspan>
				</text>
				<text id="YOGA DAY
" style="transform: matrix(2,0,0,2,76.921,212.97)" >
					<tspan x="0" y="0" class="t38">YOGA DAY
</tspan>
				</text>
			</g>
		</g>
	</g>
</svg>