<svg version="1.2" xmlns="http://www.w3.org/2000/svg" viewBox="0 0 840 1190" width="840" height="1190">
	<title>81201316_8542069-ai</title>
	<defs>
		<clipPath clipPathUnits="userSpaceOnUse" id="cp1">
			<path d="m856.06 1207.01h-873.07v-1224.57h873.07z"/>
		</clipPath>
	</defs>
	<style>
		tspan { white-space:pre } 
		.s0 { fill: #242954 } 
		.s1 { fill: none;stroke: #ffffff;stroke-miterlimit:10;stroke-width: 4 } 
		.s2 { fill: #f953c1 } 
		.s3 { fill: #ffdc4d } 
		.s4 { fill: #ffffff } 
		.s5 { fill: #75d9af } 
		.s6 { fill: #ef9330 } 
		.t7 { font-size: 15px;text-transform: uppercase;fill: #242954;font-weight: 600;font-family: "Barlow-SemiBold", "Barlow" } 
		.t8 { font-size: 12px;fill: #ffffff;font-weight: 600;font-family: "Barlow-SemiBold", "Barlow" } 
		.t9 { font-size: 20px;text-transform: uppercase;fill: #242954;font-weight: 700;font-family: "Barlow-Bold", "Barlow" } 
		.s10 { fill: #fdaa34 } 
		.t11 { font-size: 62px;line-height: 62px;fill: #ffffff;font-weight: 800;font-family: "Barlow-ExtraBold", "Barlow" } 
	</style>
	<g id="PRINT">
		<g id="&lt;Group&gt;">
			<path id="&lt;Path&gt;" class="s0" d="m856.1 1208h-873.1v-1224.6h873.1z"/>
		</g>
		<g id="&lt;Clip Group&gt;" clip-path="url(#cp1)">
			<g id="&lt;Group&gt;">
				<g id="&lt;Group&gt;">
					<path id="&lt;Path&gt;" class="s1" d="m852.2 299.9c-18.7 17-53.9 8.6-78.7-18.7-24.8-27.3-29.8-63.2-11.1-80.1 18.7-17 53.9-8.6 78.7 18.7 24.8 27.3 29.8 63.2 11.1 80.1z"/>
					<path id="&lt;Path&gt;" class="s1" d="m840.2 311.9c-18.6 16.9-53.9 8.6-78.7-18.7-24.8-27.3-29.7-63.2-11-80.2 18.6-16.9 53.9-8.5 78.7 18.8 24.7 27.3 29.7 63.1 11 80.1z"/>
					<path id="&lt;Path&gt;" class="s1" d="m828.3 323.9c-18.7 16.9-53.9 8.5-78.7-18.8-24.8-27.3-29.8-63.2-11.1-80.1 18.7-17 53.9-8.6 78.7 18.7 24.8 27.3 29.7 63.2 11.1 80.2z"/>
				</g>
				<g id="&lt;Group&gt;">
					<path id="&lt;Path&gt;" class="s1" d="m123.9 499c7.1 7.6 3.9 22.3-7.3 32.8-11.2 10.5-26.1 12.8-33.3 5.1-7.1-7.6-3.9-22.4 7.3-32.8 11.2-10.5 26.1-12.8 33.3-5.1z"/>
					<path id="&lt;Path&gt;" class="s1" d="m143.2 518.1c7.2 7.7 3.9 22.4-7.3 32.9-11.2 10.5-26.1 12.7-33.3 5.1-7.1-7.7-3.8-22.4 7.4-32.9 11.2-10.4 26-12.7 33.2-5.1z"/>
					<path id="&lt;Path&gt;" class="s1" d="m158.2 533c7.2 7.7 3.9 22.4-7.3 32.8-11.2 10.5-26.1 12.8-33.2 5.1-7.2-7.6-3.9-22.3 7.3-32.8 11.2-10.5 26-12.8 33.2-5.1z"/>
				</g>
				<g id="&lt;Group&gt;">
					<path id="&lt;Path&gt;" class="s1" d="m109.6 3c10.4 13.8 2.4 37.2-17.8 52.4-20.1 15.2-44.9 16.3-55.3 2.5-10.3-13.8-2.4-37.3 17.8-52.5 20.2-15.1 44.9-16.2 55.3-2.4z"/>
					<path id="&lt;Path&gt;" class="s1" d="m117 11.9c10.4 13.8 2.4 37.2-17.8 52.4-20.1 15.2-44.9 16.3-55.3 2.5-10.3-13.8-2.4-37.3 17.8-52.5 20.2-15.1 44.9-16.2 55.3-2.4z"/>
					<path id="&lt;Path&gt;" class="s1" d="m124.4 20.8c10.4 13.8 2.4 37.3-17.8 52.4-20.1 15.2-44.9 16.3-55.3 2.5-10.3-13.8-2.4-37.3 17.8-52.4 20.2-15.2 44.9-16.3 55.3-2.5z"/>
				</g>
				<g id="&lt;Group&gt;">
					<path id="&lt;Path&gt;" class="s2" d="m210.8 203.8c-1.2 2.6-2.3 5-3.5 7.3-3.9 7.8-7.7 15.7-11.8 23.5-1.2 2.2-3 4.2-4.6 6.1-1.2 1.5-3.1 1.2-3.6-0.7-0.5-1.6-0.9-3.3-0.9-4.9-0.2-3.9 0.1-7.8-0.1-11.7-0.4-5-1-9.9-1.6-15.3-0.8 0.6-1.2 0.9-1.6 1.2q-8.9 7-17.8 14c-0.5 0.4-0.8 0.7-1.3 1.1-3.2 2.5-6.3 5-9.6 7.4-0.5 0.3-1.6 0.4-2.1 0.1-0.5-0.4-0.7-1.3-0.9-2-0.1-0.2 0-0.4 0.1-0.7 1.9-4.5 3.7-9.2 5.8-13.6 2.7-5.7 5.7-11.3 8.6-17.1-0.6-0.2-1.2-0.4-1.8-0.6-5.2-1.5-10.4-2.9-15.5-4.5-5.2-1.7-10.3-3.7-15.4-5.5-0.9-0.3-1.5-1.1-1.3-2 0.2-0.7 0.7-1.6 1.3-1.8 1.5-0.5 3-1.1 4.5-1 8.9 0.4 17.6-1.1 26.3-2.5 2.1-0.4 4.2-0.5 6.4-0.8-2.7-2.9-5.2-5.7-7.7-8.5-1.7-2-3.3-4.1-4.8-6.2-3.2-4.3-6.3-8.7-9.5-13.1-0.7-0.8-1.2-1.7-0.4-2.7 0.8-1.1 1.9-1.1 3-0.5 3.1 1.5 6 3.3 9.1 4.8q8.2 4 16.4 7.8c3 1.4 6.1 2.6 9.4 4-0.2-2.3-0.3-4.4-0.6-6.5-1.9-11.2-1.8-22.4-1.3-33.7 0-0.5 0.1-1.1 0.2-1.6 0.1-1 0.6-1.8 1.7-2 1.2-0.2 1.9 0.5 2.4 1.5 0.7 1.7 1.2 3.5 2 5.2 3.4 8 6.9 16.1 10.4 24.2 0.9 2 1.5 4.2 2.3 6.2 1.2 3 2.6 6 3.7 8.7 1.7-1.5 3.4-2.8 4.8-4.3 7.1-7.9 15.2-14.6 23.1-21.6 0.8-0.7 1.6-1.6 2.6-2.1 0.6-0.3 1.6-0.4 2.3-0.2 1 0.3 1.1 1.4 0.8 2.3-1.9 5.2-3.2 10.7-6.4 15.5-2 3.1-3.3 6.8-4.8 10.3-0.4 0.7-0.7 1.6-1.1 2.6 0.5-0.2 0.7-0.2 1-0.3 5.5-2.7 11-5.4 16.5-8 4-1.9 8-3.6 12-5.4 1.1-0.5 1.8-0.3 2.3 0.9-7.4 8.4-14.8 16.8-22.4 25.4q3.4 1.1 6.7 2.3 9.7 3.3 19.4 6.7c0.5 0.1 1.1 0.3 1.4 0.6 0.5 0.6 1.1 1.4 1.2 2.1 0.1 1.1-0.8 1.6-1.7 1.9-0.8 0.1-1.5 0.2-2.2 0.2-7.7 0-15.4 0.1-23.1-0.8-2.3-0.3-4.6-0.1-7.1-0.1 0.4 2.8 0.9 5.7 1.3 8.5 0.3 2.4 0.7 4.8 0.7 7.1 0 6.1-0.2 12.2-0.3 18.4-0.1 0.4 0 0.9-0.2 1.2-0.5 0.7-1 1.6-1.7 1.8-0.6 0.1-1.7-0.5-2.1-1.1-4.4-6.4-8.7-13-13.1-19.4-1.7-2.7-3.7-5.2-5.8-8.1z"/>
				</g>
				<path id="&lt;Path&gt;" class="s3" d="m-123.5 1049.9c23.9 11.4 28.4 16.2 50.9 22.6 12.6-23.2 33.5-69.8 44.5-98 20.6-53 30.2-73.2 47.1-127.3 14.7-47.1 37.4-91.3 53.8-137.9 6.3-17.7 7.9-37.8 15.8-54.8-17.3-16-44.4-34.8-68.8-46.5-9.7 14.5-18.3 33.2-24.5 49.5-9.2 23.8-21.7 45.3-32.5 68.5-14.6 31.5-34.1 61.7-47 93.5-12.6 30.8-27.7 60.9-42.9 90.5-15.8 30.8-29.4 50.2-40.7 83-4.8 14.1-10.2 32.9-10.2 32.9 0 0 35.4 14.9 54.5 24z"/>
				<g id="&lt;Group&gt;">
					<path id="&lt;Path&gt;" class="s4" d="m32.7 161.2c1.2 2.7 1.3 3.4 2.7 5.6 2.8-1.1 7.9-3.5 10.8-5.1 5.6-3.1 7.9-4.1 13.2-7.5 4.6-2.9 9.7-5.1 14.4-7.8 1.9-1.1 3.4-2.7 5.3-3.5-0.3-2.6-1.2-6.2-2.5-8.9-1.8 0.5-3.9 1.5-5.6 2.4-2.5 1.4-5.1 2.3-7.7 3.5-3.5 1.6-7.3 2.8-10.7 4.6-3.3 1.7-6.7 3.1-10.1 4.6-3.6 1.5-6.1 2.1-9.4 4.1-1.5 0.8-3.3 2.1-3.3 2.1 0 0 2 3.8 2.9 5.9z"/>
				</g>
				<g id="&lt;Group&gt;">
					<path id="&lt;Path&gt;" class="s4" d="m777.3 424.4c-2.5 1.5-3.2 1.6-5.2 3.3 1.4 2.6 4.5 7.4 6.4 10.1 3.7 5.2 5 7.3 9 12.2 3.5 4.2 6.2 9 9.5 13.4 1.3 1.7 3 3 4.1 4.8 2.6-0.6 6-2 8.6-3.6-0.8-1.7-2-3.7-3.1-5.3-1.7-2.3-2.9-4.7-4.4-7.1-2.1-3.3-3.7-7-5.9-10.1-2.1-3.1-3.9-6.3-5.8-9.5-1.9-3.4-2.8-5.8-5.2-8.9-1-1.3-2.4-2.9-2.4-2.9 0 0-3.6 2.3-5.6 3.6z"/>
				</g>
				<g id="&lt;Group&gt;">
					<path id="&lt;Path&gt;" class="s4" d="m637.4 63.7c-1.8 2.3-2.5 2.7-3.7 5 2.2 1.9 6.7 5.4 9.4 7.3 5.3 3.6 7.2 5.1 12.6 8.3 4.8 2.8 9 6.4 13.6 9.3 1.8 1.2 3.9 1.9 5.5 3.1 2.2-1.4 4.9-3.9 6.8-6.2-1.3-1.4-3.1-2.9-4.7-3.9-2.4-1.6-4.4-3.5-6.6-5.3-3.1-2.4-5.8-5.3-8.9-7.5-3.1-2.1-5.9-4.5-8.8-6.9-2.9-2.5-4.6-4.5-7.9-6.5-1.4-0.9-3.3-1.9-3.3-1.9 0 0-2.5 3.4-4 5.2z"/>
				</g>
				<g id="&lt;Group&gt;">
					<path id="&lt;Path&gt;" class="s4" d="m767.5 597.7c-2.5-1.5-2.9-2.1-5.3-3-1.4 2.6-3.7 7.8-4.9 11-2.2 5.9-3.3 8.1-5.1 14.2-1.7 5.3-4.1 10.2-6 15.4-0.6 2-0.8 4.3-1.7 6.2 1.8 2 4.6 4.3 7.2 5.9 1.1-1.6 2-3.7 2.7-5.5 1-2.7 2.3-5.1 3.5-7.7 1.6-3.5 3.7-6.8 5.2-10.4 1.3-3.4 3-6.7 4.6-10 1.7-3.5 3.2-5.6 4.5-9.3 0.5-1.5 1.1-3.7 1.1-3.7 0 0-3.7-1.9-5.8-3.1z"/>
				</g>
				<g id="&lt;Group&gt;">
					<g id="&lt;Group&gt;">
						<path id="&lt;Compound Path&gt;" fill-rule="evenodd" class="s2" d="m880.3 987.9c-10.4-3.2-22-8.9-31.2-17.3-11.1-10-16.8-22.4-16.7-35.6 0.2-14.3 5.7-27 11.1-39.4 3.5-8 6.8-15.6 8.2-22.9 1.9-9.2 2.1-20.7-2.9-25.3-3.5-3.3-8.4-2-15.4 2.5-0.3 7-1.2 14.8-2.4 21.6-1.8 11.2-6.2 31.8-14.8 43.6-5.9 8.1-12.2 9.7-16.4 9.6-7.9-0.2-13.7-4.2-15.9-11.1-2.9-8.8 0.6-22.4 10.2-40.6 5.9-11.2 15.2-25.4 20.5-29.4l0.7-0.6q1-0.7 2.1-1.5c-0.1-2-0.3-3.4-0.6-4.2-3.8-11-9.4-17.5-15.3-17.8-6.5-0.2-17.6 7.5-27.3 30-1.1 2.4-2.5 7.6-4 13.2-5.5 20.8-12.4 46.6-28.9 51-7.6 2-15.4-1-23.1-8.8-6.2-6.3-9.4-15.3-9.4-26.6-0.1-7.1 1.1-15.2 3.6-24.6 0.9-3.4 3-7.7 5.7-13.1 2.2-4.5 4.7-9.5 6.4-13.9 1.8-5 1.8-7.2 1.8-7.7-0.8-1.2-1.4-1.6-1.6-1.7-0.7 0.1-3.2 1.3-6.7 6.1-3.3 4.6-5.5 9.4-6 11.4-0.8 2.8-1.3 6.5-1.9 10.5-1.9 12.2-4.1 26-13.9 32.7-4.9 3.4-10.9 4.4-17.8 2.9-8.5-1.8-14.2-5.4-17.5-10.9-5.2-8.6-2.4-18.8 0.1-27.8 1.4-5.2 2.9-10.5 2.5-14.3-2.6 4.3-5.9 11.8-8.5 20.2l-15.3-4.6c0.5-1.6 3.1-10.1 6.9-17.9 3.6-7.5 8.8-16.2 17.1-16.7 4.1-0.3 9.7 1.3 13.8 10.4 4 8.8 1.3 18.6-1.1 27.2-1.6 5.9-3.4 12.5-1.8 15.3 0.9 1.4 3.4 2.6 7.2 3.4 3.6 0.8 4.9-0.1 5.4-0.4 4.1-2.8 5.8-13.9 7-22 0.7-4.4 1.4-8.6 2.4-12.2 1.2-4.7 4.4-11 8.1-16.1 5.5-7.7 11.4-12.1 17.5-13.1 4-0.6 11.5-0.3 17.6 9 6.4 9.6-0.9 24.3-7.4 37.3-1.9 3.9-4.1 8.2-4.5 10-4.7 18-4.1 30 1.7 36 3.2 3.2 6.1 4.9 7.7 4.5 0.6-0.2 4.3-1.6 9-12.7 3.5-8.3 6.2-18.6 8.4-26.9 1.8-6.7 3.2-12 4.8-15.5 11.1-25.8 26.7-40.2 42.7-39.6 7.5 0.3 21.4 4.5 29.7 28.7q0.1 0.1 0.1 0.2 1-0.4 1.9-0.8c12.5-4.8 20.9-0.4 25.8 4.1 11.6 10.7 9.8 29.8 7.7 40.2-1.8 8.9-5.6 17.6-9.2 26.1-5 11.4-9.6 22.2-9.8 33.2-0.1 8.6 3.8 16.6 11.5 23.5 13.3 12.1 33.6 17.2 40.4 16.5l1.7 15.9c-5.1 0.6-13-0.5-21.7-3.2zm-65-119.6c-2.5 4-5.3 8.7-7.9 13.9-8.6 16.5-9 24.4-8.4 26.4q0.3 0 1.1 0.1c0 0 1.7-0.5 4.3-4.8 4.4-7.3 8.5-20.5 10.9-35.6z"/>
					</g>
				</g>
				<path id="&lt;Path&gt;" class="s5" d="m26.7 307.5c12.5 1.9 22.1 6.4 29.5 17.2 7.9 11.5 13.6 27.6 14.4 41.4 0.9 17.3-4.4 31.8-13.3 46.4-9.6 15.9-24 21.1-42 23.2-29.7 3.4-56.5-8-71.1-35-11.8-21.8-4.5-54.6 10.8-73.3 7.5-9 25.7-16.4 36.9-19.8 8.9-2.8 20.4-2.3 34.8-0.1z"/>
				<path id="&lt;Path&gt;" class="s3" d="m734.1 477.5c10.1 1.5 17.8 5.1 23.8 13.9 6.4 9.3 11 22.3 11.7 33.5 0.7 13.9-3.6 25.7-10.7 37.5-7.9 12.9-19.5 17.1-34 18.8-24 2.7-45.7-6.5-57.6-28.3-9.5-17.6-3.6-44.2 8.8-59.3 6.1-7.3 20.8-13.3 29.9-16.1 7.1-2.2 16.4-1.8 28.1 0z"/>
				<path id="&lt;Path&gt;" class="s6" d="m737.7-24.3c10.2 1.5 17.9 5.2 23.9 13.9 6.4 9.3 11 22.4 11.6 33.5 0.8 14-3.5 25.7-10.7 37.5-7.8 12.9-19.4 17.1-34 18.8-24 2.8-45.7-6.5-57.5-28.3-9.5-17.6-3.7-44.2 8.8-59.3 6-7.3 20.7-13.2 29.8-16 7.2-2.2 16.5-1.8 28.1-0.1z"/>
				<path id="&lt;Compound Path&gt;" fill-rule="evenodd" class="s6" d="m76.5 858.1c-17.1-5-39.6-52.6-42.7-58.8-3.6-7.2 1.5-15.7 9-11 9.7 6.9 55.9 71.2 33.7 69.8zm-52.3-39.5c-5.7 17.8-20.7-13-24.3-18.1-8.1-13.2-16.4-30.3-14.9-42.4 6.2-10.4 18 14 21.4 17.7 8.5 13.3 17.4 27 17.8 42.8zm-13.3 40.1c-6.6 15-21.2-17-25.6-20.7-5.4-8-10.7-15.8-13.6-25.3-1.3-6.7-0.3-19.1 8.7-13.6 5.5 4.6 7.6 11.2 11.9 17.2 8.4 14 18.5 28.1 18.6 42.4zm82-93.8c5.5-1.4 7.9 4.1 9.7 8.5 9.6 22.8 24.2 41 23.8 52.4-7.3 16.3-24.3-16.7-27.4-21.7-6.6-10.6-14.8-32.3-6.1-39.2zm-70.3 152.5c-12-4.4-34.2-39.7-34.8-43.8-3.4-12.3 11.4-9.7 16.2-3.9 6.7 7.5 39.2 47.9 18.6 47.7zm-80.1-52.2c0.2 0 0.4 0.1 0.7 0.2 0.1-0.4 0.2-0.7 0.2-0.8 0.6-0.5 1.1-0.9 1.7-1.3 11.8-2.6 27.8 35.6 29.6 41.3 3.3 8-1.5 15.9-9.3 11.7-11.5-9.6-17.8-25-23.6-38.7-2.3-4.1-0.7-8 0.7-12.4zm145.8-54.8c-4.7 15.3-19-11.4-23.6-15-5.3-7.3-11.5-14.3-14.9-23.1-3.5-9.2-0.7-22.3 9.6-12.9 12.4 17.3 28.9 42.2 28.9 51zm-117.6 55.3c-3-0.1-3.9-2.8-5.5-5.4-8.6-15.1-19.1-28-24.9-44.4-1-3.5-1.2-8.2 3-9.6 8.1-2 25.2 26.6 26.6 30.5 2.1 7.5 13.1 30.5 0.8 28.9zm53.5-24.2c7.9-19 34 32.6 35.2 38.8 0.8 4.6 1.1 10.3-5 10.7-11.5 0.5-31.2-45.3-30.2-49.5zm-71.4-102c7.6-1.1 9.7 8.3 13.1 13.6 4.5 9.3 9.6 18.2 10.2 28.6-6.5 14.2-16.5-10.2-19.3-15.1-4.4-8-11.6-20-4-27.1zm59.2-5.6c23.9 12.3 25.5 46.5 12.3 38.3-6-6.5-28.1-38-12.3-38.3z"/>
			</g>
		</g>
		<g id="&lt;Group&gt;">
			<g id="&lt;Group&gt;">
				<path id="&lt;Path&gt;" class="s4" d="m555.1 100.9h-271.1c-12.7 0-23-10.2-23-22.9 0-12.7 10.3-23 23-23h271.1c12.6 0 22.9 10.3 22.9 23 0 12.7-10.3 22.9-22.9 22.9z"/>
			</g>
			<text id="virtual edition
" style="transform: matrix(2,0,0,2,419.527,89.156)" >
				<tspan x="-61.6" y="0" class="t7" dx="0 0 0 0 0 0 0 0 0 0 0 0 0 0 0 0" >VIRTUAL EDITION
</tspan>
			</text>
		</g>
		<text id="The purpose of the constellation was to tell stori" style="transform: matrix(2,0,0,2,122.924,969.382)" >
			<tspan x="9" y="8.4" class="t8">The purpose of the constellation was to tell stories of </tspan>
			<tspan x="18.4" y="22.8" class="t8">their beliefs, experiences, creation, or mythology. 
</tspan>
		</text>
		<g id="&lt;Group&gt;">
			<g id="&lt;Group&gt;">
				<path id="&lt;Path&gt;" class="s4" d="m595.1 941.9h-351.2c-16.4 0-29.7-13.3-29.7-29.7 0-16.5 13.3-29.8 29.7-29.8h351.2c16.5 0 29.8 13.3 29.8 29.8 0 16.4-13.3 29.7-29.8 29.7z"/>
			</g>
			<text id="APRIL 14TH
" style="transform: matrix(2,0,0,2,354.25,926.631)" >
				<tspan x="-52.6" y="0" class="t9" dx="0 0 0 0 0 0 0 0 0 0 0" >APRIL 14TH
</tspan>
			</text>
			<text id="7 PM
" style="transform: matrix(2,0,0,2,551.867,926.631)" >
				<tspan x="-20.6" y="0" class="t9" dx="0 0 0 0 0" >7 PM
</tspan>
			</text>
			<g id="&lt;Group&gt;">
				<g id="&lt;Group&gt;">
					<path id="&lt;Path&gt;" class="s0" d="m483.1 907.1c-2.8 0-5.1 2.2-5.1 5.1 0 2.8 2.3 5 5.1 5 2.8 0 5.1-2.2 5.1-5 0-2.9-2.3-5.1-5.1-5.1z"/>
				</g>
			</g>
		</g>
		<g id="&lt;Group&gt;">
			<g id="&lt;Group&gt;">
				<g id="&lt;Group&gt;">
					<path id="&lt;Compound Path&gt;" fill-rule="evenodd" class="s4" d="m437.2 1103c0 9.8-7.9 17.7-17.7 17.7-9.7 0-17.7-7.9-17.7-17.7 0-9.7 8-17.7 17.7-17.7 9.8 0 17.7 8 17.7 17.7zm-2.2 0c0-8.5-7-15.4-15.5-15.4-8.5 0-15.4 6.9-15.4 15.4 0 8.5 6.9 15.5 15.4 15.5 8.5 0 15.5-7 15.5-15.5zm-6.3-5.7q0 0 0 0.1 0 0-0.2 0.2-0.6 0.9-1.5 1.6c0 0-0.2 0.1-0.2 0.2 0 3-0.7 6-2.9 8.2-2.8 2.8-7 3.5-10.7 2.5q-1.1-0.3-2.1-0.8-0.3-0.2-0.6-0.4c-0.1-0.1-0.1-0.1-0.1-0.1 0.1-0.1 0.1-0.1 0.3 0 1 0.1 2.1-0.1 3-0.4 0.6-0.2 1.8-0.6 2.1-1.1q0 0 0 0-0.2-0.1-0.4-0.1c-1-0.3-2.4-0.8-3-2.5q0-0.1 0.1-0.1c0.9 0.1 1.2 0 1.4-0.1q-0.2 0-0.4-0.1c-1.3-0.5-2.2-1.7-2.4-3.1q0-0.2 0-0.4 0-0.2 0.1-0.1c0.7 0.4 1.4 0.4 1.5 0.4q-0.3-0.2-0.5-0.4c-1.1-1-1.5-3.2-0.7-4.5 0.1-0.1 0.2-0.1 0.3 0 2 2.3 4.5 3.4 7.5 3.8 0 0 0 0 0-0.1 0-0.5-0.1-1 0.1-1.5q0.2-0.8 0.7-1.5 0.5-0.6 1.3-1 0.7-0.4 1.5-0.5 0.8 0 1.6 0.3 0.6 0.2 1.1 0.7 0.1 0 0.2 0.2 0 0 0.1 0 1.2-0.3 2.2-0.8 0-0.1 0.1-0.1 0 0.1 0 0.1-0.2 0.7-0.6 1.2c-0.2 0.2-0.6 0.7-0.9 0.8 0.6-0.1 1.3-0.3 1.9-0.6q0.1 0 0.1 0z"/>
				</g>
			</g>
			<g id="&lt;Group&gt;">
				<g id="&lt;Group&gt;">
					<path id="&lt;Compound Path&gt;" fill-rule="evenodd" class="s4" d="m479.4 1103c0 9.8-7.9 17.7-17.7 17.7-9.7 0-17.7-7.9-17.7-17.7 0-9.8 8-17.7 17.7-17.7 9.8 0 17.7 7.9 17.7 17.7zm-2.3 0c0-8.5-6.9-15.4-15.4-15.4-8.5 0-15.4 6.9-15.4 15.4 0 8.5 6.9 15.4 15.4 15.4 8.5 0 15.4-6.9 15.4-15.4zm-6.2 3.7c0 3-2.5 5.4-5.5 5.4h-7.4c-3 0-5.4-2.4-5.4-5.4v-7.4c0-3 2.4-5.4 5.4-5.4h7.4c3 0 5.5 2.4 5.5 5.4zm-1.8-7.3c0-2.1-1.7-3.8-3.8-3.8h-7.2c-2.1 0-3.7 1.7-3.7 3.8v7.2c0 2.1 1.6 3.7 3.7 3.7h7.2c2.1 0 3.8-1.6 3.8-3.7zm-2.8 3.5c0 2.5-2 4.5-4.5 4.5-2.4 0-4.4-2-4.4-4.5 0-2.4 2-4.4 4.4-4.4 2.5 0 4.5 2 4.5 4.4zm-1.6 0c0-1.6-1.3-2.8-2.9-2.8-1.5 0-2.8 1.2-2.8 2.8 0 1.6 1.3 2.9 2.8 2.9 1.6 0 2.9-1.3 2.9-2.9zm2.9-4.7c0 0.5-0.5 1-1 1-0.6 0-1.1-0.5-1.1-1 0-0.6 0.5-1.1 1.1-1.1 0.5 0 1 0.5 1 1.1z"/>
				</g>
			</g>
			<g id="&lt;Group&gt;">
				<g id="&lt;Group&gt;">
					<g id="&lt;Group&gt;">
						<path id="&lt;Compound Path&gt;" fill-rule="evenodd" class="s4" d="m395 1103c0 9.7-7.9 17.7-17.7 17.7-9.7 0-17.7-8-17.7-17.7 0-9.8 8-17.7 17.7-17.7 9.8 0 17.7 7.9 17.7 17.7zm-2.2 0c0-8.5-7-15.5-15.5-15.5-8.5 0-15.4 7-15.4 15.5 0 8.5 6.9 15.4 15.4 15.4 8.5 0 15.5-6.9 15.5-15.4z"/>
					</g>
				</g>
				<g id="&lt;Group&gt;">
					<path id="&lt;Path&gt;" class="s4" d="m378.7 1097.9v1.9h2.5c0.2 0 0.3 0.1 0.3 0.2l-0.3 2.7c0 0.1-0.1 0.2-0.2 0.2h-2.3v8.8c0 0.1-0.1 0.2-0.3 0.2h-3.2c-0.1 0-0.2-0.1-0.2-0.2v-8.8h-1.6c-0.1 0-0.2-0.1-0.2-0.2v-2.7c0-0.1 0.1-0.2 0.2-0.2h1.6v-2.6c0-1.7 1.5-3.2 3.2-3.2h3.1c0.1 0 0.2 0.1 0.2 0.2v2.7c0 0.1-0.1 0.2-0.2 0.2h-1.8c-0.5 0-0.8 0.4-0.8 0.8z"/>
				</g>
			</g>
		</g>
		<g id="&lt;Group&gt;">
			<path id="&lt;Path&gt;" class="s5" d="m648.2 256.1c-9.6-27-21.2-49.5-41.9-70-5.1-5.1-10.6-9.8-16.3-14.1-7.2-5.8-14.9-10.7-23-14.6-10.2-5.3-20.9-9.6-32-12.6-36.6-9.9-73.2-1.7-102.8 21.1-30.4 23.5-44.4 54.6-46.5 92.7q-0.4 3 0.1 6 0.1 0.6 0.2 1.2-5.7 6.1-11.9 11.6-8.9 5.8-18.3 10.7-11.7 3.9-23.8 6.5c-29.5 2.3-58.8 3.1-85.3 19.7-29.2 18.2-51.5 44.7-60.5 78.6-11.9 44.7 2 96 35.9 127.9 27.1 25.5 61.8 43.7 97.5 53.5 26.1 7.2 54.9 11 82 8.6 17.7-1.5 36-3.6 53.4-7.8 18-4.3 35.7-12.4 52.4-19.9 24.3-10.9 46.3-27.6 65.8-45.6 5.9-5.5 11.3-11.6 16.4-17.9 10.9-13.7 22.4-27.6 31.1-42.9 8.7-15.4 15.4-32.4 21.7-48.8 3.1-8 5.6-16.3 7.4-24.7 8-38.4 11.8-81.5-1.6-119.2z"/>
			<g id="&lt;Group&gt;">
				<g id="&lt;Group&gt;">
					<path id="&lt;Path&gt;" class="s3" d="m513.8 286.1l0.3 13.3c0.5 19.8-0.9 39.7-4 59.2l-9.1 56.2-113.2 40.4-42.6-37.6c-14.8-13.2-28.5-27.7-40.7-43.3l-8.1-10.5c-50.4-64.5-25.6-160.3 50.7-190.1q1.7-0.7 3.5-1.3 1.8-0.6 3.5-1.2c77.9-25.3 157.8 33.1 159.7 114.9z"/>
				</g>
				<g id="&lt;Group&gt;">
					<g id="&lt;Group&gt;">
						<path id="&lt;Path&gt;" class="s0" d="m497.1 423.7l-100.6 36c-3.6 1.3-5.5 5.3-4.2 9l0.9 2.7c1.3 3.6 5.4 5.5 9 4.2l100.6-35.9c3.7-1.3 5.6-5.4 4.3-9l-1-2.7c-1.3-3.6-5.3-5.6-9-4.3z"/>
					</g>
				</g>
				<g id="&lt;Group&gt;">
					<g id="&lt;Group&gt;">
						<path id="&lt;Path&gt;" class="s0" d="m504.7 445.1l-100.6 35.9c-3.6 1.3-5.5 5.3-4.2 9l0.9 2.7c1.3 3.6 5.4 5.5 9 4.2l100.6-35.9c3.7-1.3 5.6-5.4 4.3-9l-1-2.7c-1.3-3.6-5.3-5.6-9-4.2z"/>
					</g>
				</g>
				<g id="&lt;Group&gt;">
					<g id="&lt;Group&gt;">
						<path id="&lt;Path&gt;" class="s0" d="m512.3 466.4l-100.5 35.9c-3.7 1.3-5.6 5.3-4.3 9l0.5 1.3 0.4 1.4 3.2 8.8c9.4 26.2 38.2 39.9 64.4 30.5l18.9-6.8c26.3-9.3 39.9-38.2 30.5-64.4l-3.1-8.8-0.5-1.3-0.5-1.4c-1.3-3.6-5.3-5.5-9-4.2z"/>
					</g>
				</g>
				<g id="&lt;Group&gt;">
					<path id="&lt;Compound Path&gt;" fill-rule="evenodd" class="s10" d="m472.3 341.1c-4.7 4.4-11.4 6.9-18.9 8l16.4 76.8-8.7 3.1-16.8-79.1c-8.9 0.2-18.1-1.1-25.9-3q-3.1-0.7-6.1-1.6-1.6 2.5-3.6 5.1c-4.8 6.4-11.1 13.2-18.1 18.7l37.1 71.9-8.7 3.1-36-69.8c-6.5 3.8-13.2 6.1-19.7 5.7-15.8-1-21.1-10.8-21.8-16-1-5.3 0.9-15.8 14.9-19.1 4.2-1 8.5-0.9 12.6 0.2 6.8 1.8 12.7 6.7 16.1 13.4l1.2 2.3c5.3-4.3 10.5-9.8 15.2-15.9q1.1-1.4 2-2.9c-11.5-4.9-19.5-11.8-22.2-19.3-2.6-7.3-2.5-13.7 0.3-19.2 3.7-7.4 11.1-10 12.2-10.4 0.8-0.3 5.4-1.7 11-0.8 5.6 0.9 13.2 4.5 17.2 15.8 2.7 7.6 0.9 17.9-4.9 29.1q1.7 0.5 3.4 0.9c7.5 1.8 15 2.7 21.8 2.7l-0.5-2.6c-1.6-7.3-0.1-14.8 4-20.5 2.4-3.5 5.7-6.2 9.6-8.2 12.9-6.4 21.1 0.6 23.7 5.4 2.7 4.4 4.8 15.4-6.8 26.2zm-93.5 25l-1.8-3.5c-2.2-4.4-6-7.5-10.4-8.7-2.6-0.7-5.4-0.8-8.2-0.1q-1.1 0.2-2.1 0.6c-6.8 2.4-6 7.4-5.9 8.1l0.1 0.4c0.1 0.6 1.5 7.3 13.4 8.1 4.2 0.2 9.4-1.6 14.9-4.9zm34.7-54.9c-2.1-5.9-5.4-9.1-10.2-9.9-3.5-0.6-6.5 0.4-6.5 0.4l-0.2 0.1q0 0-0.1 0c-0.6 0.2-4.9 1.8-6.9 5.9-1.5 3.1-1.4 7.1 0.3 11.9 1.9 5.4 8.8 10.6 18.5 14.6 5-9.2 7-17.7 5.1-23zm57.8 8.4l-0.2-0.2v-0.1c-0.7-1.3-3.9-5.5-11.6-1.6-2.6 1.2-4.7 3-6.3 5.2-2.6 3.7-3.5 8.6-2.5 13.4l0.8 3.8c6.4-0.9 11.5-2.8 14.6-5.6 8.7-8.2 5.6-14.3 5.2-14.9z"/>
				</g>
			</g>
		</g>
		<text id="Quizz night
" style="transform: matrix(2,0,0,2,236.087,599.369)" >
			<tspan x="16.4" y="43.2" class="t11">Quizz </tspan>
			<tspan x="17.4" y="105" class="t11">night
</tspan>
		</text>
	</g>
</svg>