<svg version="1.2" xmlns="http://www.w3.org/2000/svg" viewBox="0 0 1500 1000" width="1500" height="1000">
	<title>35294599_8292848-ai</title>
	<style>
		.s0 { fill: #e6e6e6 } 
		.s1 { fill: #f0f0f0 } 
		.s2 { fill: #ffffff } 
		.s3 { fill: #ebebeb } 
		.s4 { fill: #e0e0e0 } 
		.s5 { fill: #f5f5f5 } 
		.s6 { fill: #407bff } 
		.s7 { fill: #263238 } 
		.s8 { opacity: .2;fill: #000000 } 
		.s9 { fill: none;stroke: #407bff;stroke-linecap: round;stroke-linejoin: round } 
		.s10 { fill: #eec1bb } 
		.s11 { opacity: .2;fill: none;stroke: #000000;stroke-linecap: round;stroke-linejoin: round } 
		.s12 { fill: #d4827d } 
		.s13 { fill: none;stroke: #263238;stroke-linecap: round;stroke-linejoin: round } 
		.s14 { opacity: .3;fill: #000000 } 
		.s15 { fill: #000000 } 
		.s16 { fill: #dc5753 } 
		.s17 { opacity: .5;fill: #ffffff } 
		.s18 { opacity: .8;fill: #ffffff } 
		.s19 { opacity: .4;fill: #000000 } 
		.s20 { fill: #e9b376 } 
		.s21 { opacity: .7;fill: #ffffff } 
		.s22 { opacity: .3;fill: #ffffff } 
		.s23 { fill: #d58745 } 
		.s24 { fill: none;stroke: #263238;stroke-linecap: round;stroke-linejoin: round;stroke-width: 1.5 } 
		.s25 { fill: #b97964 } 
		.s26 { fill: #a24e3f } 
	</style>
	<g id="Background complete">
		<g id="&lt;Group&gt;">
			<path id="&lt;Path&gt;" class="s0" d="m1249.1 344.4h-113.5v-214h113.5z"/>
			<path id="&lt;Path&gt;" class="s1" d="m1243.6 344.4h-133.4v-214h133.4z"/>
			<path id="&lt;Path&gt;" class="s2" d="m1223.2 149.4v176h-92.7v-176z"/>
			<path id="&lt;Path&gt;" class="s3" d="m1196 270.3h-36v-68.4h36z"/>
		</g>
		<g id="&lt;Group&gt;">
			<path id="&lt;Path&gt;" class="s0" d="m361 344.4h-113.5v-214h113.5z"/>
			<path id="&lt;Path&gt;" class="s1" d="m355.5 344.4h-133.4v-214h133.4z"/>
			<path id="&lt;Path&gt;" class="s2" d="m335.1 149.4v176h-92.7v-176z"/>
			<path id="&lt;Path&gt;" class="s3" d="m307.9 270.3h-36v-68.4h36z"/>
		</g>
		<g id="&lt;Group&gt;">
			<g id="&lt;Group&gt;">
				<g id="&lt;Group&gt;">
					<g id="&lt;Group&gt;">
						<g id="&lt;Group&gt;">
							<g id="&lt;Group&gt;">
								<path id="&lt;Compound Path&gt;" fill-rule="evenodd" class="s4" d="m1347.5 644.7h-361.5c-6.5 0-11.7-5.3-11.7-11.7v-526.6c0-6.5 5.2-11.7 11.7-11.7h361.5c6.4 0 11.7 5.2 11.7 11.7v526.6c0 6.4-5.3 11.7-11.7 11.7zm-361.5-549.5c-6.2 0-11.2 5-11.2 11.2v526.6c0 6.1 5 11.2 11.2 11.2h361.5c6.2 0 11.2-5.1 11.2-11.2v-526.6c0-6.2-5-11.2-11.2-11.2z"/>
							</g>
						</g>
						<g id="&lt;Group&gt;">
							<g id="&lt;Group&gt;">
								<path id="&lt;Compound Path&gt;" fill-rule="evenodd" class="s4" d="m930.6 644.7h-361.5c-6.4 0-11.7-5.3-11.7-11.7v-526.6c0-6.5 5.3-11.7 11.7-11.7h361.5c6.5 0 11.7 5.2 11.7 11.7v526.6c0 6.4-5.2 11.7-11.7 11.7zm-361.5-549.5c-6.2 0-11.2 5-11.2 11.2v526.6c0 6.1 5 11.2 11.2 11.2h361.5c6.2 0 11.2-5.1 11.2-11.2v-526.6c0-6.2-5-11.2-11.2-11.2z"/>
							</g>
						</g>
					</g>
					<g id="&lt;Group&gt;">
						<g id="&lt;Group&gt;">
							<g id="&lt;Group&gt;">
								<path id="&lt;Compound Path&gt;" fill-rule="evenodd" class="s4" d="m514 644.7h-361.5c-6.4 0-11.7-5.3-11.7-11.7v-526.6c0-6.5 5.3-11.7 11.7-11.7h361.5c6.5 0 11.7 5.2 11.7 11.7v526.6c0 6.4-5.2 11.7-11.7 11.7zm-361.5-549.5c-6.2 0-11.2 5-11.2 11.2v526.6c0 6.1 5 11.2 11.2 11.2h361.5c6.2 0 11.2-5.1 11.2-11.2v-526.6c0-6.2-5-11.2-11.2-11.2z"/>
							</g>
						</g>
					</g>
				</g>
				<g id="&lt;Group&gt;">
					<g id="&lt;Group&gt;">
						<path id="&lt;Path&gt;" class="s4" d="m1500 767.1h-1500v-0.3h1500z"/>
					</g>
				</g>
			</g>
			<g id="&lt;Group&gt;">
				<path id="&lt;Path&gt;" class="s3" d="m1307.3 825.6h111.4v0.8h-111.4z"/>
				<path id="&lt;Path&gt;" class="s3" d="m990.1 834.7h29.2v0.8h-29.2z"/>
				<path id="&lt;Path&gt;" class="s3" d="m81.3 800h145.3v0.8h-145.3z"/>
				<path id="&lt;Path&gt;" class="s3" d="m256.6 800h21.3v0.8h-21.3z"/>
				<path id="&lt;Path&gt;" class="s3" d="m347.2 814.2h315.2v0.8h-315.2z"/>
			</g>
		</g>
		<path id="&lt;Compound Path&gt;" fill-rule="evenodd" class="s3" d="m468.2 211.8l18.8-18.8 10.7 8.8c7.6-5 16-8.4 24.6-10.2l1.3-13.8h26.7l1.3 13.8c8.6 1.8 17 5.2 24.7 10.2l10.6-8.8 18.9 18.8-8.8 10.7c5 7.6 8.4 16 10.1 24.6l13.8 1.3v26.7l-13.8 1.3c-1.7 8.7-5.1 17.1-10.1 24.7l8.8 10.6-18.9 18.9-10.6-8.8c-7.7 5-16.1 8.4-24.7 10.2l-1.3 13.7h-26.7l-1.3-13.7c-8.6-1.8-17-5.2-24.6-10.2l-10.7 8.8-18.8-18.9 8.8-10.6c-5.1-7.6-8.4-16-10.2-24.7l-13.8-1.3v-26.7l13.8-1.3c1.8-8.6 5.1-17 10.2-24.6zm43.2 24.4c-14.1 14.1-14.1 36.9 0 51 14.1 14.2 37 14.2 51.1 0 14.1-14.1 14.1-36.9 0-51-14.1-14.1-37-14.1-51.1 0z"/>
		<path id="&lt;Compound Path&gt;" fill-rule="evenodd" class="s3" d="m524.6 539l9.5-9.4 5.3 4.4c3.8-2.5 8-4.2 12.3-5.1l0.6-6.9h13.4l0.6 6.9c4.3 0.9 8.5 2.6 12.4 5.1l5.3-4.4 9.4 9.4-4.4 5.3c2.5 3.8 4.2 8 5.1 12.3l6.9 0.7v13.3l-6.9 0.7c-0.9 4.3-2.6 8.5-5.1 12.3l4.4 5.3-9.4 9.4-5.3-4.4c-3.9 2.5-8.1 4.2-12.4 5.1l-0.6 6.9h-13.4l-0.6-6.9c-4.3-0.9-8.5-2.6-12.3-5.1l-5.3 4.4-9.5-9.4 4.4-5.3c-2.5-3.8-4.2-8-5.1-12.3l-6.9-0.7v-13.3l6.9-0.7c0.9-4.3 2.6-8.5 5.1-12.3zm21.6 12.2c-7 7-7 18.5 0 25.5 7.1 7.1 18.5 7.1 25.6 0 7-7 7-18.5 0-25.5-7.1-7-18.5-7-25.6 0z"/>
		<path id="&lt;Compound Path&gt;" fill-rule="evenodd" class="s3" d="m142 396.7l14.9-14.9 8.4 7c6-4 12.6-6.6 19.4-8.1l1.1-10.8h21l1 10.8c6.9 1.5 13.5 4.1 19.5 8.1l8.4-7 14.9 14.9-6.9 8.4c3.9 6.1 6.6 12.7 8 19.5l10.9 1v21.1l-10.9 1c-1.4 6.8-4.1 13.5-8 19.5l6.9 8.4-14.9 14.9-8.4-7c-6 4-12.6 6.6-19.5 8.1l-1 10.8h-21l-1.1-10.8c-6.8-1.5-13.4-4.1-19.4-8.1l-8.4 7-14.9-14.9 6.9-8.4c-3.9-6-6.6-12.7-8-19.5l-10.9-1v-21.1l10.9-1c1.4-6.8 4.1-13.5 8-19.5zm34.2 19.3c-11.2 11.1-11.2 29.2 0 40.3 11.1 11.1 29.2 11.1 40.3 0 11.1-11.1 11.1-29.2 0-40.3-11.1-11.2-29.2-11.2-40.3 0z"/>
		<path id="&lt;Compound Path&gt;" fill-rule="evenodd" class="s3" d="m1290.5 358.2l7-7 3.9 3.2c2.8-1.8 5.9-3.1 9.1-3.7l0.5-5.1h9.9l0.5 5.1c3.2 0.6 6.2 1.9 9.1 3.7l3.9-3.2 7 7-3.3 3.9c1.9 2.8 3.1 5.9 3.8 9.1l5.1 0.5v9.8l-5.1 0.5c-0.7 3.2-1.9 6.3-3.8 9.1l3.3 4-7 6.9-3.9-3.2c-2.9 1.8-5.9 3.1-9.1 3.7l-0.5 5.1h-9.9l-0.5-5.1c-3.2-0.6-6.3-1.9-9.1-3.7l-3.9 3.2-7-6.9 3.3-4c-1.9-2.8-3.1-5.9-3.8-9.1l-5.1-0.5v-9.8l5.1-0.5c0.7-3.2 1.9-6.3 3.8-9.1zm16 9c-5.2 5.2-5.2 13.7 0 18.9 5.2 5.2 13.6 5.2 18.8 0 5.2-5.2 5.2-13.7 0-18.9-5.2-5.2-13.6-5.2-18.8 0z"/>
		<path id="&lt;Compound Path&gt;" fill-rule="evenodd" class="s5" d="m914.6 234.9l7-7 3.9 3.3c2.8-1.9 5.9-3.1 9.1-3.8l0.5-5.1h9.9l0.5 5.1c3.2 0.7 6.2 1.9 9.1 3.8l3.9-3.3 7 7-3.3 3.9c1.9 2.8 3.1 5.9 3.8 9.1l5.1 0.5v9.9l-5.1 0.4c-0.7 3.2-1.9 6.3-3.8 9.1l3.3 4-7 6.9-3.9-3.2c-2.8 1.8-5.9 3.1-9.1 3.8l-0.5 5h-9.9l-0.5-5c-3.2-0.7-6.3-2-9.1-3.8l-3.9 3.2-7-6.9 3.3-4c-1.9-2.8-3.1-5.9-3.8-9.1l-5.1-0.4v-9.9l5.1-0.5c0.7-3.2 1.9-6.3 3.8-9.1zm16 9c-5.2 5.2-5.2 13.7 0 18.9 5.2 5.2 13.6 5.2 18.8 0 5.2-5.2 5.2-13.7 0-18.9-5.2-5.2-13.6-5.2-18.8 0z"/>
		<path id="&lt;Compound Path&gt;" fill-rule="evenodd" class="s5" d="m254.9 517.8l7-7 3.9 3.3c2.8-1.9 5.9-3.1 9.1-3.8l0.5-5.1h9.8l0.5 5.1c3.2 0.7 6.3 1.9 9.1 3.8l4-3.3 6.9 7-3.2 3.9c1.8 2.8 3.1 5.9 3.8 9.1l5 0.5v9.9l-5 0.5c-0.7 3.2-2 6.3-3.8 9.1l3.2 3.9-6.9 7-4-3.3c-2.8 1.9-5.9 3.1-9.1 3.8l-0.5 5.1h-9.8l-0.5-5.1c-3.2-0.7-6.3-1.9-9.1-3.8l-3.9 3.3-7-7 3.3-3.9c-1.9-2.8-3.1-5.9-3.8-9.1l-5.1-0.5v-9.9l5.1-0.5c0.7-3.2 1.9-6.3 3.8-9.1zm15.9 9c-5.2 5.3-5.2 13.7 0 18.9 5.2 5.2 13.7 5.2 18.9 0 5.2-5.2 5.2-13.6 0-18.9-5.2-5.2-13.7-5.2-18.9 0z"/>
		<path id="&lt;Compound Path&gt;" fill-rule="evenodd" class="s3" d="m1144.4 395.1l12-12 6.7 5.6c4.9-3.2 10.2-5.3 15.7-6.5l0.8-8.7h17l0.8 8.7c5.5 1.2 10.8 3.3 15.6 6.5l6.8-5.6 12 12-5.6 6.7c3.2 4.9 5.3 10.2 6.5 15.7l8.7 0.8v17l-8.7 0.8c-1.2 5.5-3.3 10.8-6.5 15.7l5.6 6.7-12 12-6.8-5.6c-4.8 3.2-10.1 5.3-15.6 6.5l-0.8 8.7h-17l-0.8-8.7c-5.5-1.2-10.8-3.3-15.7-6.5l-6.7 5.6-12-12 5.6-6.7c-3.2-4.9-5.3-10.2-6.5-15.7l-8.7-0.8v-17l8.7-0.8c1.2-5.5 3.3-10.8 6.5-15.7zm27.5 15.5c-9 9-9 23.5 0 32.5 8.9 8.9 23.4 8.9 32.4 0 9-9 8.9-23.5 0-32.5-9-8.9-23.5-8.9-32.4 0z"/>
		<path id="&lt;Compound Path&gt;" fill-rule="evenodd" class="s3" d="m807.7 490l12-12 6.8 5.6c4.9-3.2 10.3-5.4 15.8-6.5l0.8-8.8h17.1l0.8 8.8c5.6 1.1 10.9 3.3 15.8 6.5l6.8-5.6 12.1 12-5.6 6.8c3.2 4.9 5.3 10.3 6.5 15.8l8.8 0.9v17l-8.8 0.9c-1.2 5.5-3.3 10.9-6.5 15.7l5.6 6.8-12.1 12.1-6.8-5.6c-4.9 3.2-10.2 5.4-15.8 6.5l-0.8 8.8h-17.1l-0.8-8.8c-5.5-1.1-10.9-3.3-15.8-6.5l-6.8 5.6-12-12.1 5.6-6.8c-3.2-4.8-5.4-10.2-6.5-15.7l-8.8-0.9v-17l8.8-0.9c1.1-5.5 3.3-10.9 6.5-15.8zm27.7 15.6c-9.1 9.1-9.1 23.7 0 32.7 9 9.1 23.6 9.1 32.7 0 9-9 9-23.6 0-32.7-9.1-9-23.7-9-32.7 0z"/>
		<path id="&lt;Compound Path&gt;" fill-rule="evenodd" class="s3" d="m853.9 646.4l20.2-20.3 11.4 9.4c8.2-5.3 17.3-9 26.5-10.9l1.4-14.8h28.7l1.4 14.8c9.3 1.9 18.3 5.6 26.5 10.9l11.4-9.4 20.2 20.3-9.4 11.4c5.4 8.2 9 17.2 10.9 26.5l14.8 1.4v28.6l-14.8 1.4c-1.9 9.3-5.5 18.3-10.9 26.5l9.4 11.4-20.2 20.3-11.4-9.5c-8.2 5.4-17.2 9-26.5 11l-1.4 14.7h-28.7l-1.4-14.8c-9.2-1.9-18.3-5.5-26.5-10.9l-11.4 9.5-20.2-20.3 9.4-11.4c-5.4-8.2-9-17.2-10.9-26.5l-14.8-1.4v-28.6l14.8-1.4c1.9-9.3 5.5-18.3 10.9-26.5zm46.5 26.2c-15.2 15.1-15.2 39.7 0 54.8 15.1 15.2 39.7 15.2 54.8 0 15.2-15.1 15.2-39.7 0-54.8-15.1-15.2-39.7-15.2-54.8 0z"/>
	</g>
	<g id="Shadow">
		<g id="&lt;Group&gt;">
			<g id="&lt;Group&gt;">
				<path id="&lt;Path&gt;" class="s5" d="m1401 896.8c0 6.8-282.5 12.3-631 12.3-348.5 0-631-5.5-631-12.3 0-6.8 282.5-12.3 631-12.3 348.5 0 631 5.5 631 12.3z"/>
			</g>
		</g>
	</g>
	<g id="Plant">
		<g id="&lt;Group&gt;">
			<g id="&lt;Group&gt;">
				<g id="&lt;Group&gt;">
					<path id="&lt;Path&gt;" class="s6" d="m234.2 548.3c-36.5 42.7-47.2 105.8-26.7 158.1 22.7-20.3 38.7-51.2 39.7-78.3 1.1-27-6-53.6-13-79.8z"/>
				</g>
				<g id="&lt;Group&gt;">
					<path id="&lt;Path&gt;" class="s6" d="m227.8 711.3c-12.4 19-18.3 42.1-16.6 64.6 19.7-6.8 37.1-29.1 47.5-47.2 10.5-18.1 16.3-38.4 21.6-58.6-21.4 7.5-40.1 22.3-52.5 41.2z"/>
				</g>
				<g id="&lt;Group&gt;">
					<g id="&lt;Group&gt;">
						<path id="&lt;Path&gt;" class="s7" d="m223.2 622.8c-14.6 52.7-22.1 107.3-22 161.9q0 23.4 1.8 46.6c0.1 1 1.6 1 1.5 0-4.2-54.5-1.1-109.5 9.5-163.2q4.5-22.6 10.7-44.9c0.3-0.9-1.2-1.3-1.5-0.4z"/>
					</g>
				</g>
				<g id="&lt;Group&gt;">
					<g id="&lt;Group&gt;">
						<path id="&lt;Path&gt;" class="s7" d="m203.4 793.8c15-35.6 34.7-69 57.4-100.2 0.6-0.8-0.7-1.6-1.3-0.8-17.8 24.4-33.8 50.2-47 77.4q-5.6 11.4-10.5 23.2c-0.4 0.9 1.1 1.3 1.4 0.4z"/>
					</g>
				</g>
				<g id="&lt;Group&gt;">
					<path id="&lt;Path&gt;" class="s6" d="m182.2 740.9c10.3 15.8 15.3 35 13.8 53.9-16.4-5.8-30.9-24.3-39.6-39.4-8.7-15.1-13.5-32-17.9-48.9 17.8 6.3 33.4 18.6 43.7 34.4z"/>
				</g>
				<g id="&lt;Group&gt;">
					<g id="&lt;Group&gt;">
						<path id="&lt;Path&gt;" class="s7" d="m203 807.2c-12.3-29.2-28.5-56.3-47.1-81.8-0.6-0.8-1.9-0.1-1.3 0.7 18.5 25.5 34.7 52.4 47 81.5 0.3 0.9 1.8 0.5 1.4-0.4z"/>
					</g>
				</g>
				<g id="&lt;Group&gt;">
					<g id="&lt;Group&gt;">
						<path id="&lt;Path&gt;" class="s7" d="m203.6 816.9c23.2-23.8 46.9-47.2 70.1-71.1 0.6-0.7-0.4-1.7-1.1-1.1-23.2 23.9-46.9 47.3-70.1 71.2-0.7 0.7 0.4 1.7 1.1 1z"/>
					</g>
				</g>
				<g id="&lt;Group&gt;">
					<path id="&lt;Path&gt;" class="s6" d="m274.5 734.8c-20.1 19.5-38.4 40.7-54.7 63.5h3.7c15.3-0.7 30.2-8.3 39.8-20.2 9.6-12 13.8-28.1 11.2-43.3z"/>
				</g>
				<g id="&lt;Group&gt;">
					<g id="&lt;Group&gt;">
						<g id="&lt;Group&gt;">
							<path id="&lt;Path&gt;" class="s7" d="m179.3 688.5q12.9 21.3 24.4 43.3c0.4 0.9 1.7 0.1 1.3-0.7q-11.5-22.1-24.4-43.3c-0.6-0.8-1.8-0.1-1.3 0.7z"/>
						</g>
					</g>
					<g id="&lt;Group&gt;">
						<path id="&lt;Path&gt;" class="s6" d="m158.4 617.2c-3.3 14.8-6.6 34.1-6.6 49.5 0 15.5 4.7 30.5 13.5 40.9 8.7 10.3 26.4 14.9 33.6 8.9z"/>
					</g>
				</g>
			</g>
			<path id="&lt;Path&gt;" class="s7" d="m245.9 840.1h-87.9v-16.3h87.9z"/>
			<path id="&lt;Path&gt;" class="s7" d="m231.7 898.2h-54.6l-10-61.8h72.4z"/>
			<path id="&lt;Path&gt;" class="s8" d="m167.8 840.4h71.2l-0.9 7h-69.2z"/>
		</g>
	</g>
	<g id="Speech Bubble 2">
		<g id="&lt;Group&gt;">
			<g id="&lt;Group&gt;">
				<g id="&lt;Group&gt;">
					<path id="&lt;Path&gt;" class="s6" d="m1270.4 471.7c22.2-12.7 50.5-5 63.2 17.2 12.7 22.2 5 50.5-17.3 63.2-17.1 9.8-37.9 7.4-52.3-4.4l-13.7 2.2 3.2-14.4c-0.1-0.2-0.2-0.4-0.4-0.6-12.7-22.2-5-50.5 17.3-63.2z"/>
				</g>
				<path id="&lt;Path&gt;" class="s9" d="m1278.6 461.4c-14.8 2.8-27.8 13.6-33.4 27.6"/>
				<path id="&lt;Path&gt;" class="s9" d="m1242.9 495.5c-1 2.1-1.6 4.4-1.7 6.7"/>
			</g>
			<g id="&lt;Group&gt;">
				<path id="&lt;Path&gt;" class="s2" d="m1287.9 529.4l-19.5-17.9 6.2-6.8 13.1 12 21.8-21.3 6.4 6.6z"/>
			</g>
		</g>
	</g>
	<g id="Speech Bubble 1">
		<g id="&lt;Group&gt;">
			<g id="&lt;Group&gt;">
				<g id="&lt;Group&gt;">
					<g id="&lt;Group&gt;">
						<path id="&lt;Path&gt;" class="s6" d="m793.2 175.8c23.3-13.5 53.2-5.6 66.8 17.7 13.5 23.4 5.6 53.3-17.7 66.8-18.1 10.5-40 8.1-55.3-4.2l-14.4 2.3 3.3-15.1c-0.1-0.2-0.3-0.4-0.4-0.7-13.6-23.3-5.7-53.2 17.7-66.8z"/>
					</g>
					<path id="&lt;Path&gt;" class="s9" d="m860 182.3c-9.4-12.8-25.7-20.2-41.5-19"/>
					<path id="&lt;Path&gt;" class="s9" d="m811.2 164c-2.4 0-4.8 0.5-7 1.5"/>
				</g>
			</g>
			<g id="&lt;Group&gt;">
				<path id="&lt;Path&gt;" class="s2" d="m838.9 211h-45.7v11.5h45.7z"/>
				<path id="&lt;Path&gt;" class="s2" d="m834.7 228.7v-23.1l11.2 11.5z"/>
			</g>
		</g>
	</g>
	<g id="Character 3">
		<g id="&lt;Group&gt;">
			<g id="&lt;Group&gt;">
				<path id="&lt;Path&gt;" class="s10" d="m1092.2 466.1c0 0-1.3 20.9-11.5 57.6-6.4 22.7-14.2 45-23.3 66.7-5.1 12.3-11 25.4-17.7 39.1-3 6.2-6.3 12.6-9.7 19.1-3.9 111.1-66.2 224-66.2 224-3.5 1.8-15.5-0.2-15.5-3.7 9.3-14.6 27.4-157 39.2-224.5 0.7-9.2 1.7-18.9 3-29.2 3.5-27.3 8.5-56.9 13.5-83 7.8-41.1 15.1-73.3 15.1-73.3l20.6 2z"/>
				<path id="&lt;Path&gt;" class="s7" d="m963.1 896.6h-3.5l-1-4.5-11.9 5.4h-30.1c0 0-4.8-4.8 9.6-8.6q1-0.3 2-0.8c7.6-3.5 18.5-15.6 18.5-15.6h16.5q0.7 1.1 1.3 2.4c1.8 3.5 4.9 11.2-1.4 21.7z"/>
				<path id="&lt;Path&gt;" class="s10" d="m964.5 874.8c-2.1-2.4-12.1 8.2-19.3 11.9-6.5 3.2-13.8 4.6-17 1.4 7.6-3.6 21.2-20.4 21.2-20.4l11.7 1.1c0 0 2.7 4.4 3.4 6z"/>
			</g>
			<g id="&lt;Group&gt;">
				<path id="&lt;Path&gt;" class="s10" d="m1116.7 619.9q-2.5 17.9-6.4 38.4c22.2 74.3-23.6 219.3-23.6 219.3-7.7 1.5-14.6 0.5-18.1-2.1 8.7-43.7 2.5-157.3-4.2-225.2-0.6-6.1-1.4-12.9-2.2-20.1-1.4-12.3-3-25.8-4.8-39.8-3-23.3-6.3-47.9-9.3-69.6-3.6-26.4-6.8-48.6-8.5-59.8-0.6-4.9-1.1-7.7-1.1-7.7l64.3 6.9c0 0 16.4 18.4 18.9 75.6 0.9 28.1-0.8 56.3-5 84.1z"/>
				<path id="&lt;Path&gt;" class="s7" d="m1088.3 896.6h-3.6l-1-4.5-11.8 5.4h-30.1c0 0-4.8-4.8 9.6-8.6q1-0.3 2-0.8c7.6-3.5 18.5-15.6 18.5-15.6h16.5q0.7 1.1 1.3 2.4c1.8 3.5 4.9 11.2-1.4 21.7z"/>
				<path id="&lt;Path&gt;" class="s10" d="m1089.7 874.8c-2.2-2.4-12.1 8.2-19.3 11.9-6.5 3.2-13.8 4.6-17 1.4 7.6-3.6 19.6-19.3 19.6-19.3h13.3c0 0 2.6 4.4 3.4 6z"/>
			</g>
			<g id="&lt;Group&gt;">
				<g id="&lt;Group&gt;">
					<path id="&lt;Path&gt;" class="s7" d="m1133.5 304.6c-3.3-2.8-8.6-1.7-13.1-2.2-6.9-0.9-12.5-5.8-15.4-11.5-3-5.6-3.9-12-4.9-18.1-1.1-6.2-2.4-12.5-6.2-17.8-3.8-5.2-12.9-11.7-19.6-7.7l-8.8 13.7c5.3 16.1 9.6 32.5 12.9 49 1.5 7.4 3 15.2 8.3 20.9 5.3 5.7 13.6 8.4 21.8 9 4.1 0.2 8.4 0 12.1-1.6 3.8-1.5 7-4.5 7.9-8.1 0.8-3.7-1.2-7.9-5-9.3 3.7-1.5 7.5-3.2 10-6.2 2.5-2.9 3-7.5 0-10.1z"/>
				</g>
				<g id="&lt;Group&gt;">
					<path id="&lt;Path&gt;" class="s7" d="m1006.5 236.3c-10.1 9.8-11.4 21.4-9.8 29.4 3.4 10.6 8.6 17.6 13.4 27.6l17.2-68.6c-6.5 2.5-9.8 1.7-20.8 11.6z"/>
					<path id="&lt;Path&gt;" class="s7" d="m1037.1 224.3c19.8 0.4 39.7 16.9 41.2 33 1.6 16-14.2 36.7-17.2 38l-9.4 3.5c0 0 10.4-23.9 6.1-30.3-4.3-6.4-7.4-6.5-7.4-6.5z"/>
					<path id="&lt;Path&gt;" class="s7" d="m1020.3 228.1c10.3-7.3 22.5-3.1 29.7 0 8.1 4.7 13.8 12.6 15.7 21.8 1.6 8.6 3.5 19.1-0.9 24.5-2.5 3.2-6.1 5.1-10.1 5.4l-49.9-31.6c3.4-7.9 8.7-14.8 15.5-20.1z"/>
					<g id="&lt;Group&gt;">
						<path id="&lt;Path&gt;" class="s10" d="m1040.4 345c3.9 2.8 6.7 1.1 10.8-1.5 24.3-14.1 14.3-25.3 14.3-25.3-6-4.9-7.5-11.8-7.6-22.7q0-0.5-0.1-1c-0.3-1.4-1-2.7-2-3.6-2.8-2.8-7.3-2.9-10.1-0.1q0 0 0 0l-11.1 5.5q0 0.2 0 0.5c1.1 5.8 2 10.2 2.6 13.8 0 0.4 0.2 0.9 0.2 1.3 0 0.4 0.2 0.9 0.2 1.3 0.6 4.9-6.3 13.5-9.3 15.8-1.8 1.5-1.1 6.6 12.1 16z"/>
						<path id="&lt;Path&gt;" class="s8" d="m1034.7 296.1q0 0.3 0 0.5c1 5.8 2 10.3 2.6 13.8q0.1 0.7 0.2 1.3 0.1 0.7 0 1.4c8.5-4 15.5-10.5 20.1-18.7-0.3-1.4-1-2.6-1.9-3.7-2.8-2.8-7.3-2.8-10.1-0.1z"/>
						<path id="&lt;Path&gt;" class="s10" d="m1059.4 253.5c3.2 20.1 5 28.5-2.5 41-11.3 18.9-36 18.9-45.1 0.3-8-16.7-12-46.6 5.2-59.2 17.1-12.6 39.2-2.1 42.4 17.9z"/>
						<path id="&lt;Path&gt;" class="s10" d="m1071.3 269c-1.2 4.7-4.3 8.3-7.5 10.1-4.9 2.7-9.8-5-9.5-10.7 0.3-5.1 4.6-9.6 10-10 5.3-0.3 8.5 5.3 7 10.6z"/>
						<path id="&lt;Path&gt;" class="s11" d="m1060 271c-0.3-1.9 0.1-4 1.1-5.6 1.1-1.6 2.8-2.8 4.7-3.2"/>
						<g id="&lt;Group&gt;">
							<g id="&lt;Group&gt;">
								<path id="&lt;Path&gt;" class="s7" d="m1035 266.9c0.4 2.1-0.2 4.1-1.5 4.5-1.3 0.4-2.7-1-3.2-3.2-0.5-2.1 0.2-4.1 1.5-4.5 1.3-0.3 2.7 1.1 3.2 3.2z"/>
								<path id="&lt;Path&gt;" class="s7" d="m1015.5 272.1c0.5 2-0.2 4-1.5 4.4-1.3 0.4-2.7-1-3.1-3.1-0.5-2 0.2-4 1.5-4.3 1.2-0.4 2.7 0.9 3.1 3z"/>
								<path id="&lt;Path&gt;" class="s7" d="m1037.1 258.5c-0.2 0.1-0.5 0.1-0.7 0-3.8-2-7-0.1-7-0.1-0.5 0.3-1.1 0.1-1.4-0.3-0.2-0.5 0-1.2 0.4-1.5 0.2-0.1 4.2-2.5 8.9 0 0.4 0.3 0.6 0.9 0.4 1.4q-0.2 0.4-0.6 0.5z"/>
								<path id="&lt;Path&gt;" class="s7" d="m1006.3 264q-0.4-0.1-0.6-0.3c-0.3-0.4-0.2-1.1 0.2-1.4 3.8-3.8 7.6-2.8 7.8-2.7 0.5 0.1 0.7 0.6 0.6 1.2-0.2 0.5-0.7 0.8-1.1 0.7-0.2-0.1-3.2-0.8-6.2 2.2q-0.4 0.3-0.7 0.3z"/>
								<path id="&lt;Path&gt;" class="s12" d="m1020.5 269.7c0 0-1 8.2-3.3 13.7-0.4 1 0.3 2.1 1.4 2.2 2.6 0.2 5.3-1.4 5.3-1.4z"/>
							</g>
							<path id="&lt;Path&gt;" class="s7" d="m1032.6 263.6l-4.9 0.2c0 0 3.4 2.7 4.9-0.2z"/>
							<path id="&lt;Path&gt;" class="s7" d="m1012.8 269l-4.8 0.1c0 0 3.4 2.7 4.8-0.1z"/>
						</g>
					</g>
					<path id="&lt;Path&gt;" class="s7" d="m1053.4 259.7c0 0-13.8-11-16.2-22.1 0 0-42.4-1.6-32.2 32.9 0 0-14.4-28.8 18-39.8 32.4-11.1 47.2 31.2 34.9 49.1-0.1-0.1 4-13.3-4.5-20.1z"/>
					<path id="&lt;Path&gt;" class="s7" d="m1008.7 237.8c-3.7 5-5.6 11-5.6 17.2 0.8 4.3 7.3 6.4 7.3 6.4l5.5-10.8 1.5 8.3c11.6-3.4 17.3-10.9 19.7-20.7l-8.7-10.6c0 0-16.4 6.1-19.7 10.2z"/>
				</g>
				<path id="&lt;Path&gt;" class="s13" d="m1032.1 287.8c1.4 0.2 2.8-0.2 3.8-1.2 0.9-0.9 1.4-2.3 1.2-3.6"/>
				<path id="&lt;Path&gt;" class="s8" d="m1071.7 281.3c0 0 14.9-18.5 3.2-34.3 0 0 8.7 5.9 7 16.1-1.3 8.1-4.8 14.6-10.2 18.2z"/>
			</g>
			<path id="&lt;Path&gt;" class="s8" d="m1116.7 619.9c-17.6 5.9-36 9.4-54.5 10.3-1.4-12.3-3-25.8-4.8-39.8-5.1 12.3-10.9 25.4-17.7 39.1-17.1-1.6-33.8-6.4-49.1-14.3 3.4-27.2 8.5-56.9 13.5-82.9 6.8-4 14.1-7 21.8-8.9 7.3-1.7 14.8-2.6 22.3-2.7 11 0 21.9 1 32.6 3 14 2.6 27.6 6.7 40.8 12.1 0.9 28.1-0.8 56.3-4.9 84.1z"/>
			<path id="&lt;Path&gt;" class="s7" d="m1017.9 453.3h85.4l2.3 11c0 0 31.4 43.4 15.5 151.6 0 0-68.7 8-133.4-5.9 0 0 14.5-111.2 29.7-147.5z"/>
			<g id="&lt;Group&gt;">
				<path id="&lt;Path&gt;" class="s6" d="m1099 419.7l6 45.4-93.6-3.8c-0.2-9.7 8.5-35.6 7.5-42.7-2.9-8.7-17.2-21.9-21.1-32.5-4-14.7 4.4-55 7.1-56.3 3.4-1.5 7.5-1.4 10.1-2.5 9.9-2.3 32.5-10.4 42.6-11.7 2-0.2 3.9-0.5 5.9-0.7 0 0 38.3-1.9 40 13.7 0.1 0.9-9.2 41.7-4.5 91.1z"/>
				<path id="&lt;Path&gt;" class="s8" d="m1098.2 410.1l-0.7-12.5-14.2-38.6 11.1 45.5-35.2 12.3z"/>
				<path id="&lt;Path&gt;" class="s8" d="m1057.5 450.6c1.2-0.2 12.3-12.2 12.3-12.2l31.8 1.2-1.5-11.5c0.9-0.8-37.2 1-37.2 1l-5.4 11.8z"/>
				<path id="&lt;Path&gt;" class="s6" d="m1089 318.5c1.7 0.2 8.3-3.6 20.3 11.9 12 15.4 25.5 74.2 26.3 82.8 0.9 10.9-6.3 16.3-13.6 17.5-21.7 3.6-61.8 4.3-61.8 4.3v-18.5l40-9c0 0-22.7-54.7-19.1-68.8 3.6-14.1 7.9-20.2 7.9-20.2z"/>
			</g>
			<path id="&lt;Path&gt;" class="s10" d="m1071 314.8c-2.9 15.7-14.6 28.1-30.1 32-5.4 1.3-11.5-1.7-15.8-5.2-4.3-3.6-7.2-8.7-8.1-14.3 18.8-7.4 35.9-13.8 54-12.5z"/>
			<path id="&lt;Path&gt;" class="s8" d="m1100.2 407.5c0 0 6.5-0.4 9.3 3.1 0 0-1.7-6.8-10.2-5.3z"/>
		</g>
		<g id="&lt;Group&gt;">
			<g id="&lt;Group&gt;">
				<path id="&lt;Path&gt;" class="s6" d="m1047.2 526v-206h-205.7v82.3c3.7 1.4 15.9 2.4 19.6 1 6.5-2.5 2.2-9.9 8.5-12.9 9.3-4.3 20.8 1.8 25.6 10.8 3.8 7 4.5 10.6 4.2 16.7 0.3 6-0.4 9.7-4.2 16.7-4.8 9-16.3 15.1-25.6 10.7-6.3-2.9-1.2-10.2-7.7-12.6-3.7-1.4-16.7-0.7-20.4 0.8v92.5h92c0.1 2-0.1 4.1-0.8 6-2.5 6.5-9.4 10.3-12.3 16.6-4.4 9.2 1.8 20.8 10.8 25.6 6.9 3.8 10.6 4.5 16.6 4.1 6.1 0.4 9.7-0.3 16.7-4.1 9-4.8 15.2-16.4 10.8-25.6-2.9-6.3-9.9-10.1-12.3-16.6-0.7-1.9-0.9-4-0.8-6z"/>
			</g>
			<g id="&lt;Group&gt;">
				<g id="&lt;Group&gt;">
					<path id="&lt;Path&gt;" class="s6" d="m1057.5 526v-206h-205.8v82.3c3.7 1.4 7.8 1.8 11.5 0.4 6.5-2.4 10.4-9.3 16.6-12.3 9.3-4.3 20.8 1.8 25.7 10.8 3.7 7 4.4 10.6 4.1 16.7 0.3 6-0.4 9.7-4.1 16.7-4.9 9-16.4 15.1-25.7 10.7-6.2-2.9-10.1-9.8-16.6-12.2-3.7-1.4-7.8-1.1-11.5 0.4v92.5h92c0.1 2-0.1 4.1-0.8 6-2.4 6.5-9.4 10.3-12.3 16.6-4.4 9.2 1.8 20.8 10.8 25.6 7 3.8 10.6 4.5 16.7 4.1 6 0.4 9.6-0.3 16.6-4.1 9-4.8 15.2-16.4 10.8-25.6-2.9-6.3-9.8-10.1-12.3-16.6-0.7-1.9-0.9-4-0.8-6z"/>
				</g>
				<g id="&lt;Group&gt;" style="opacity: .3">
					<path id="&lt;Path&gt;" class="s2" d="m1057.5 526v-206h-205.8v82.3c3.7 1.4 7.8 1.8 11.5 0.4 6.5-2.4 10.4-9.3 16.6-12.3 9.3-4.3 20.8 1.8 25.7 10.8 3.7 7 4.4 10.6 4.1 16.7 0.3 6-0.4 9.7-4.1 16.7-4.9 9-16.4 15.1-25.7 10.7-6.2-2.9-10.1-9.8-16.6-12.2-3.7-1.4-7.8-1.1-11.5 0.4v92.5h92c0.1 2-0.1 4.1-0.8 6-2.4 6.5-9.4 10.3-12.3 16.6-4.4 9.2 1.8 20.8 10.8 25.6 7 3.8 10.6 4.5 16.7 4.1 6 0.4 9.6-0.3 16.6-4.1 9-4.8 15.2-16.4 10.8-25.6-2.9-6.3-9.8-10.1-12.3-16.6-0.7-1.9-0.9-4-0.8-6z"/>
				</g>
				<g id="&lt;Group&gt;">
					<g id="&lt;Group&gt;">
						<g id="&lt;Group&gt;">
							<path id="&lt;Path&gt;" class="s10" d="m1057.5 420.1c0 0-13.8 3.5-15.4 6.7-1.5 3.3 3.6 3 3.6 3 0 0-5.6 0.7-5.6 3.1-0.1 2.9 5.3 2.6 5.3 2.6 0 0-4.6 0.7-4.5 2.8 0.1 2.3 6.1 2.4 6.1 2.4 0 0-3.1 1.1-2.2 2.5 1 1.5 13.8 2 17.6-0.4 3.8-2.5 3.8-19 3.1-22.6-0.8-3.6-3.5-5.5-8-11z"/>
						</g>
						<g id="&lt;Group&gt;">
							<path id="&lt;Path&gt;" class="s8" d="m1045.7 430.1q0.1 0 0.1 0l9.7-1.5c0.1-0.1 0.2-0.2 0.2-0.4 0-0.1-0.2-0.2-0.3-0.2l-9.7 1.6c-0.1 0-0.2 0.1-0.2 0.3 0 0.1 0.1 0.2 0.2 0.2z"/>
						</g>
						<g id="&lt;Group&gt;">
							<path id="&lt;Path&gt;" class="s8" d="m1045.6 435.7q0 0 0.1 0l9.4-0.7c0.1 0 0.2-0.1 0.2-0.3q0-0.2-0.2-0.2l-9.5 0.7c-0.1 0-0.2 0.1-0.2 0.3 0 0.1 0.1 0.2 0.2 0.2z"/>
						</g>
						<g id="&lt;Group&gt;">
							<path id="&lt;Path&gt;" class="s8" d="m1047.4 440.9l7-0.3c0.2 0 0.3-0.2 0.3-0.3-0.1-0.2-0.2-0.3-0.3-0.3l-7 0.4c-0.2 0-0.3 0.1-0.3 0.3 0 0.1 0.2 0.2 0.3 0.2z"/>
						</g>
					</g>
				</g>
			</g>
			<g id="&lt;Group&gt;">
				<g id="&lt;Group&gt;">
					<g id="&lt;Group&gt;">
						<path id="&lt;Path&gt;" class="s10" d="m899.5 414.7c0 0 14.8 4.1 16.3 7.4 1.5 3.2-3.6 3-3.6 3 0 0 5.6 0.6 5.7 3 0.1 2.9-5.3 2.6-5.3 2.6 0 0 4.6 0.7 4.5 2.9-0.1 2.2-6.2 2.3-6.2 2.3 0 0 3.1 1.1 2.2 2.6-0.9 1.4-13.8 1.9-17.6-0.5-3.7-2.4-3.8-19-3-22.6 0.7-3.6 1-3 5.6-8.5l0.8 3.1q0.3 1.3 0.4 2.6z"/>
					</g>
					<g id="&lt;Group&gt;">
						<path id="&lt;Path&gt;" class="s8" d="m912.2 425.3q0 0 0 0l-9.7-1.5c-0.2 0-0.3-0.2-0.2-0.3 0-0.2 0.1-0.3 0.2-0.3l9.8 1.6c0.1 0 0.2 0.2 0.2 0.3-0.1 0.1-0.2 0.2-0.3 0.2z"/>
					</g>
					<g id="&lt;Group&gt;">
						<path id="&lt;Path&gt;" class="s8" d="m912.3 431q0 0 0 0l-9.5-0.8c-0.1 0-0.2-0.1-0.2-0.3q0.1-0.2 0.3-0.2l9.4 0.7c0.2 0 0.3 0.2 0.3 0.3 0 0.2-0.2 0.3-0.3 0.3z"/>
					</g>
					<g id="&lt;Group&gt;">
						<path id="&lt;Path&gt;" class="s8" d="m910.6 436.2l-7.1-0.4c-0.1 0-0.2-0.1-0.2-0.3 0-0.1 0.1-0.2 0.3-0.2l7 0.3c0.1 0 0.2 0.1 0.2 0.3 0 0.1-0.1 0.3-0.2 0.3z"/>
					</g>
				</g>
			</g>
		</g>
	</g>
	<g id="Character 2">
		<g id="&lt;Group&gt;">
			<g id="&lt;Group&gt;">
				<path id="&lt;Path&gt;" class="s10" d="m596.4 873.5l20.4 2 15.1-51.7-31.1-3.4z"/>
				<g id="&lt;Group&gt;">
					<path id="&lt;Path&gt;" class="s7" d="m619.7 866.5h-7.2c-1.7 0-3.2 0.8-4.2 2.2-4.2 5.7-7.4 3.5-11.9-1.9-2.9-0.3-3.7 3-4 3.9l-5.4 19.9c-0.5 1.6 0.5 3.3 2.1 3.8q0.5 0.1 0.9 0.1c8.9 0 13.1 0 24.1 0h33.7c9.2 0 11.1-9.2 7.3-10.1-17-3.7-29.1-8.8-34.3-13.7-1-0.9 0-1.5-1.1-4.2z"/>
					<path id="&lt;Compound Path&gt;" fill-rule="evenodd" class="s6" d="m630.6 873.3q-3.4-0.1-6.8-0.9c-0.2-0.1-0.3-0.3-0.3-0.5q0.1-0.2 0.3-0.3c1-0.5 10.1-4.7 12.4-3.1 0.4 0.2 0.7 0.7 0.6 1.3 0 0.9-0.5 1.8-1.2 2.3-1.5 0.9-3.3 1.3-5 1.2zm-5.4-1.5c2.7 0.5 7.7 1.2 9.8-0.4 0.5-0.4 0.8-1 0.9-1.7 0-0.2-0.1-0.4-0.3-0.5-1.2-0.9-6.6 1-10.4 2.6z"/>
					<path id="&lt;Compound Path&gt;" fill-rule="evenodd" class="s6" d="m623.9 872.4q-0.2 0-0.3 0c-0.1-0.1-0.2-0.3-0.1-0.4 0-0.4 2.1-9.4 7.1-8.8 1.3 0.2 1.6 0.7 1.7 1.2 0.3 2.4-5.5 6.9-8.2 8.1zm6.2-8.5c-3.1 0-5 5.2-5.6 7.3 3-1.6 7.2-5.3 6.9-6.8 0-0.1 0-0.4-0.9-0.5z"/>
					<path id="&lt;Path&gt;" class="s9" d="m624.8 872.1c-2.5 0.4-4.8 1.9-6.2 4"/>
					<path id="&lt;Path&gt;" class="s9" d="m629.3 875.5c-2.5 0.4-4.8 1.9-6.2 4"/>
					<path id="&lt;Path&gt;" class="s9" d="m635 878.4c-2.5 0.3-4.9 1.8-6.2 4"/>
				</g>
				<path id="&lt;Path&gt;" class="s14" d="m623.9 851.1l-1.8 6.4-24.1-3.7 0.4-5.2z"/>
			</g>
			<g id="&lt;Group&gt;">
				<path id="&lt;Path&gt;" class="s10" d="m715.3 873.5l20.4 2 15.1-51.7-31.1-3.4z"/>
				<g id="&lt;Group&gt;">
					<path id="&lt;Path&gt;" class="s7" d="m738.6 866.5h-7.3c-1.6 0-3.1 0.8-4.1 2.2-4.2 5.7-7.4 3.5-11.9-1.9-3-0.3-3.7 3-4 3.9l-5.4 19.9c-0.5 1.6 0.5 3.3 2.1 3.8q0.5 0.1 0.9 0.1c8.9 0 13.1 0 24.1 0h33.7c9.2 0 11.1-9.2 7.3-10.1-17-3.7-29.1-8.8-34.3-13.7-1-0.9 0-1.5-1.1-4.2z"/>
					<path id="&lt;Compound Path&gt;" fill-rule="evenodd" class="s6" d="m749.5 873.3q-3.5-0.1-6.8-0.9c-0.2-0.1-0.3-0.3-0.3-0.5q0.1-0.2 0.3-0.3c1-0.5 10.1-4.7 12.4-3.1 0.4 0.2 0.7 0.7 0.6 1.3 0 0.9-0.5 1.8-1.2 2.3-1.5 0.9-3.3 1.3-5 1.2zm-5.4-1.5c2.7 0.5 7.7 1.2 9.8-0.4 0.5-0.4 0.8-1 0.9-1.7 0-0.2-0.1-0.4-0.3-0.5-1.2-0.9-6.6 1-10.4 2.6z"/>
					<path id="&lt;Compound Path&gt;" fill-rule="evenodd" class="s6" d="m742.8 872.4q-0.2 0-0.3 0c-0.1-0.1-0.2-0.3-0.1-0.4 0-0.4 2.1-9.4 7.1-8.8 1.2 0.2 1.6 0.7 1.6 1.2 0.4 2.4-5.4 6.9-8.1 8.1zm6.2-8.5c-3.1 0-5 5.2-5.6 7.3 3-1.6 7.1-5.3 6.9-6.8 0-0.1 0-0.4-0.9-0.5z"/>
					<path id="&lt;Path&gt;" class="s9" d="m743.7 872.1c-2.5 0.4-4.8 1.9-6.2 4"/>
					<path id="&lt;Path&gt;" class="s9" d="m748.2 875.5c-2.5 0.4-4.8 1.9-6.2 4"/>
					<path id="&lt;Path&gt;" class="s9" d="m753.9 878.4c-2.5 0.3-4.9 1.8-6.2 4"/>
				</g>
				<path id="&lt;Path&gt;" class="s14" d="m742.8 851.1l-1.9 6.4-24-3.7 0.4-5.2z"/>
			</g>
			<g id="&lt;Group&gt;">
				<g id="&lt;Group&gt;">
					<g id="&lt;Group&gt;">
						<g id="&lt;Group&gt;">
							<g id="&lt;Group&gt;">
								<path id="&lt;Path&gt;" class="s6" d="m758.9 483.8c0 0 16.9 74.8 25 139.9 2.5 19.9 2.9 46.4-1.4 65.9l-32.6 162.2-41.1-4.1c6.5-69.9 15.4-156.2 18-192.9-9-43-28.3-95.1-47.2-146.9z"/>
							</g>
						</g>
					</g>
					<g id="&lt;Group&gt;" style="opacity: .2">
						<g id="&lt;Group&gt;">
							<g id="&lt;Group&gt;">
								<path id="&lt;Path&gt;" class="s15" d="m758.9 483.8c0 0 16.9 74.8 25 139.9 2.5 19.9 2.9 46.4-1.4 65.9l-32.6 162.2-41.1-4.1c6.5-69.9 15.4-156.2 18-192.9-9-43-28.3-95.1-47.2-146.9z"/>
							</g>
						</g>
					</g>
					<path id="&lt;Path&gt;" class="s6" d="m624 667.8c0.9-4 2.4-12.2 4.2-23.1q-0.1 0-0.1 0c1.3-14.3 3.8-80.8 8.3-123.2 3.5-27 10.4-45.3 17.3-54.3q0.6-0.6 1-1.2c1.2-1.4 1.9-2.2 1.9-2.2q2 0.5 3.9 0.9 0.7 0.1 1.5 0.3c49 10.3 92.2-2.6 92.2-2.6 4.6 11.1 7.9 34.9 11.2 59.6-5.1 5.6-27.6 12.9-53.5 17.8l-7.4 33.3c-3.8 20.7-8.8 40.9-13 59.2l-4.5 20q-0.4 1.9-0.7 3.9c-2.3 11.5-55.6 196.6-55.6 196.6l-34.8-2c0 0 15.5-128.2 28.1-183z"/>
					<path id="&lt;Path&gt;" class="s8" d="m624 667.8c0.9-4 2.4-12.2 4.2-23.1q-0.1 0-0.1 0c1.3-14.3 3.8-80.8 8.3-123.2 3.5-27 10.4-45.3 17.3-54.3q0.6-0.6 1-1.2c1.2-1.4 1.9-2.2 1.9-2.2q2 0.5 3.9 0.9 0.7 0.1 1.5 0.3c49 10.3 92.2-2.6 92.2-2.6 4.6 11.1 7.9 34.9 11.2 59.6-5.1 5.6-27.6 12.9-53.5 17.8l-7.4 33.3c-3.8 20.7-8.8 40.9-13 59.2l-4.5 20q-0.4 1.9-0.7 3.9c-2.3 11.5-55.6 196.6-55.6 196.6l-34.8-2c0 0 15.5-128.2 28.1-183z"/>
				</g>
				<path id="&lt;Path&gt;" class="s8" d="m704.1 576.2c-0.2 0.7 15.9-57.7 15.9-57.7 0 0 13.5 52.1-7.1 84.7z"/>
			</g>
			<g id="&lt;Group&gt;">
				<path id="&lt;Path&gt;" class="s10" d="m669.5 312.9c0 0 8.2 6.2 18.7 15.3 2.2 1.9 4.6 3.5 7.2 4.9 6.8 3.6 13.1 5.7 14.8 2.4q0.6-1.1 0.9-2.4c1.5-5.5 0.9-13.3-3.6-16.9-5.1-4-7.5-7.5-6.6-13 0.4-3.1 1.6-6.2 2.9-9.4l-4-4.6-20.9-21.1c0.5 14.1 1.6 37.1-9.4 44.8z"/>
				<path id="&lt;Path&gt;" class="s8" d="m700.7 304.4c-5.7-3.4-12-9.3-11.3-16 0.4-2.9 1-5.6 1.6-7.3l11.7 15.4c-1 2.5-1.3 4.2-2 7.9z"/>
				<path id="&lt;Path&gt;" class="s10" d="m673 245.5c2 21.5 2.4 30.6 13.4 41.8 16.7 16.9 42.3 11.2 46.7-10 3.9-19.1 0.1-51-21-60-20.7-8.9-41 6.8-39.1 28.2z"/>
				<path id="&lt;Path&gt;" class="s7" d="m699.7 252.3c0.1 2 1.4 3.7 2.8 3.7 1.4 0 2.4-1.6 2.3-3.6-0.1-2-1.3-3.7-2.7-3.7-1.4 0-2.5 1.6-2.4 3.6z"/>
				<path id="&lt;Path&gt;" class="s7" d="m721.9 252c0.1 1.9 1.4 3.5 2.8 3.6 1.4 0 2.4-1.6 2.3-3.5-0.1-1.9-1.3-3.5-2.7-3.6-1.4 0-2.5 1.6-2.4 3.5z"/>
				<path id="&lt;Path&gt;" class="s7" d="m696.3 244.6c0.3 0.1 0.6 0 0.8-0.2 3.3-3.1 7-2 7-2 0.6 0.2 1.1-0.1 1.3-0.7 0.1-0.6-0.3-1.2-0.8-1.3-0.2-0.1-4.9-1.4-9 2.4-0.4 0.3-0.4 1 0 1.5q0.3 0.3 0.7 0.3z"/>
				<path id="&lt;Path&gt;" class="s7" d="m728.8 243.6q0.4 0 0.7-0.2c0.5-0.3 0.6-0.9 0.3-1.4-3.2-5.1-8-5.4-8.2-5.4-0.5 0-1 0.4-1 1 0 0.6 0.5 1.1 1.1 1.1 0.2 0 3.9 0.3 6.4 4.4 0.2 0.2 0.4 0.4 0.7 0.5z"/>
				<path id="&lt;Path&gt;" class="s7" d="m682.2 259c0 0 6.6-10 3.8-29.5-0.4-3.2 1.6-6.3 4.9-7 9.2-1.8 21.6-13.4 36.7 9.7 0 0-7.2-27.7-49.3-16.5-37.5 9.9-11.9 41.7-8 45 3.9 3.2 11.9-1.7 11.9-1.7z"/>
				<path id="&lt;Path&gt;" class="s10" d="m666.5 263c2.6 4.4 6.7 7.2 10.5 8.1 5.6 1.4 8.6-7.7 6.6-13.4-1.7-5.1-7.3-8.5-12.8-7.4-5.5 1.1-7.2 7.7-4.3 12.7z"/>
				<g id="&lt;Group&gt;">
					<path id="&lt;Path&gt;" class="s7" d="m716.5 272.9c-1.7 2.7-3.8 7.9-3.8 7.9q-0.8-0.1-1.5-0.3c-6.8-1.6-9.5-4.6-10.3-7.4-0.5-1.6-0.4-3.1-0.2-4.3 0.3-1.4 0.8-2.3 0.8-2.3 3.1 3 9.3 4.9 12.7 5.9 1.4 0.4 2.3 0.5 2.3 0.5z"/>
					<path id="&lt;Path&gt;" class="s2" d="m714.2 272.4l-1.2 2.3c-6.4-1.6-10.7-3.5-12.3-5.9 0.3-1.4 0.8-2.3 0.8-2.3 3.1 3 9.3 4.9 12.7 5.9z"/>
					<path id="&lt;Path&gt;" class="s16" d="m711.2 280.5c-6.8-1.6-9.5-4.6-10.3-7.4 2.3 0.6 5 1.6 7.2 3.2 1.7 1.3 2.6 2.8 3.1 4.2z"/>
				</g>
				<path id="&lt;Path&gt;" class="s12" d="m716.2 251.4c0 0 3.3 8 7.1 13 0.7 0.9 0.3 2.2-0.8 2.6-2.6 0.9-5.7 0.1-5.7 0.1z"/>
				<path id="&lt;Path&gt;" class="s7" d="m701.6 248.7l5-1.2c0 0-2.7 3.7-5 1.2z"/>
				<path id="&lt;Path&gt;" class="s7" d="m723.8 248.6l4.9-1.2c0 0-2.7 3.7-4.9 1.2z"/>
				<g id="&lt;Group&gt;">
					<path id="&lt;Path&gt;" class="s7" d="m731.3 241.3c0 0 13-15.3 4.4-28-3.3-4.8-9.3-5.5-14.6-7.8-12.1-5.4-22-6.4-37.5 8.8-16.2 15.8-19.1 21.2-1.3 40.7 0 0-1.9-2.6 4.7-8.4 6.6-5.8 13.8-11 10.3-16.6 0 0 5.5 2.1 5.9 7.3l9.6-2.6c0 0-0.4-3.7-2.9-7.4 0 0 5 2.9 6.6 7.2l8.3 1.6c0 0-1.2-7.7-3.6-10.4 0 0 7.7 7.8 10.1 15.6z"/>
				</g>
			</g>
			<path id="&lt;Path&gt;" class="s11" d="m679.3 262.4c-0.2-2-1.1-4-2.6-5.4-1.5-1.4-3.5-2.2-5.5-2.3"/>
			<g id="&lt;Group&gt;">
				<g id="&lt;Group&gt;">
					<path id="&lt;Path&gt;" class="s7" d="m781.2 440.3q-1.8-1.4-3.4-3.1c-1-1-1.6-2.2-1.4-2.2q0-0.2-0.1-0.4l-0.4-0.9-1-2.4c-0.6-1.7-1.2-3.6-1.8-5.5-1.3-3.8-2.5-7.7-3.6-11.7-2.4-8-4.6-16-6.9-24.1l-4.1-17c-0.6-2.7-1.5-6.7-2.8-11.3-3.4-12.5-9-29.1-16.4-35.7-11.4-8.8-18.7 2-23.4 13.3-4.6 10.8 6.6 40.2 6.6 40.2l13.6-0.9c1.7 6.2 3.5 12.5 5.3 18.8 2.3 8.3 5.1 16.5 7.8 24.6 1.4 4.1 2.9 8.2 4.5 12.3 0.9 2.1 1.8 4.2 2.8 6.4q0.7 1.6 1.5 3.3l1.1 1.9q0.6 1.2 1.4 2.3c2 2.6 4.5 4.7 7.3 6.2q3.2 1.8 6.7 2.8c4.2 1.2 8.6 1.7 13 1.5l2.5-11.8c-3-2.2-6.2-4.5-8.8-6.6z"/>
					<path id="&lt;Path&gt;" class="s17" d="m781.2 440.3q-1.8-1.4-3.4-3.1c-1-1-1.6-2.2-1.4-2.2q0-0.2-0.1-0.4l-0.4-0.9-1-2.4c-0.6-1.7-1.2-3.6-1.8-5.5-1.3-3.8-2.5-7.7-3.6-11.7-2.4-8-4.6-16-6.9-24.1l-4.1-17c-0.6-2.7-1.5-6.7-2.8-11.3-3.4-12.5-9-29.1-16.4-35.7-11.4-8.8-18.7 2-23.4 13.3-4.6 10.8 6.6 40.2 6.6 40.2l13.6-0.9c1.7 6.2 3.5 12.5 5.3 18.8 2.3 8.3 5.1 16.5 7.8 24.6 1.4 4.1 2.9 8.2 4.5 12.3 0.9 2.1 1.8 4.2 2.8 6.4q0.7 1.6 1.5 3.3l1.1 1.9q0.6 1.2 1.4 2.3c2 2.6 4.5 4.7 7.3 6.2q3.2 1.8 6.7 2.8c4.2 1.2 8.6 1.7 13 1.5l2.5-11.8c-3-2.2-6.2-4.5-8.8-6.6z"/>
					<g id="&lt;Group&gt;" style="opacity: .3">
						<path id="&lt;Path&gt;" class="s15" d="m741.8 345.1c2.3 4 3.1 6.2 4.6 10.7 1.4 4.5 3 29-5.2 36.2v-16.9c0.3-10.4 0.3-19.6 0.6-30z"/>
					</g>
					<path id="&lt;Path&gt;" class="s7" d="m640.4 376l-12.8-43.5c8.1-12.1 48.1-21.3 48.1-21.3l20.5 7.2 5.8-5.8c0 0 10.1 2.3 18.8 5.1 11.6 3.8 17.8 6.8 20.6 13.2 0 0 4.8 14.2 1.9 43.5-0.8 8.1 0.1 50 2.4 63.8l13.6 43.2c-48.1 37.4-115.5 2.4-115.5 2.4 2.2-6.6 9.4-26.9 10.4-33.3-0.7-8.3 0.3-21-3.2-35.5-0.7-2.7-9.4-36.3-10.6-39z"/>
					<path id="&lt;Path&gt;" class="s17" d="m640.4 376l-12.8-43.5c8.1-12.1 48.1-21.3 48.1-21.3l20.5 7.2 5.8-5.8c0 0 10.1 2.3 18.8 5.1 11.6 3.8 17.8 6.8 20.6 13.2 0 0 4.8 14.2 1.9 43.5-0.8 8.1 0.1 50 2.4 63.8l13.6 43.2c-48.1 37.4-115.5 2.4-115.5 2.4 2.2-6.6 9.4-26.9 10.4-33.3-0.7-8.3 0.3-21-3.2-35.5-0.7-2.7-9.4-36.3-10.6-39z"/>
				</g>
				<path id="&lt;Path&gt;" class="s6" d="m786.6 422.9c1.5-18.1 15.4-32.7 33.5-35l-3.7 6.2 7-4.2-32.3 40.5z"/>
				<path id="&lt;Path&gt;" class="s18" d="m786.6 422.9c1.5-18.1 15.4-32.7 33.5-35l-3.7 6.2 7-4.2-32.3 40.5z"/>
				<path id="&lt;Path&gt;" class="s6" d="m736 389.7l11.1-0.4 53.1 18.1-48.4 74-47.7-11.9c-2.7-0.8-4.3-3.6-3.6-6.3q0.2-0.6 0.5-1.2l19.3-34.8c0.4-0.7 0.4-1.5 0-2.2l-2.6-4.7c-0.6-0.9-0.6-2.1 0-3l12.9-24.3c1.1-1.9 3.1-3.2 5.4-3.3z"/>
				<path id="&lt;Path&gt;" class="s6" d="m800.2 407.4l30.3-19.5-49.8 74-28.9 19.5z"/>
				<path id="&lt;Path&gt;" class="s8" d="m800.2 407.4l30.3-19.5-49.8 74-28.9 19.5z"/>
				<g id="&lt;Group&gt;">
					<g id="&lt;Group&gt;">
						<path id="&lt;Path&gt;" class="s10" d="m794.3 441.7c0 0-11.8-3-14.4-1-2.5 2 1 3.9 1 3.9 0 0-4.1-1.8-5.3 0.1-1.4 2.4 2.3 4.4 2.3 4.4 0 0-3.4-1.4-4.4 0.4-1 1.9 3 4.5 3 4.5 0 0-2.6-0.4-2.7 1.1-0.1 1.6 8.3 7.3 12 6.9 3.7-0.3 11.7-13.8 13-17 1.2-3.3 1.1-5.8-1.3-8.1z"/>
					</g>
					<g id="&lt;Group&gt;">
						<path id="&lt;Path&gt;" class="s8" d="m780.8 444.8q0 0 0 0l7.2 2.8c0.1 0.1 0.3 0 0.3-0.1 0.1-0.2 0-0.3-0.1-0.3l-7.2-2.8c-0.1-0.1-0.2 0-0.3 0.1 0 0.2 0 0.3 0.1 0.3z"/>
					</g>
					<g id="&lt;Group&gt;">
						<path id="&lt;Path&gt;" class="s8" d="m778 449.4q0 0 0 0l6.7 3.3c0.1 0.1 0.2 0 0.2-0.1q0.1-0.2 0-0.4l-6.7-3.3c-0.1 0-0.2 0-0.3 0.2 0 0.1 0 0.2 0.1 0.3z"/>
					</g>
					<g id="&lt;Group&gt;">
						<path id="&lt;Path&gt;" class="s8" d="m776.6 454.3l4.9 2.7c0.1 0 0.2-0.1 0.3-0.2 0.1-0.1 0-0.2-0.1-0.3l-4.8-2.6c-0.1-0.1-0.3 0-0.3 0.1-0.1 0.1-0.1 0.3 0 0.3z"/>
					</g>
				</g>
				<path id="&lt;Path&gt;" class="s7" d="m709.6 314.5l-8.9-8.6-4.5 12.5-19.8-15.8-10 11 24.8 17.3 5-11 13.4 10.1z"/>
				<path id="&lt;Path&gt;" class="s14" d="m709.6 314.5c0.6 0.9 0 15.5 0 15.5l-13.4-10.1-5 11-23.8-16.4 24.4 21.2 4.4-12.9 14.9 12.9z"/>
				<path id="&lt;Path&gt;" class="s14" d="m722.2 381.9l-68.2 65.7v-13c0 0 61.4-56.2 62.2-56.3 0.7-0.1 6 3.6 6 3.6z"/>
				<path id="&lt;Path&gt;" class="s14" d="m658.2 387.1l-7.4-30.5-1.5 35.4z"/>
			</g>
			<path id="&lt;Path&gt;" class="s6" d="m670.4 270.6c0 2.2 1.8 4.1 4.1 4.1 2.3 0 4.1-1.9 4.1-4.1 0-2.3-1.8-4.1-4.1-4.1-2.3 0-4.1 1.8-4.1 4.1z"/>
			<g id="&lt;Group&gt;">
				<g id="&lt;Group&gt;">
					<path id="&lt;Path&gt;" class="s7" d="m627.6 332.5c0 0-9.2 9-12.3 39.6-2.2 22-7.8 69.4 9.2 75.5 17.1 6.1 91.7-65.1 91.7-65.1l-12.1-20.8-54.8 30.3c0 0 5.6-50.2-4.1-54.8-9.6-4.6-17.6-4.7-17.6-4.7z"/>
					<path id="&lt;Path&gt;" class="s17" d="m627.6 332.5c0 0-9.2 9-12.3 39.6-2.2 22-7.8 69.4 9.2 75.5 17.1 6.1 91.7-65.1 91.7-65.1l-12.1-20.8-54.8 30.3c0 0 5.6-50.2-4.1-54.8-9.6-4.6-17.6-4.7-17.6-4.7z"/>
				</g>
				<g id="&lt;Group&gt;">
					<path id="&lt;Path&gt;" class="s10" d="m708.8 360.1c0 0 7.1-14.4 10.6-15 3.4-0.6 6.1 0.5 6.1 0.5 0 0 23.3-13.7 24.8-10.1 0.8 2-4.3 6.3-15.4 12.6 0 0 6.4 2.3 3.8 6.1 0 0 4.7 2.1 2.2 6.8 0 0 2.2 4.1-0.6 6.8-2.7 2.6-15.4 9.9-22.8 10.9-7.4 1.1-11.7-13.2-11.7-13.2z"/>
				</g>
			</g>
		</g>
	</g>
	<g id="Puzzle">
		<g id="&lt;Group&gt;">
			<path id="&lt;Path&gt;" class="s6" d="m787.3 771.6c6.2 2.9 10.1 9.8 16.6 12.3 3.6 1.3 7.6 1 11.3-0.4v-92.6h-88.6c-0.2-2 0.1-4 0.8-5.9 2.4-6.5 9.3-10.4 12.3-16.7 4.3-9.2-1.8-20.8-10.8-25.6-7-3.8-10.7-4.5-16.7-4.1-6-0.4-9.7 0.3-16.7 4.1-9 4.8-15.1 16.4-10.8 25.6 3 6.3 9.9 10.2 12.3 16.7 0.7 1.9 1 3.9 0.8 5.9h-88.6v206.1h206v-82.4c-3.7-1.4-7.7-1.7-11.3-0.4-6.5 2.5-10.4 9.3-16.6 12.3-8.4 4-20.8-1.8-25.7-10.8-3.8-6.9-4.4-10.6-4.1-16.7-0.3-6 0.4-9.6 4.1-16.6 4.9-9 16.4-15.2 25.7-10.8z"/>
			<path id="&lt;Path&gt;" class="s19" d="m787.3 771.6c6.2 2.9 10.1 9.8 16.6 12.3 3.6 1.3 7.6 1 11.3-0.4v-92.6h-88.6c-0.2-2 0.1-4 0.8-5.9 2.4-6.5 9.3-10.4 12.3-16.7 4.3-9.2-1.8-20.8-10.8-25.6-7-3.8-10.7-4.5-16.7-4.1-6-0.4-9.7 0.3-16.7 4.1-9 4.8-15.1 16.4-10.8 25.6 3 6.3 9.9 10.2 12.3 16.7 0.7 1.9 1 3.9 0.8 5.9h-88.6v206.1h206v-82.4c-3.7-1.4-7.7-1.7-11.3-0.4-6.5 2.5-10.4 9.3-16.6 12.3-8.4 4-20.8-1.8-25.7-10.8-3.8-6.9-4.4-10.6-4.1-16.7-0.3-6 0.4-9.6 4.1-16.6 4.9-9 16.4-15.2 25.7-10.8z"/>
			<path id="&lt;Path&gt;" class="s6" d="m797.4 771.6c6.2 2.9 10.1 9.8 16.6 12.3 3.6 1.3 7.7 1 11.3-0.4v-92.6h-88.6c-0.2-2 0.1-4 0.8-5.9 2.4-6.5 9.3-10.4 12.3-16.7 4.3-9.2-1.8-20.8-10.8-25.6-7-3.8-10.7-4.5-16.7-4.1-6-0.4-9.7 0.3-16.7 4.1-9 4.8-15.1 16.4-10.8 25.6 3 6.3 9.9 10.2 12.3 16.7 0.7 1.9 1 3.9 0.8 5.9h-88.6v206.1h206v-82.4c-3.6-1.4-7.7-1.7-11.3-0.4-6.5 2.5-10.4 9.3-16.6 12.3-8.4 4-20.8-1.8-25.7-10.8-3.8-6.9-4.4-10.6-4.1-16.7-0.3-6 0.4-9.6 4.1-16.6 4.9-9 16.4-15.2 25.7-10.8z"/>
		</g>
		<path id="&lt;Path&gt;" class="s19" d="m791.1 827.9c0 0 7.2 12.8 19.4 11.8 12.3-1.1 14.8-6.4 14.8-6.4l-0.1-17.6-27.4 10.4c-1.9 1.6-4.1 2.1-6.7 1.8z"/>
	</g>
	<g id="Character 4">
		<g id="&lt;Group&gt;">
			<g id="&lt;Group&gt;">
				<g id="&lt;Group&gt;">
					<path id="&lt;Path&gt;" class="s6" d="m1044.9 719.2l70.4-27.1 40.7-39.4c1.1-1.3 12.9-21.7 12.9-21.7l20 42.8c0 0-49.7 49.8-67.8 55.7-14.7 4.6-66.7 17.4-66.7 17.4z"/>
				</g>
				<path id="&lt;Path&gt;" class="s19" d="m1088.1 738.4c0 0 8.5-33.3 27.4-40.2 19-6.9 43.6 4 42.9 4.4-0.7 0.5-21.3 19.6-22 19.9-0.5 0.1-26.7 9.4-40.2 13.8z"/>
			</g>
			<g id="&lt;Group&gt;">
				<g id="&lt;Group&gt;">
					<g id="&lt;Group&gt;">
						<path id="&lt;Path&gt;" class="s7" d="m960.2 691.9c-0.1 2.1 0.1 4.1 0.8 6 2.4 6.5 9.3 10.3 12.3 16.6 4.3 9.3-1.8 20.8-10.8 25.6-7 3.8-10.6 4.5-16.7 4.2-6 0.3-9.7-0.4-16.7-4.2-9-4.8-15.1-16.3-10.7-25.6 2.9-6.3 9.8-10.1 12.2-16.6 0.7-1.9 1-3.9 0.9-6h-91.9v92.6c-3.7 1.4-7.8 1.8-11.5 0.4-6.5-2.4-10.4-9.3-16.6-12.3-9.3-4.3-20.8 1.8-25.7 10.8-3.7 7-4.4 10.7-4.1 16.7-0.3 6 0.4 9.7 4.1 16.7 4.9 9 16.4 15.1 25.7 10.8 6.2-3 10.1-9.9 16.6-12.3 3.7-1.4 7.8-1 11.5 0.4v82.3l205.4 0.9v-206z"/>
					</g>
					<g id="&lt;Group&gt;" style="opacity: .4">
						<path id="&lt;Path&gt;" class="s15" d="m960.2 691.9c-0.1 2.1 0.1 4.1 0.8 6 2.4 6.5 9.3 10.3 12.3 16.6 4.3 9.3-1.8 20.8-10.8 25.6-7 3.8-10.6 4.5-16.7 4.2-6 0.3-9.7-0.4-16.7-4.2-9-4.8-15.1-16.3-10.7-25.6 2.9-6.3 9.8-10.1 12.2-16.6 0.7-1.9 1-3.9 0.9-6h-91.9v92.6c-3.7 1.4-7.8 1.8-11.5 0.4-6.5-2.4-10.4-9.3-16.6-12.3-9.3-4.3-20.8 1.8-25.7 10.8-3.7 7-4.4 10.7-4.1 16.7-0.3 6 0.4 9.7 4.1 16.7 4.9 9 16.4 15.1 25.7 10.8 6.2-3 10.1-9.9 16.6-12.3 3.7-1.4 7.8-1 11.5 0.4v82.3l205.4 0.9v-206z"/>
					</g>
				</g>
				<g id="&lt;Group&gt;">
					<path id="&lt;Path&gt;" class="s7" d="m969.3 691.9c-0.1 2.1 0.1 4.1 0.8 6 2.4 6.5 9.3 10.3 12.3 16.6 4.3 9.3-1.8 20.8-10.8 25.6-7 3.8-10.7 4.5-16.7 4.2-6 0.3-9.7-0.4-16.7-4.2-9-4.8-15.1-16.3-10.7-25.6 2.9-6.3 9.8-10.1 12.2-16.6 0.7-1.9 1-3.9 0.9-6h-91.9v92.6c-3.7 1.4-7.8 1.8-11.5 0.4-6.5-2.4-10.4-9.3-16.6-12.3-9.3-4.3-20.8 1.8-25.7 10.8-3.7 7-4.4 10.7-4.1 16.7-0.3 6 0.4 9.7 4.1 16.7 4.9 9 16.4 15.1 25.7 10.8 6.2-3 10.1-9.9 16.6-12.3 3.7-1.4 7.8-1 11.5 0.4v82.3l205.4 0.9v-206z"/>
				</g>
			</g>
			<g id="&lt;Group&gt;">
				<g id="&lt;Group&gt;">
					<path id="&lt;Path&gt;" class="s20" d="m1113.9 830.9l32.3-2c-5.1 28.5-10.5 46.9-8.2 61.5l-13 8.7-12.1-11.8c0 0-2.2-23.3 1-56.4z"/>
					<g id="&lt;Group&gt;">
						<g id="&lt;Group&gt;">
							<g id="&lt;Group&gt;">
								<g id="&lt;Group&gt;">
									<path id="&lt;Path&gt;" class="s6" d="m1111 867.3l11.7 0.1c5.7 9.9 9.6 7.6 15.7 0.6 3.4-0.3 4.2 3.6 4.5 4.6l6.1 23.3c0.5 2-0.6 4-2.6 4.5q-0.5 0.2-1 0.1c-10.4-0.1-15.3-0.1-28.2-0.3l-39.4-0.5c-10.8-0.1-12.9-10.9-8.5-11.9 20-4.2 34.2-9.9 40.4-15.6 1.2-1 0-1.8 1.3-4.9z"/>
									<path id="&lt;Path&gt;" class="s13" d="m1105 873.8c2.9 0.5 5.6 2.2 7.2 4.8"/>
									<path id="&lt;Path&gt;" class="s13" d="m1099.6 877.8c3 0.4 5.7 2.2 7.2 4.7"/>
									<path id="&lt;Path&gt;" class="s13" d="m1093 881c2.9 0.5 5.6 2.3 7.2 4.8"/>
								</g>
							</g>
						</g>
						<path id="&lt;Path&gt;" class="s21" d="m1146.4 900.4q-0.5 0.2-1 0.1c-10.4-0.1-15.3-0.1-28.2-0.3l-39.4-0.5c-5.9 0-9.1-3.2-10.2-6.3 1.6 0 80 1.5 81.1 1.2l0.4 1.7c0.3 1.8-0.8 3.6-2.7 4.1z"/>
					</g>
				</g>
				<path id="&lt;Path&gt;" class="s7" d="m1237.6 745.2c0 0-88.2-45.6-105.4-46.9-17.1-1.3-33.6 8-36.8 43.6-3.3 35.6 3.2 127 3.2 127l47.6 0.9 5.9-106c0 0 73.7 53.8 75.9 53.3 2.2-0.6 31-1.9 31-1.9z"/>
				<path id="&lt;Path&gt;" class="s22" d="m1237.6 745.2c0 0-88.2-45.6-105.4-46.9-17.1-1.3-33.6 8-36.8 43.6-3.3 35.6 3.2 127 3.2 127l47.6 0.9 5.9-106c0 0 73.7 53.8 75.9 53.3 2.2-0.6 31-1.9 31-1.9z"/>
				<path id="&lt;Path&gt;" class="s19" d="m1149.4 813.3c0 0-38.9 13.7-39.3 45.7-0.4 32.1 33.9 26 33.9 26z"/>
			</g>
			<g id="&lt;Group&gt;">
				<g id="&lt;Group&gt;">
					<path id="&lt;Path&gt;" class="s20" d="m1271.4 896.9l-8.8-31.8c30.6-3.3 51 4.2 65.2-2.5l12.8 10.6-8.4 15.9c0 0-22.5 7.7-60.8 7.8z"/>
					<g id="&lt;Group&gt;">
						<g id="&lt;Group&gt;">
							<g id="&lt;Group&gt;">
								<g id="&lt;Group&gt;">
									<path id="&lt;Path&gt;" class="s6" d="m1312.4 897.1l-3.4-12c8.3-8.8 4.8-12.1-4.1-16.1-1.4-3.4 2.3-5.4 3.3-6l21.9-13.3c1.9-1.1 4.3-0.5 5.4 1.3q0.3 0.5 0.4 1c3 10.6 4.4 15.6 8.2 28.8l11.4 40.4c3.1 11-7.3 16.4-9.6 12.2-10.3-19.1-20.4-31.9-28.1-36.5-1.4-0.9-1.8 0.6-5.4 0.2z"/>
									<path id="&lt;Path&gt;" class="s13" d="m1320.9 901.3c-0.5-3.2 0.5-6.5 2.7-8.8"/>
									<path id="&lt;Path&gt;" class="s13" d="m1326.5 905.5c-0.4-3.1 0.6-6.4 2.7-8.7"/>
									<path id="&lt;Path&gt;" class="s13" d="m1331.8 911.3c-0.4-3.1 0.6-6.4 2.7-8.8"/>
								</g>
							</g>
						</g>
						<path id="&lt;Path&gt;" class="s21" d="m1335.5 851q0.3 0.5 0.4 1c3 10.6 4.4 15.6 8.2 28.8l11.4 40.4c1.7 6-0.6 10.3-3.4 12.3-0.5-1.7-22.6-82.1-23.2-83l1.6-1c1.8-0.8 3.9-0.2 5 1.5z"/>
					</g>
				</g>
				<path id="&lt;Path&gt;" class="s7" d="m1334.3 762.6l3.8 19.2c0 0 9.8 38.1-3.9 57.3-13.2 18.3-32.6 21.5-32.6 21.5l4 36.8-4 2.5c0 0-25.3 0-77.3-2.4-49.3-2.2-91.7-4.6-100.5-19.9-8.7-15.3-10.8-22.8 3.5-41 13-16.5 111.5-40.9 114.9-41.9l-1.3-8.4-1.6-5.9z"/>
				<path id="&lt;Path&gt;" class="s22" d="m1334.3 762.6l3.8 19.2c0 0 9.8 38.1-3.9 57.3-13.2 18.3-32.6 21.5-32.6 21.5l4 36.8-4 2.5c0 0-25.3 0-77.3-2.4-49.3-2.2-91.7-4.6-100.5-19.9-8.7-15.3-10.8-22.8 3.5-41 13-16.5 111.5-40.9 114.9-41.9l-1.3-8.4-1.6-5.9z"/>
				<path id="&lt;Path&gt;" class="s19" d="m1301.6 860.6c-3 0.8-110-2.6-110-2.6 0 0 31.6 5.4 55 7.4 23.4 2 55-4.8 55-4.8z"/>
				<path id="&lt;Path&gt;" class="s19" d="m1242.2 794.7l61.6-10.7c0 0-44.4-0.7-61.6 10.7z"/>
			</g>
			<g id="&lt;Group&gt;">
				<g id="&lt;Group&gt;">
					<g id="&lt;Group&gt;">
						<g id="&lt;Group&gt;">
							<g id="&lt;Group&gt;">
								<path id="&lt;Path&gt;" class="s20" d="m1085.1 751.1c0 0-5.1-7.9-12.8-9.4-7.6-1.6-13.3-4.8-19.1-5.6-5.7-0.7-0.5 5.1 2.9 7.7 3.4 2.5 7.3 5.4 4.9 7.7-2.3 2.3-29.3 9.1-32.2 12.6-2.9 3.5 1.9 3.7 1.9 3.7 0 0-6.6 1.9-6.5 4.7 0 0.7 1.2 2.4 4.3 2 6.9-0.9 21.5-3.4 21.5-3.4-0.9 0.2-18.6 4.5-21.2 5.6-3.3 1.3-4.2 3.6-3.4 5.5 1.2 2.8 23.3-1.9 24.4-1.5 0 0-12.8 2.3-14.1 5.9-1.2 3.7 7 2.7 14 0.4 6.5-2 19.7-4.4 26-7.1 7.9-3.3 12.4-7.4 12.5-15.3 0.2-8-3.1-13.5-3.1-13.5z"/>
							</g>
						</g>
					</g>
				</g>
				<path id="&lt;Path&gt;" class="s20" d="m1076.7 750.9l19.7-7.9 6.8 21.4-23.1 8.2z"/>
			</g>
			<g id="&lt;Group&gt;">
				<g id="&lt;Group&gt;">
					<g id="&lt;Group&gt;">
						<g id="&lt;Group&gt;">
							<g id="&lt;Group&gt;">
								<path id="&lt;Path&gt;" class="s20" d="m1219.8 603.3c0 0-5.3-12.1-4.2-36.1 0 0-1.3-0.2-1.3-0.2 0.1-3.4 0.4-6.5 0.7-9.2q0-0.2 0-0.1l-26.1 26.2c2.4 7 3.1 21.5 3 27.7 0 0-1.3 11.5 12.9 8.6 10.3-2.1 15-16.9 15-16.9z"/>
								<path id="&lt;Path&gt;" class="s8" d="m1190.7 594.1l16.7-8.2c-0.3 5.9-3.6 13.6-15.7 17 0 0-0.2-6.4-1-8.8z"/>
							</g>
							<g id="&lt;Group&gt;">
								<path id="&lt;Path&gt;" class="s20" d="m1211.7 542.7c2.5 19.9 4.4 31.1-3.6 43.1-12.1 17.9-37.6 13.7-46.1-5.1-7.7-16.9-10.6-46.7 7.2-58.1 17.6-11.2 39.9 0.2 42.5 20.1z"/>
								<path id="&lt;Path&gt;" class="s7" d="m1204 514.7c-9.2-10.8-26.4-1.4-32.9 5.6-1 1.1 16.6 6.1 15.6 5.9l5.6 4.6c0.7-0.3 2.2 6.6 3.4 12.5 1.2 5.5 3.8 10.5 7.6 14.6 3.2 3.4 7.4 7.5 12.2 10.8 6.3-4.7 4.4-16.8 5.2-24.3 1.1-11.2 0.9-32.3-16.7-29.7z"/>
								<path id="&lt;Path&gt;" class="s20" d="m1222.6 557.6c-0.6 5.4-3.6 10-7.2 12.7-5.3 4-8.7-2-9.4-8.3-0.5-5.7-0.2-12.8 6.1-14.4 6.3-1.5 11.2 3.9 10.5 10z"/>
								<path id="&lt;Path&gt;" class="s7" d="m1184.6 553.8c0.3 2-0.4 3.9-1.7 4.1-1.4 0.2-2.7-1.2-3.1-3.2-0.4-2 0.3-3.8 1.7-4.1 1.3-0.2 2.7 1.2 3.1 3.2z"/>
								<path id="&lt;Path&gt;" class="s7" d="m1164.9 558c0.4 2-0.4 3.9-1.7 4.1-1.3 0.2-2.7-1.2-3.1-3.2-0.4-2 0.4-3.8 1.7-4.1 1.3-0.2 2.7 1.2 3.1 3.2z"/>
								<path id="&lt;Path&gt;" class="s23" d="m1171.1 555.7c0 0-4.5 11.2-5.7 15.7 3.3 2 7.9-0.1 7.9-0.1z"/>
								<path id="&lt;Path&gt;" class="s7" d="m1187.7 543.4c-0.3 0.2-0.7 0.2-1 0-3.8-1.9-6.9-0.2-7-0.2-0.4 0.3-1 0.1-1.3-0.4-0.3-0.4-0.1-1 0.4-1.3 0.1-0.1 4-2.2 8.8 0.2 0.4 0.3 0.6 0.8 0.4 1.3q-0.1 0.2-0.3 0.4z"/>
								<path id="&lt;Path&gt;" class="s24" d="m1181.1 576.4c3.3-0.6 5.5-2.7 7.6-5.6"/>
							</g>
							<path id="&lt;Path&gt;" class="s11" d="m1217 553.1c-1-1.1-2.7-1.2-4-0.6-1.3 0.6-2.3 1.8-2.9 3.1-0.7 1.6-1 3.4-0.9 5.1"/>
						</g>
						<path id="&lt;Path&gt;" class="s7" d="m1154.5 551.2q-0.3 0-0.5-0.2c-0.4-0.3-0.6-0.9-0.3-1.3 3-4.4 7.5-4.3 7.7-4.3 0.5 0 0.9 0.5 0.9 1 0 0.5-0.5 1-1 0.9-0.2 0-3.6 0-6 3.5-0.2 0.3-0.5 0.4-0.8 0.4z"/>
					</g>
				</g>
				<path id="&lt;Path&gt;" class="s7" d="m1204 514.7c0 0-12.3-15.2-33.5-10.2-17.1 4.1-26 16.5-26.3 28.5-0.1 5.1 1 8.9 2.3 11.6 1.1 2 4 1.7 4.6-0.4q0.3-1 0.7-1.9 0.1 0.2 0.2 0.4c1.3 2.1 4.6 1.4 4.6-1.1q0-1.1 0.3-2.3 0 0.1 0 0.1c1.2 1.8 4 1.3 4.5-0.8 2-9.3 13.3-16.3 23.5-12.1l7.4 4.3c8.4-4.9 11.7-16.1 11.7-16.1z"/>
			</g>
			<path id="&lt;Path&gt;" class="s19" d="m1235.8 781l-1.1 7.8-34.5 10.3 8 5.1 34-9.5 1.4-15.1z"/>
			<g id="&lt;Group&gt;">
				<g id="&lt;Group&gt;">
					<path id="&lt;Path&gt;" class="s6" d="m1261.5 605.8c-15.4-9.9-42.7-5.2-42.7-5.2l-49.9 30.4 34.2 80.3c0 0 14.2 34.1 21.9 56.9 1.9 5.6 5.5 13.5 11.4 12.7l94.9-17.1c4.6-0.9 7.6-5.5 6.3-10-9.2-33.1-62.2-139.2-76.1-148z"/>
					<path id="&lt;Path&gt;" class="s19" d="m1270.4 650.4c0 0-15.2 28.6-41.9 53.6-10.7 10-18.2 24.6-18.2 24.6l-6.7-17.1z"/>
				</g>
				<g id="&lt;Group&gt;">
					<path id="&lt;Path&gt;" class="s6" d="m1223.4 628.4l-64.6 80.6-76 34.5 7.6 31.4c0 0 61.6-16.6 86.3-32 24.7-15.5 65.5-58.6 65.5-58.6 0 0 35.6-28.5 33.9-51.6-1.7-23.1-35.6-28.5-52.7-4.3z"/>
				</g>
				<path id="&lt;Path&gt;" class="s6" d="m1188.3 619.2c0 0 2.4-12.3 3.6-11.8 1.1 0.5 12.7 7.4 12.7 7.4l12.9-19.4 7.8 5.2-17.9 37z"/>
				<path id="&lt;Path&gt;" class="s19" d="m1182.6 670.9l-14.9-20.5 12.1 32.1 5.8-6.3 41.2-52z"/>
				<path id="&lt;Path&gt;" class="s19" d="m1188.3 619.2c0.7 0.2 11.4 7.4 10.8 7.6-0.6 0.1 4.5-8.7 4.5-8.7l11.3 4.3 9.4-22.5-9.2 26-10.8-5.2-5.2 9.5z"/>
			</g>
		</g>
	</g>
	<g id="Character 1">
		<g id="&lt;Group&gt;">
			<g id="&lt;Group&gt;">
				<g id="&lt;Group&gt;">
					<g id="&lt;Group&gt;">
						<path id="&lt;Path&gt;" class="s7" d="m451.4 465.9c0.2-2-0.1-4-0.8-5.9-2.4-6.5-9.3-10.4-12.3-16.7-4.3-9.2 1.8-20.7 10.8-25.6 7-3.7 10.7-4.5 16.7-4.1 6-0.4 9.7 0.4 16.7 4.1 9 4.9 15.1 16.4 10.8 25.6-3 6.3-9.9 10.2-12.3 16.7-0.7 1.9-1 3.9-0.8 5.9h91.8v-92.6c3.7-1.4 7.8-1.8 11.5-0.4 6.5 2.4 10.4 9.3 16.7 12.3 9.2 4.4 20.7-1.8 25.6-10.8 3.7-7 4.5-10.6 4.1-16.7 0.4-6-0.4-9.7-4.1-16.6-4.9-9-16.4-15.2-25.6-10.8-6.3 2.9-10.2 9.8-16.7 12.2-3.7 1.4-7.8 1.1-11.5-0.3v-82.4l-205.4-0.9v206.1z"/>
					</g>
					<g id="&lt;Group&gt;" style="opacity: .4">
						<path id="&lt;Path&gt;" class="s15" d="m451.4 465.9c0.2-2-0.1-4-0.8-5.9-2.4-6.5-9.3-10.4-12.3-16.7-4.3-9.2 1.8-20.7 10.8-25.6 7-3.7 10.7-4.5 16.7-4.1 6-0.4 9.7 0.4 16.7 4.1 9 4.9 15.1 16.4 10.8 25.6-3 6.3-9.9 10.2-12.3 16.7-0.7 1.9-1 3.9-0.8 5.9h91.8v-92.6c3.7-1.4 7.8-1.8 11.5-0.4 6.5 2.4 10.4 9.3 16.7 12.3 9.2 4.4 20.7-1.8 25.6-10.8 3.7-7 4.5-10.6 4.1-16.7 0.4-6-0.4-9.7-4.1-16.6-4.9-9-16.4-15.2-25.6-10.8-6.3 2.9-10.2 9.8-16.7 12.2-3.7 1.4-7.8 1.1-11.5-0.3v-82.4l-205.4-0.9v206.1z"/>
					</g>
				</g>
				<g id="&lt;Group&gt;">
					<path id="&lt;Path&gt;" class="s7" d="m457.7 465.9c0.1-2-0.1-4-0.9-5.9-2.4-6.5-9.3-10.4-12.2-16.7-4.4-9.2 1.7-20.7 10.8-25.6 6.9-3.7 10.6-4.5 16.6-4.1 6.1-0.4 9.7 0.4 16.7 4.1 9 4.9 15.1 16.4 10.8 25.6-3 6.3-9.9 10.2-12.3 16.7-0.7 1.9-0.9 3.9-0.8 5.9h91.8v-92.6c3.8-1.4 7.8-1.8 11.6-0.4 6.4 2.4 10.3 9.3 16.6 12.3 9.2 4.4 20.8-1.8 25.6-10.8 3.8-7 4.5-10.6 4.1-16.7 0.4-6-0.3-9.7-4.1-16.6-4.8-9-16.4-15.2-25.6-10.8-6.3 2.9-10.2 9.8-16.6 12.2-3.8 1.4-7.8 1.1-11.6-0.3v-82.4l-205.3-0.9v206.1z"/>
				</g>
			</g>
			<g id="&lt;Group&gt;">
				<path id="&lt;Path&gt;" class="s25" d="m321.1 355.6c0 0-15 53.1-5.4 62.4 9.6 9.2 43.2 3.1 41.5 2.4-1.7-0.7 8.5-64.6 9.2-62.3 0.7 2.3-45.3-2.5-45.3-2.5z"/>
				<g id="&lt;Group&gt;">
					<g id="&lt;Group&gt;">
						<g id="&lt;Group&gt;">
							<g id="&lt;Group&gt;">
								<g id="&lt;Group&gt;">
									<path id="&lt;Path&gt;" class="s25" d="m339.8 835.3l-0.1 46.1 21.4 1.6 7.6-43.2c-9.8-7.1-19.5-8.8-28.9-4.5z"/>
								</g>
							</g>
						</g>
					</g>
					<g id="&lt;Group&gt;">
						<g id="&lt;Group&gt;">
							<g id="&lt;Group&gt;">
								<g id="&lt;Group&gt;">
									<g id="&lt;Group&gt;">
										<path id="&lt;Path&gt;" class="s7" d="m339.5 876.6c-2.1 6.1-2.2 30.9-2.2 30.9l45.4 0.1c2.7-9-1.5-15.1-6.8-16-2.3-0.3-4.9-2.8-6.9-5 0-0.3-2.8-14.2-4.5-14.8 0 0-1.2-1.5-2.2 0-1 1.4-1.9 6.1-1.9 6.1-7-9.5-14-8.3-20.9-1.3z"/>
									</g>
								</g>
							</g>
						</g>
					</g>
					<g id="&lt;Group&gt;">
						<g id="&lt;Group&gt;">
							<g id="&lt;Group&gt;">
								<g id="&lt;Group&gt;">
									<path id="&lt;Path&gt;" class="s2" d="m339 883.8c5.1-2 10.6-1.3 15.1 2.1 0.8 0.6 1.5-0.8 0.7-1.4-4.7-3.6-10.7-4.4-16.2-2.2-0.9 0.3-0.5 1.9 0.4 1.5z"/>
								</g>
							</g>
						</g>
					</g>
					<g id="&lt;Group&gt;">
						<g id="&lt;Group&gt;">
							<g id="&lt;Group&gt;">
								<path id="&lt;Path&gt;" class="s2" d="m382.5 904q0 0 0 0l-44.7-0.1c-0.4 0-0.7-0.4-0.7-0.8 0-0.4 0.3-0.8 0.7-0.8q0 0 0 0l44.7 0.1c0.4 0 0.8 0.3 0.8 0.8 0 0.4-0.4 0.8-0.8 0.8z"/>
							</g>
						</g>
					</g>
				</g>
				<g id="&lt;Group&gt;">
					<g id="&lt;Group&gt;">
						<g id="&lt;Group&gt;">
							<g id="&lt;Group&gt;">
								<g id="&lt;Group&gt;">
									<path id="&lt;Path&gt;" class="s25" d="m432.1 829.3v52l20.5 1.7 10.2-48.7c-8.3-6.6-17.9-9.9-30.7-5z"/>
								</g>
							</g>
						</g>
					</g>
					<g id="&lt;Group&gt;">
						<g id="&lt;Group&gt;">
							<g id="&lt;Group&gt;">
								<g id="&lt;Group&gt;">
									<g id="&lt;Group&gt;">
										<path id="&lt;Path&gt;" class="s7" d="m431.1 876.7c-2.1 6.1-2.2 31-2.2 31h52.1c2.7-9-2.9-14.3-8.2-15.1-2.3-0.4-10.3-3.7-12.2-5.9 0-0.3-2.8-14.1-4.5-14.8 0 0-1.2-1.4-2.2 0-1 1.4-1.9 6.1-1.9 6.1-7.1-9.5-14-8.3-20.9-1.3z"/>
									</g>
								</g>
							</g>
						</g>
					</g>
					<g id="&lt;Group&gt;">
						<g id="&lt;Group&gt;">
							<g id="&lt;Group&gt;">
								<g id="&lt;Group&gt;">
									<path id="&lt;Path&gt;" class="s2" d="m430.6 883.9c5.1-2 10.6-1.3 15.1 2.1 0.8 0.6 1.5-0.8 0.7-1.3-4.7-3.7-10.8-4.5-16.2-2.3-0.9 0.3-0.5 1.9 0.4 1.5z"/>
								</g>
							</g>
						</g>
					</g>
					<g id="&lt;Group&gt;">
						<g id="&lt;Group&gt;">
							<g id="&lt;Group&gt;">
								<path id="&lt;Path&gt;" class="s2" d="m481 904.1q0 0 0 0l-51.6-0.1c-0.4 0-0.7-0.3-0.7-0.8 0-0.4 0.3-0.8 0.7-0.8q0 0 0 0l51.6 0.1c0.4 0 0.7 0.3 0.7 0.8 0 0.4-0.3 0.8-0.7 0.8z"/>
							</g>
						</g>
					</g>
				</g>
				<g id="&lt;Group&gt;">
					<g id="&lt;Group&gt;">
						<g id="&lt;Group&gt;">
							<g id="&lt;Group&gt;">
								<g id="&lt;Group&gt;">
									<path id="&lt;Path&gt;" class="s7" d="m330.9 858l45.6 2.4c10.2-33.1 20.4-152 21.4-187.7 1.3-42.7 16.5-149.7 3-172-13.5-22.2-74.6-4.5-74.6-4.5 0 0 7.7 130.3 4.6 171.9-2.6 36-6.7 141.9 0 189.9z"/>
								</g>
							</g>
						</g>
					</g>
					<g id="&lt;Group&gt;">
						<path id="&lt;Path&gt;" class="s6" d="m381.4 848.4l-2.9 15.3-49.4-1.6-1.9-14.7z"/>
					</g>
					<g id="&lt;Group&gt;">
						<g id="&lt;Group&gt;">
							<g id="&lt;Group&gt;">
								<g id="&lt;Group&gt;">
									<path id="&lt;Path&gt;" class="s7" d="m422 858l45.2 2.4c5.5-36.7 27.6-170.3 25.8-196-2.2-31.2-28.4-166.6-38.1-177.1-9.8-10.4-81.1 16.7-81.1 16.7 0 0 29.3 116.4 52.4 166.7 4.8 10.5-7.9 142.7-4.2 187.3z"/>
								</g>
							</g>
						</g>
					</g>
					<g id="&lt;Group&gt;">
						<path id="&lt;Path&gt;" class="s6" d="m472.4 849.6l-2.3 14.1-50.3-3.3-1-14.7z"/>
					</g>
					<path id="&lt;Path&gt;" class="s14" d="m402.4 606.6l-13.3-44.4-23.6-7.7 18.4 14.3 14.8 80.9z"/>
				</g>
				<g id="&lt;Group&gt;">
					<g id="&lt;Group&gt;">
						<path id="&lt;Path&gt;" class="s7" d="m427.8 213.6c0 1.9 0.8 3.4 2 3.6 1.2 0.2 2.3-1.4 2.4-3.4 0.1-1.9-0.8-3.3-2-3.5-1.2-0.3-2.2 1.5-2.4 3.3z"/>
						<path id="&lt;Path&gt;" class="s26" d="m428.5 213.3c0.7 6.2 2.2 12.3 4.6 18-3.1 1.1-6.4 0.9-9.2-0.7z"/>
						<path id="&lt;Path&gt;" class="s7" d="m424.3 207.5q-0.4 0-0.7-0.2c-0.4-0.4-0.4-1.1 0-1.6q0 0 0 0c2.2-2.8 5.7-4.3 9.3-4.1 0.6 0.1 1 0.6 0.9 1.2q0 0 0 0c-0.1 0.6-0.6 1-1.2 1-2.8-0.2-5.6 1.1-7.3 3.3-0.2 0.3-0.6 0.4-1 0.4z"/>
					</g>
					<g id="&lt;Group&gt;">
						<path id="&lt;Path&gt;" class="s25" d="m428.6 239q-0.4 1.6-1 3c-2 5.7-5.8 10.6-10.7 14.1q-1.9 1.3-3.9 2.4c-10.8 5.6-24 3.6-32.4-5.1-10.9-10.8-10.6-23.2-11.9-44.3-0.3-4.5 0.5-9 2.2-13.2 6.3-14.8 23.4-21.7 38.4-15.6q0 0 0 0c20.9 8.4 23.8 39.7 19.3 58.7z"/>
						<path id="&lt;Path&gt;" class="s8" d="m416.8 256.1q-1.8 1.3-3.9 2.4c-7.3 3.8-15.9 4.2-23.5 1 1-2.5 2.3-4.9 3.9-7.2 8-1 16.2 0.3 23.5 3.8z"/>
						<path id="&lt;Path&gt;" class="s25" d="m373.7 283.4c10.6 9.4 36.4 6 36.4 6 0 0 16.2-4.4 12.8-9.3-9.5-1.6-14.1-5.9-16-11.5-1.1-3.5-1.4-7.1-1-10.7q0.2-3 0.8-6l-32-23.2c4.2 15.3 9.3 43.6-1 54.7z"/>
						<path id="&lt;Path&gt;" class="s7" d="m416.8 219.9l4.7 1.7-2.3-9.3c0 0 6.7-10.2 0-18.9 0 0 18.6-5.6 8.1-15.3-3.9-3.6-8.8 0-21.7-5.5-7-3-28.9-3.2-29.9 5.5 0 0-15.8 0-17.5 26.4-1 15.6 5.1 30.9 16.7 41.7 0 0 19 4.4 28.3-3.1 9.4-7.5 13.6-23.2 13.6-23.2z"/>
						<path id="&lt;Path&gt;" class="s25" d="m404.7 221.4c0.8 4 3.4 7.4 7.1 9.3 4.3 1.8 7.2-4.2 6.6-10.5-0.6-5.7-3.6-13.6-8.2-12.5-4.7 1.1-7.1 8-5.5 13.7z"/>
					</g>
				</g>
				<g id="&lt;Group&gt;">
					<path id="&lt;Path&gt;" class="s6" d="m341.2 278.4c0 0-7.4 2.2-11.1 3.6-7.7 2.8-12.8 11.4-15.6 19.8-6.8 20.6-17.8 69.3-17.8 69.3l39.9 8.4 21.3-45.9z"/>
					<path id="&lt;Path&gt;" class="s17" d="m341.2 278.4c0 0-10.7 1.9-16.3 6.6-4.3 3.5-7.7 8.7-10.4 16.8-6.8 20.6-17.8 69.3-17.8 69.3l39.9 8.4 21.3-45.9z"/>
					<g id="&lt;Group&gt;">
						<path id="&lt;Path&gt;" class="s6" d="m437.9 280.7c-11.7-1.3-48-9.4-96.7-2.3l-11.4 180.1c0 0-1.5 27.6-5.8 51.2 49.5 21.3 108.1 15.2 141.2-2.7-0.4 0.8-1.5-18.9-3.2-47.7-2.9-50.7-7.8-129.8-14.2-175.6-0.1-1.2-8.7-2.9-9.9-3z"/>
					</g>
					<g id="&lt;Group&gt;" style="opacity: .5">
						<path id="&lt;Path&gt;" class="s2" d="m437.9 280.7c-11.7-1.3-48-9.4-96.7-2.3l-11.4 180.1c0 0-1.5 27.6-5.8 51.2 49.5 21.3 108.1 15.2 141.2-2.7-0.4 0.8-1.5-18.9-3.2-47.7-2.9-50.7-7.8-129.8-14.2-175.6-0.1-1.2-8.7-2.9-9.9-3z"/>
					</g>
					<g id="&lt;Group&gt;">
						<path id="&lt;Path&gt;" class="s6" d="m373.2 276.5q2.1-6.3 5.8-8.9l27.2 2.1 12.7 8.4z"/>
						<path id="&lt;Path&gt;" class="s17" d="m373.2 276.5q2.1-6.3 5.8-8.9l27.2 2.1 12.7 8.4z"/>
					</g>
					<path id="&lt;Path&gt;" class="s8" d="m436.7 336.8c4.3 20.3 10.6 60 22.4 73.9l-2.9-40.2z"/>
					<path id="&lt;Path&gt;" class="s8" d="m334.1 378.9l1-52-10.9 49.5z"/>
				</g>
				<g id="&lt;Group&gt;">
					<path id="&lt;Path&gt;" class="s25" d="m457.5 352.8c-1.6 0.6 27.8 66.7 39.8 67.3 12 0.6 68.1-25 68.1-25l-12.6-15-42.4 2.4-21.7-46.1z"/>
					<g id="&lt;Group&gt;">
						<path id="&lt;Path&gt;" class="s6" d="m442.7 283c-15.2 10-22.8 32.8 18.1 103.2l44.1-27c-9-16.4-18.4-28.4-28.9-52.2-21.2-30.5-33.3-24-33.3-24z"/>
						<path id="&lt;Path&gt;" class="s17" d="m442.7 283c-15.2 10-22.8 32.8 18.1 103.2l44.1-27c-9-16.4-18.4-28.4-28.9-52.2-21.2-30.5-33.3-24-33.3-24z"/>
					</g>
					<path id="&lt;Path&gt;" class="s25" d="m585.2 379.7c0-3.9-1.2-8.1-3.3-8.2-2-0.2-13.1 0-13.1 0 0-3.1 5.8-6.6 3.9-8.7-2.5-2.8-16.9 9.1-17.8 11.5-1.7 4.8-2.6 6-2.6 6l7.6 17.4c0 0 14 9.3 17.3 6 3.3-3.3 3-6.8 3-6.8 0 0 3.2-4.5 2.9-7.5-0.3-2.9 2.1-5.9 2.1-9.7z"/>
				</g>
			</g>
		</g>
	</g>
</svg>